{
.appVersion = "3206";
.formatVersion = 3;
axes = (
{
default = 100;
name = Weight;
tag = wght;
}
);
classes = (
{
code = "nya-tml2 nna-tml2 rra-tml2 nnna-tml2 la-tml2 na-tml2 ta-tml2";
name = CG_1;
},
{
code = "na-tml2.psts nya-tml2.psts nna-tml2.psts rra-tml2.psts la-tml2.psts ta-tml2.psts nnna-tml2.psts";
name = CG_2;
},
{
code = "sa-tml2 ha-tml2";
name = CG_3;
},
{
code = "llla-tml2 sha-tml2 rra-tml2 ma-tml2 ja-tml2 ha-tml2";
name = CG_4;
},
{
code = "ssa-tml2 ka_signviramacomb_ssa-tml2.akhn";
name = CG_5;
},
{
code = "ka-tml2 ta-tml2";
name = CG_6;
},
{
code = "nya-tml2 na-tml2";
name = CG_7;
},
{
code = "ya-tml2 va-tml2 pa-tml2 nga-tml2";
name = CG_8;
},
{
code = "vowelsigni-tml2 vowelsigniicomb-tml2 signanusvaracomb-tml2 signviramacomb-tml2";
name = CG_9;
},
{
code = "nna-tml2 nnna-tml2 lla-tml2 la-tml2";
name = CG_10;
},
{
code = "nna-tml2 vowelsignuu-tml2.alt1 ee-tml2 vowelsignaa-tml2 nnna-tml2 lla-tml2 e-tml2 aulength-tml2 onehundred-tml2 ra-tml2 au-tml2";
name = KernClass1;
},
{
code = "llla_vowelsignuu-tml2.psts seven-tml2 asabovesign-tml2 nya-tml2 nna-tml2 ee-tml2 sa-tml2 ca_vowelsignu-tml2.psts vowelsignai-tml2 ma_vowelsignuu-tml2.psts ssa-tml2 tta_vowelsignu-tml2.psts va-tml2 lla_vowelsignu-tml2.psts four-tml2 onethousand-tml2 creditsign-tml2 five-tml2 nnna-tml2 sha_signviramacomb_ra_vowelsigniicomb-tml2.akhn lla-tml2 va_vowelsignuu-tml2.psts ka-tml2 ka_vowelsignu-tml2.psts lla_vowelsignuu-tml2.psts e-tml2 aulength-tml2 la-tml2 yearsign-tml2 six-tml2 ta-tml2 ra_vowelsignu-tml2.psts nya-tml2.psts ca_vowelsignuu-tml2.psts nna-tml2.psts ma_vowelsignu-tml2.psts ra_vowelsignuu-tml2.psts ca-tml2 tta_vowelsignuu-tml2.psts nine-tml2 la-tml2.psts ha-tml2 one-tml2 nnna-tml2.psts daysign-tml2";
name = KernClass2;
},
{
code = "aa-tml2 a-tml2 eight-tml2";
name = KernClass3;
},
{
code = "i-tml2";
name = KernClass_tm_I;
},
{
code = "signanusvaracomb-tml2 signviramacomb-tml2";
name = M2B_M_1;
},
{

glyphs = (
{
glyphname = .notdef;
layers = (
{
layerId = m001;
shapes = (
{
closed = 1;
nodes = (
(100,0,l),
(100,696,l),
(528,696,l),
(528,0,l)
);
},
{
closed = 1;
nodes = (
(478,657,l),
(149,657,l),
(149,39,l),
(478,39,l)
);
}
);
width = 628;
},
{
layerId = m003;
shapes = (
{
closed = 1;
nodes = (
(94,0,l),
(94,696,l),
(602,696,l),
(602,0,l)
);
},
{
closed = 1;
nodes = (
(440,573,l),
(255,573,l),
(255,122,l),
(440,122,l)
);
}
);
width = 697;
}
);
},
{
glyphname = "alef-hebr";
layers = (
{
anchors = (
{
name = Anchor_1;
pos = (329,0);
},
{
name = dagesh;
pos = (248,-99);
}
);
layerId = m001;
shapes = (
{
closed = 1;
nodes = (
(579,579,l),
(540,604,l),
(358,257,l),
(389,219,l)
);
},
{
closed = 1;
nodes = (
(122,604,l),
(75,587,l),
(520,0,l),
(581,0,l)
);
},
{
closed = 1;
nodes = (
(124,237,l),
(124,353,o),
(217,388,o),
(251,408,c),
(224,439,l),
(151,404,o),
(75,356,o),
(75,232,c),
(75,0,l),
(124,0,l)
);
}
);
width = 631;
},
{
anchors = (
{
name = Anchor_1;
pos = (329,0);
},
{
name = dagesh;
pos = (266,-159);
}
);
layerId = m003;
shapes = (
{
closed = 1;
nodes = (
(637,498,l),
(517,615,l),
(335,373,l),
(441,246,l)
);
},
{
closed = 1;
nodes = (
(200,616,l),
(40,555,l),
(424,0,l),
(629,0,l)
);
},
{
closed = 1;
nodes = (
(205,227,l),
(205,295,o),
(242,321,o),
(276,345,c),
(208,449,l),
(114,397,o),
(25,333,o),
(25,191,c),
(25,0,l),
(205,0,l)
);
}
);
width = 657;
}
);
unicode = 1488;
},
{
glyphname = "bet-hebr";
layers = (
{
anchors = (
{
name = Anchor_1;
pos = (268,0);
},
{
name = dagesh;
pos = (206,0);
}
);
layerId = m001;
shapes = (
{
closed = 1;
nodes = (
(65,0,l),
(65,39,l),
(381,39,l),
(381,551,l),
(65,551,l),
(75,590,l),
(430,590,l),
(430,39,l),
(490,39,l),
(485,0,l)
);
}
);
width = 520;
},
{
anchors = (
{
name = Anchor_1;
pos = (268,0);
},
{
name = dagesh;
pos = (141,0);
}
);
layerId = m003;
shapes = (
{
closed = 1;
nodes = (
(25,0,l),
(25,143,l),
(260,143,l),
(260,447,l),
(25,447,l),
(45,590,l),
(442,590,l),
(442,143,l),
(500,143,l),
(495,0,l)
);
}
);
width = 516;
}
);
unicode = 1489;
},
{
glyphname = "gimel-hebr";
layers = (
{
anchors = (
{
name = Anchor_1;
pos = (210,0);
},
{
name = dagesh;
pos = (121,21);
}
);
layerId = m001;
shapes = (
{
closed = 1;
nodes = (
(350,3,l),
(314,105,o),
(286,175,o),
(286,259,c),
(286,590,l),
(78,590,l),
(68,551,l),
(237,551,l),
(237,258,l),
(237,130,o),
(138,44,o),
(57,40,c),
(52,-6,l),
(57,-6,l),
(132,-6,o),
(206,32,o),
(253,155,c),
(258,131,o),
(274,76,o),
(303,-10,c)
);
}
);
width = 380;
},
{
anchors = (
{
name = Anchor_1;
pos = (198,0);
},
{
name = dagesh;
pos = (100,36);
}
);
layerId = m003;
shapes = (
{
closed = 1;
nodes = (
(426,3,l),
(398,115,o),
(376,190,o),
(376,295,c),
(376,590,l),
(46,590,l),
(26,447,l),
(194,447,l),
(194,354,l),
(194,209,o),
(91,150,o),
(11,150,c),
(6,-16,l),
(15,-16,l),
(111,-16,o),
(192,38,o),
(221,151,c),
(224,120,o),
(228,102,o),
(250,-10,c)
);
}
);
width = 424;
}
);
unicode = 1490;
},
{
glyphname = "dalet-hebr";
layers = (
{
anchors = (
{
name = Anchor_1;
pos = (367,0);
},
{
name = dagesh;
pos = (199,0);
}
);
layerId = m001;
shapes = (
{
closed = 1;
nodes = (
(354,0,l),
(354,551,l),
(60,551,l),
(70,590,l),
(485,590,l),
(480,551,l),
(403,551,l),
(403,0,l)
);
}
);
width = 523;
},
{
anchors = (
{
name = Anchor_1;
pos = (313,0);
},
{
name = dagesh;
pos = (121,0);
}
);
layerId = m003;
shapes = (
{
closed = 1;
nodes = (
(229,0,l),
(229,447,l),
(20,447,l),
(40,590,l),
(475,590,l),
(470,447,l),
(411,447,l),
(411,0,l)
);
}
);
width = 508;
}
);
unicode = 1491;
},
{
glyphname = "he-hebr";
layers = (
{
anchors = (
{
name = Anchor_1;
pos = (304,0);
},
{
name = dagesh;
pos = (295,0);
},
{
name = holam;
pos = (34,0);
}
);
layerId = m001;
shapes = (
{
closed = 1;
nodes = (
(511,408,l),
(511,497,o),
(474,595,o),
(288,595,c),
(189,595,o),
(106,571,o),
(68,553,c),
(87,516,l),
(136,535,o),
(202,554,o),
(288,554,c),
(410,554,o),
(462,512,o),
(462,409,c),
(462,0,l),
(511,0,l)
);
},
{
closed = 1;
nodes = (
(117,366,l),
(68,340,l),
(68,0,l),
(117,0,l)
);
}
);
width = 596;
},
{
anchors = (
{
name = Anchor_1;
pos = (304,0);
},
{
name = dagesh;
pos = (303,-24);
},
{
name = holam;
pos = (19,0);
}
);
layerId = m003;
shapes = (
{
closed = 1;
nodes = (
(551,391,l),
(551,497,o),
(474,595,o),
(253,595,c),
(144,595,o),
(52,574,o),
(15,563,c),
(41,414,l),
(97,428,o),
(164,444,o),
(244,444,c),
(346,442,o),
(369,402,o),
(369,319,c),
(369,0,l),
(551,0,l)
);
},
{
closed = 1;
nodes = (
(233,359,l),
(51,316,l),
(51,0,l),
(233,0,l)
);
}
);
width = 596;
}
);
unicode = 1492;
},
{
glyphname = "vav-hebr";
layers = (
{
anchors = (
{
name = Anchor_1;
pos = (218,0);
},
{
name = dagesh;
pos = (110,0);
}
);
layerId = m001;
shapes = (
{
closed = 1;
nodes = (
(190,0,l),
(190,551,l),
(60,551,l),
(70,590,l),
(239,590,l),
(239,0,l)
);
}
);
width = 329;
},
{
anchors = (
{
name = Anchor_1;
pos = (218,0);
},
{
name = dagesh;
pos = (65,-24);
}
);
layerId = m003;
shapes = (
{
closed = 1;
nodes = (
(123,0,l),
(123,447,l),
(20,447,l),
(40,590,l),
(305,590,l),
(305,0,l)
);
}
);
width = 355;
}
);
unicode = 1493;
},
{
glyphname = "zayin-hebr";
layers = (
{
anchors = (
{
name = Anchor_1;
pos = (275,0);
},
{
name = dagesh;
pos = (110,0);
}
);
layerId = m001;
shapes = (
{
closed = 1;
nodes = (
(140,550,l),
(60,550,l),
(70,590,l),
(339,590,l),
(330,550,l),
(189,550,l),
(292,3,l),
(243,-4,l)
);
}
);
width = 394;
},
{
anchors = (
{
name = Anchor_1;
pos = (275,0);
},
{
name = dagesh;
pos = (65,-27);
}
);
layerId = m003;
shapes = (
{
closed = 1;
nodes = (
(100,447,l),
(20,447,l),
(40,590,l),
(366,590,l),
(345,447,l),
(283,447,l),
(356,11,l),
(175,-14,l)
);
}
);
width = 386;
}
);
unicode = 1494;
},
{
glyphname = "het-hebr";
layers = (
{
anchors = (
{
name = Anchor_1;
pos = (313,0);
},
{
name = dagesh;
pos = (301,0);
}
);
layerId = m001;
shapes = (
{
closed = 1;
nodes = (
(525,421,l),
(525,519,o),
(487,596,o),
(293,596,c),
(217,596,o),
(147,590,o),
(90,582,c),
(90,0,l),
(139,0,l),
(139,548,l),
(176,551,o),
(216,552,o),
(257,552,c),
(393,552,o),
(476,536,o),
(476,422,c),
(476,0,l),
(525,0,l)
);
}
);
width = 610;
},
{
anchors = (
{
name = Anchor_1;
pos = (320,0);
},
{
name = dagesh;
pos = (308,-21);
}
);
layerId = m003;
shapes = (
{
closed = 1;
nodes = (
(581,385,l),
(581,506,o),
(497,595,o),
(288,595,c),
(181,595,o),
(86,584,o),
(45,574,c),
(45,0,l),
(227,0,l),
(227,442,l),
(242,443,o),
(264,444,o),
(298,444,c),
(376,444,o),
(399,416,o),
(399,349,c),
(399,0,l),
(581,0,l)
);
}
);
width = 626;
}
);
unicode = 1495;
},
{
glyphname = "tet-hebr";
layers = (
{
anchors = (
{
name = Anchor_1;
pos = (312,0);
},
{
name = dagesh;
pos = (396,0);
}
);
layerId = m001;
shapes = (
{
closed = 1;
nodes = (
(497,-10,o),
(553,116,o),
(553,253,c),
(553,590,l),
(524,590,l),
(431,590,o),
(329,535,o),
(281,367,c),
(320,346,l),
(371,514,o),
(459,549,o),
(505,551,c),
(504,487,l),
(504,253,l),
(503,87,o),
(421,33,o),
(319,33,c),
(217,33,o),
(136,87,o),
(134,253,c),
(134,487,l),
(132,590,l),
(85,590,l),
(85,253,l),
(85,116,o),
(141,-11,o),
(319,-11,c)
);
}
);
width = 638;
},
{
anchors = (
{
name = Anchor_1;
pos = (312,0);
},
{
name = dagesh;
pos = (337,-9);
}
);
layerId = m003;
shapes = (
{
closed = 1;
nodes = (
(480,-11,o),
(621,54,o),
(621,290,c),
(621,590,l),
(512,590,l),
(410,590,o),
(330,535,o),
(275,460,c),
(362,354,l),
(387,383,o),
(421,417,o),
(443,418,c),
(439,348,l),
(439,265,l),
(439,197,o),
(416,150,o),
(337,150,c),
(272,150,o),
(227,180,o),
(227,265,c),
(227,447,l),
(226,590,l),
(45,590,l),
(45,290,l),
(45,54,o),
(199,-11,o),
(337,-11,c)
);
}
);
width = 666;
}
);
unicode = 1496;
},
{
glyphname = "yod-hebr";
layers = (
{
anchors = (
{
name = Anchor_1;
pos = (210,0);
},
{
name = dagesh;
pos = (108,138);
}
);
layerId = m001;
shapes = (
{
closed = 1;
nodes = (
(191,551,l),
(60,551,l),
(70,590,l),
(240,590,l),
(240,284,l),
(191,267,l)
);
}
);
width = 330;
},
{
anchors = (
{
name = Anchor_1;
pos = (210,0);
},
{
name = dagesh;
pos = (54,51);
}
);
layerId = m003;
shapes = (
{
closed = 1;
nodes = (
(123,447,l),
(20,447,l),
(40,590,l),
(305,590,l),
(305,270,l),
(123,230,l)
);
}
);
width = 355;
}
);
unicode = 1497;
},
{
glyphname = "finalkaf-hebr";
layers = (
{
anchors = (
{
name = Anchor_1;
pos = (249,351);
},
{
name = dagesh;
pos = (225,0);
}
);
layerId = m001;
shapes = (
{
closed = 1;
nodes = (
(460,-179,l),
(460,338,l),
(460,522,o),
(380,593,o),
(226,593,c),
(169,593,o),
(113,585,o),
(65,572,c),
(79,533,l),
(134,549,o),
(184,554,o),
(222,554,c),
(381,554,o),
(411,446,o),
(411,329,c),
(411,-198,l)
);
}
);
width = 540;
},
{
anchors = (
{
name = Anchor_1;
pos = (204,351);
},
{
name = dagesh;
pos = (186,-42);
}
);
layerId = m003;
shapes = (
{
closed = 1;
nodes = (
(502,-172,l),
(502,391,l),
(502,497,o),
(425,595,o),
(234,595,c),
(144,595,o),
(70,574,o),
(35,563,c),
(58,414,l),
(110,431,o),
(165,444,o),
(214,444,c),
(293,444,o),
(320,402,o),
(320,329,c),
(320,-208,l)
);
}
);
width = 547;
}
);
unicode = 1498;
},
{
glyphname = "kaf-hebr";
layers = (
{
anchors = (
{
name = Anchor_1;
pos = (261,0);
},
{
name = dagesh;
pos = (216,0);
}
);
layerId = m001;
shapes = (
{
closed = 1;
nodes = (
(316,-14,o),
(468,16,o),
(468,290,c),
(468,572,o),
(308,595,o),
(209,595,c),
(152,595,o),
(94,584,o),
(59,572,c),
(73,533,l),
(112,545,o),
(163,554,o),
(214,554,c),
(296,554,o),
(419,541,o),
(419,289,c),
(419,47,o),
(299,30,o),
(224,30,c),
(169,30,o),
(114,43,o),
(71,57,c),
(55,17,l),
(90,1,o),
(151,-14,o),
(215,-14,c)
);
}
);
width = 533;
},
{
anchors = (
{
name = Anchor_1;
pos = (261,0);
},
{
name = dagesh;
pos = (153,0);
}
);
layerId = m003;
shapes = (
{
closed = 1;
nodes = (
(362,-13,o),
(482,57,o),
(482,291,c),
(482,541,o),
(356,596,o),
(182,596,c),
(111,596,o),
(48,583,o),
(16,575,c),
(37,430,l),
(73,437,o),
(122,445,o),
(173,445,c),
(267,445,o),
(300,421,o),
(300,291,c),
(300,175,o),
(263,148,o),
(163,148,c),
(125,148,o),
(80,152,o),
(38,162,c),
(15,14,l),
(63,0,o),
(121,-13,o),
(214,-13,c)
);
}
);
width = 507;
}
);
unicode = 1499;
},
{
glyphname = "lamed-hebr";
layers = (
{
anchors = (
{
name = Anchor_1;
pos = (261,0);
},
{
name = dagesh;
pos = (201,90);
},
{
name = holam;
pos = (-33,0);
}
);
layerId = m001;
shapes = (
{
closed = 1;
nodes = (
(168,17,l),
(443,550,l),
(60,550,l),
(60,725,l),
(111,725,l),
(111,590,l),
(496,590,l),
(495,553,l),
(211,-8,l)
);
}
);
width = 556;
},
{
anchors = (
{
name = Anchor_1;
pos = (261,0);
},
{
name = dagesh;
pos = (118,57);
},
{
name = holam;
pos = (-33,0);
}
);
layerId = m003;
shapes = (
{
closed = 1;
nodes = (
(59,49,l),
(275,447,l),
(20,447,l),
(20,725,l),
(202,725,l),
(202,590,l),
(486,590,l),
(485,447,l),
(231,-12,l)
);
}
);
width = 506;
}
);
unicode = 1500;
},
{
glyphname = "finalmem-hebr";
layers = (
{
anchors = (
{
name = Anchor_1;
pos = (312,0);
},
{
name = dagesh;
pos = (303,0);
}
);
layerId = m001;
shapes = (
{
closed = 1;
nodes = (
(464,553,l),
(134,553,l),
(134,37,l),
(464,37,l)
);
},
{
closed = 1;
nodes = (
(85,0,l),
(85,590,l),
(513,590,l),
(513,0,l)
);
}
);
width = 603;
},
{
anchors = (
{
name = Anchor_1;
pos = (312,0);
},
{
name = dagesh;
pos = (319,3);
}
);
layerId = m003;
shapes = (
{
closed = 1;
nodes = (
(402,447,l),
(232,447,l),
(232,143,l),
(402,143,l)
);
},
{
closed = 1;
nodes = (
(50,0,l),
(50,590,l),
(584,590,l),
(584,0,l)
);
}
);
width = 634;
}
);
unicode = 1501;
},
{
glyphname = "mem-hebr";
layers = (
{
anchors = (
{
name = Anchor_1;
pos = (350,0);
},
{
name = dagesh;
pos = (386,0);
}
);
layerId = m001;
shapes = (
{
closed = 1;
nodes = (
(158,128,o),
(195,245,o),
(235,337,c),
(288,459,o),
(372,551,o),
(523,551,c),
(523,289,l),
(523,94,o),
(469,37,o),
(372,37,c),
(340,37,o),
(313,42,o),
(280,54,c),
(264,13,l),
(294,-1,o),
(327,-9,o),
(363,-9,c),
(494,-9,o),
(572,64,o),
(572,258,c),
(572,402,l),
(572,469,o),
(572,533,o),
(570,590,c),
(522,590,l),
(362,590,o),
(263,506,o),
(197,368,c),
(165,302,o),
(118,158,o),
(64,4,c),
(111,-11,l)
);
},
{
closed = 1;
nodes = (
(233,413,l),
(101,598,l),
(55,579,l),
(215,355,l)
);
}
);
width = 654;
},
{
anchors = (
{
name = Anchor_1;
pos = (350,0);
},
{
name = dagesh;
pos = (374,-12);
}
);
layerId = m003;
shapes = (
{
closed = 1;
nodes = (
(235,115,o),
(263,225,o),
(301,308,c),
(353,421,o),
(403,445,o),
(454,445,c),
(454,289,l),
(454,192,o),
(451,147,o),
(381,147,c),
(366,147,o),
(348,149,o),
(327,153,c),
(294,4,l),
(323,-7,o),
(365,-13,o),
(410,-13,c),
(542,-13,o),
(636,73,o),
(636,259,c),
(636,346,l),
(636,434,o),
(632,489,o),
(632,590,c),
(470,590,l),
(320,590,o),
(232,494,o),
(185,425,c),
(107,309,o),
(52,162,o),
(27,14,c),
(203,-17,l)
);
},
{
closed = 1;
nodes = (
(258,470,l),
(163,614,l),
(9,557,l),
(190,267,l)
);
}
);
width = 676;
}
);
unicode = 1502;
},
{
glyphname = "finalnun-hebr";
layers = (
{
anchors = (
{
name = Anchor_1;
pos = (111,375);
},
{
name = dagesh;
pos = (117,0);
}
);
layerId = m001;
shapes = (
{
closed = 1;
nodes = (
(195,551,l),
(60,551,l),
(70,590,l),
(244,590,l),
(244,-179,l),
(195,-198,l)
);
}
);
width = 334;
},
{
anchors = (
{
name = Anchor_1;
pos = (60,360);
},
{
name = dagesh;
pos = (48,-48);
}
);
layerId = m003;
shapes = (
{
closed = 1;
nodes = (
(123,447,l),
(20,447,l),
(40,590,l),
(305,590,l),
(305,-172,l),
(123,-208,l)
);
}
);
width = 355;
}
);
unicode = 1503;
},
{
glyphname = "nun-hebr";
layers = (
{
anchors = (
{
name = Anchor_1;
pos = (220,0);
},
{
name = dagesh;
pos = (160,0);
}
);
layerId = m001;
shapes = (
{
closed = 1;
nodes = (
(333,420,l),
(333,536,o),
(275,593,o),
(171,593,c),
(137,593,o),
(106,587,o),
(77,575,c),
(87,539,l),
(117,548,o),
(145,553,o),
(171,553,c),
(257,553,o),
(282,505,o),
(284,399,c),
(284,39,l),
(60,39,l),
(60,0,l),
(333,0,l)
);
}
);
width = 418;
},
{
anchors = (
{
name = Anchor_1;
pos = (220,0);
},
{
name = dagesh;
pos = (99,0);
}
);
layerId = m003;
shapes = (
{
closed = 1;
nodes = (
(363,400,l),
(363,522,o),
(299,593,o),
(153,593,c),
(109,593,o),
(62,585,o),
(20,572,c),
(47,429,l),
(70,436,o),
(91,441,o),
(112,441,c),
(157,441,o),
(182,423,o),
(185,368,c),
(185,143,l),
(25,143,l),
(25,0,l),
(363,0,l)
);
}
);
width = 408;
}
);
unicode = 1504;
},
{
glyphname = "samekh-hebr";
layers = (
{
anchors = (
{
name = Anchor_1;
pos = (327,0);
},
{
name = dagesh;
pos = (309,0);
}
);
layerId = m001;
shapes = (
{
closed = 1;
nodes = (
(225,28,o),
(134,85,o),
(134,266,c),
(134,544,l),
(169,549,o),
(213,552,o),
(257,552,c),
(368,552,o),
(505,546,o),
(505,290,c),
(505,99,o),
(420,28,o),
(322,28,c)
);
},
{
closed = 1;
nodes = (
(481,-13,o),
(554,104,o),
(554,290,c),
(554,566,o),
(419,595,o),
(251,595,c),
(177,595,o),
(121,586,o),
(85,581,c),
(85,284,l),
(85,140,o),
(124,-13,o),
(318,-13,c)
);
}
);
width = 617;
},
{
anchors = (
{
name = Anchor_1;
pos = (327,0);
},
{
name = dagesh;
pos = (316,15);
}
);
layerId = m003;
shapes = (
{
closed = 1;
nodes = (
(275,150,o),
(227,163,o),
(227,275,c),
(227,442,l),
(248,443,o),
(273,444,o),
(295,444,c),
(384,444,o),
(408,401,o),
(408,300,c),
(408,175,o),
(379,150,o),
(314,150,c)
);
},
{
closed = 1;
nodes = (
(478,-11,o),
(588,80,o),
(588,300,c),
(588,494,o),
(534,595,o),
(298,595,c),
(183,595,o),
(111,586,o),
(45,574,c),
(45,290,l),
(45,216,o),
(53,-11,o),
(318,-11,c)
);
}
);
width = 618;
}
);
unicode = 1505;
},
{
glyphname = "ayin-hebr";
layers = (
{
anchors = (
{
name = Anchor_1;
pos = (303,0);
},
{
name = dagesh;
pos = (321,0);
}
);
layerId = m001;
shapes = (
{
closed = 1;
nodes = (
(468,-12,o),
(501,142,o),
(501,290,c),
(501,590,l),
(452,590,l),
(452,289,l),
(452,86,o),
(389,28,o),
(247,28,c),
(184,28,o),
(125,40,o),
(63,57,c),
(50,16,l),
(100,0,o),
(178,-13,o),
(247,-13,c)
);
},
{
closed = 1;
nodes = (
(78,585,l),
(126,597,l),
(270,26,l),
(225,18,l)
);
}
);
width = 586;
},
{
anchors = (
{
name = Anchor_1;
pos = (303,0);
},
{
name = dagesh;
pos = (326,69);
}
);
layerId = m003;
shapes = (
{
closed = 1;
nodes = (
(426,-12,o),
(567,80,o),
(567,323,c),
(567,590,l),
(385,590,l),
(385,340,l),
(385,208,o),
(351,148,o),
(201,148,c),
(142,148,o),
(88,155,o),
(31,169,c),
(10,13,l),
(69,-4,o),
(138,-13,o),
(233,-13,c)
);
},
{
closed = 1;
nodes = (
(29,576,l),
(208,602,l),
(343,62,l),
(182,61,l)
);
}
);
width = 612;
}
);
unicode = 1506;
},
{
glyphname = "finalpe-hebr";
layers = (
{
anchors = (
{
name = Anchor_1;
pos = (336,336);
},
{
name = dagesh;
pos = (315,0);
}
);
layerId = m001;
shapes = (
{
closed = 1;
nodes = (
(510,-179,l),
(510,316,l),
(510,551,o),
(411,595,o),
(244,595,c),
(183,595,o),
(130,589,o),
(75,581,c),
(65,352,l),
(65,290,o),
(102,239,o),
(192,191,c),
(214,226,l),
(132,283,o),
(115,316,o),
(115,364,c),
(124,548,l),
(140,549,o),
(202,552,o),
(254,552,c),
(426,552,o),
(461,470,o),
(461,320,c),
(461,-198,l)
);
}
);
width = 595;
},
{
anchors = (
{
name = Anchor_1;
pos = (312,336);
},
{
name = dagesh;
pos = (311,-66);
}
);
layerId = m003;
shapes = (
{
closed = 1;
nodes = (
(560,-172,l),
(560,322,l),
(560,551,o),
(424,596,o),
(250,596,c),
(178,596,o),
(108,589,o),
(52,581,c),
(44,355,l),
(44,280,o),
(88,227,o),
(174,174,c),
(272,280,l),
(230,318,o),
(220,351,o),
(220,392,c),
(220,443,l),
(233,444,o),
(257,444,o),
(276,444,c),
(372,444,o),
(378,390,o),
(378,334,c),
(378,-208,l)
);
}
);
width = 605;
}
);
unicode = 1507;
},
{
glyphname = "pe-hebr";
layers = (
{
anchors = (
{
name = Anchor_1;
pos = (314,0);
},
{
name = dagesh;
pos = (320,0);
}
);
layerId = m001;
shapes = (
{
closed = 1;
nodes = (
(445,-13,o),
(518,87,o),
(518,316,c),
(518,551,o),
(413,595,o),
(253,595,c),
(197,595,o),
(140,590,o),
(83,581,c),
(73,352,l),
(73,293,o),
(108,240,o),
(181,202,c),
(203,237,l),
(140,284,o),
(123,320,o),
(123,364,c),
(133,548,l),
(170,552,o),
(208,554,o),
(242,554,c),
(397,554,o),
(469,507,o),
(469,318,c),
(469,131,o),
(421,29,o),
(261,29,c),
(199,29,o),
(140,40,o),
(84,64,c),
(65,23,l),
(115,-1,o),
(179,-13,o),
(252,-13,c)
);
}
);
width = 581;
},
{
anchors = (
{
name = Anchor_1;
pos = (314,0);
},
{
name = dagesh;
pos = (288,-57);
}
);
layerId = m003;
shapes = (
{
closed = 1;
nodes = (
(465,-13,o),
(552,98,o),
(552,291,c),
(552,517,o),
(452,596,o),
(266,596,c),
(185,596,o),
(108,590,o),
(48,575,c),
(32,386,l),
(32,296,o),
(73,250,o),
(160,195,c),
(251,293,l),
(217,342,o),
(211,372,o),
(211,412,c),
(213,447,l),
(237,448,o),
(258,448,o),
(278,448,c),
(340,448,o),
(370,415,o),
(370,307,c),
(370,202,o),
(347,143,o),
(231,143,c),
(169,143,o),
(108,154,o),
(51,170,c),
(30,22,l),
(64,6,o),
(144,-13,o),
(242,-13,c)
);
}
);
width = 582;
}
);
unicode = 1508;
},
{
glyphname = "finaltsadi-hebr";
layers = (
{
anchors = (
{
name = Anchor_1;
pos = (175,252);
},
{
name = dagesh;
pos = (295,153);
}
);
layerId = m001;
shapes = (
{
closed = 1;
nodes = (
(484,-187,l),
(94,602,l),
(50,582,l),
(441,-211,l)
);
},
{
closed = 1;
nodes = (
(527,577,l),
(488,604,l),
(271,188,l),
(302,154,l)
);
}
);
width = 565;
},
{
anchors = (
{
name = Anchor_1;
pos = (170,252);
},
{
name = dagesh;
pos = (281,231);
}
);
layerId = m003;
shapes = (
{
closed = 1;
nodes = (
(561,-147,l),
(158,610,l),
(0,557,l),
(417,-229,l)
);
},
{
closed = 1;
nodes = (
(581,509,l),
(462,621,l),
(238,366,l),
(350,233,l)
);
}
);
width = 589;
}
);
unicode = 1509;
},
{
glyphname = "tsadi-hebr";
layers = (
{
anchors = (
{
name = Anchor_1;
pos = (300,0);
},
{
name = dagesh;
pos = (189,-99);
}
);
layerId = m001;
shapes = (
{
closed = 1;
nodes = (
(498,39,l),
(91,603,l),
(45,586,l),
(444,39,l),
(75,39,l),
(75,0,l),
(485,0,l)
);
},
{
closed = 1;
nodes = (
(526,579,l),
(488,604,l),
(306,257,l),
(336,219,l)
);
}
);
width = 570;
},
{
anchors = (
{
name = Anchor_1;
pos = (300,0);
},
{
name = dagesh;
pos = (162,-75);
}
);
layerId = m003;
shapes = (
{
closed = 1;
nodes = (
(520,143,l),
(158,619,l),
(5,557,l),
(310,143,l),
(45,143,l),
(45,0,l),
(495,0,l)
);
},
{
closed = 1;
nodes = (
(581,503,l),
(467,618,l),
(271,372,l),
(378,259,l)
);
}
);
width = 585;
}
);
unicode = 1510;
},
{
glyphname = "qof-hebr";
layers = (
{
anchors = (
{
name = Anchor_1;
pos = (356,0);
},
{
name = dagesh;
pos = (281,0);
}
);
layerId = m001;
shapes = (
{
closed = 1;
nodes = (
(317,6,l),
(490,551,l),
(65,551,l),
(74,590,l),
(529,590,l),
(534,540,l),
(364,-12,l)
);
},
{
closed = 1;
nodes = (
(117,372,l),
(166,397,l),
(166,-179,l),
(117,-198,l)
);
}
);
width = 599;
},
{
anchors = (
{
name = Anchor_1;
pos = (380,0);
},
{
name = dagesh;
pos = (295,39);
}
);
layerId = m003;
shapes = (
{
closed = 1;
nodes = (
(264,71,l),
(396,447,l),
(25,447,l),
(43,590,l),
(582,590,l),
(581,447,l),
(427,-12,l)
);
},
{
closed = 1;
nodes = (
(53,342,l),
(235,367,l),
(235,-172,l),
(53,-208,l)
);
}
);
width = 607;
}
);
unicode = 1511;
},
{
glyphname = "resh-hebr";
layers = (
{
anchors = (
{
name = Anchor_1;
pos = (399,0);
},
{
name = dagesh;
pos = (225,0);
}
);
layerId = m001;
shapes = (
{
closed = 1;
nodes = (
(460,338,l),
(460,522,o),
(380,593,o),
(223,593,c),
(169,593,o),
(113,585,o),
(65,572,c),
(79,533,l),
(133,548,o),
(189,553,o),
(222,553,c),
(393,553,o),
(411,427,o),
(411,329,c),
(411,0,l),
(460,0,l)
);
}
);
width = 540;
},
{
anchors = (
{
name = Anchor_1;
pos = (399,0);
},
{
name = dagesh;
pos = (192,-21);
}
);
layerId = m003;
shapes = (
{
closed = 1;
nodes = (
(492,391,l),
(492,497,o),
(427,595,o),
(226,595,c),
(136,595,o),
(67,582,o),
(26,572,c),
(49,428,l),
(107,437,o),
(159,444,o),
(203,444,c),
(289,444,o),
(310,406,o),
(310,319,c),
(310,0,l),
(492,0,l)
);
}
);
width = 532;
}
);
unicode = 1512;
},
{
glyphname = "shin-hebr";
layers = (
{
anchors = (
{
name = Anchor_1;
pos = (363,0);
},
{
name = dagesh;
pos = (477,-24);
},
{
name = "shin - liga";
pos = (600,0);
},
{
name = sin;
pos = (108,0);
}
);
layerId = m001;
shapes = (
{
closed = 1;
nodes = (
(332,590,l),
(380,590,l),
(380,199,l),
(332,183,l)
);
},
{
closed = 1;
nodes = (
(548,-13,o),
(627,96,o),
(627,275,c),
(627,590,l),
(578,590,l),
(578,270,l),
(578,113,o),
(504,30,o),
(356,30,c),
(208,30,o),
(134,113,o),
(134,270,c),
(134,590,l),
(85,590,l),
(85,275,l),
(85,96,o),
(164,-13,o),
(356,-13,c)
);
}
);
width = 712;
},
{
anchors = (
{
name = Anchor_1;
pos = (396,0);
},
{
name = dagesh;
pos = (459,-69);
},
{
name = "shin - liga";
pos = (651,0);
},
{
name = sin;
pos = (135,0);
}
);
layerId = m003;
shapes = (
{
closed = 1;
nodes = (
(312,590,l),
(486,590,l),
(486,290,l),
(312,250,l)
);
},
{
closed = 1;
nodes = (
(625,-13,o),
(744,99,o),
(744,290,c),
(744,590,l),
(565,590,l),
(565,300,l),
(565,217,o),
(529,148,o),
(395,148,c),
(261,148,o),
(223,207,o),
(223,300,c),
(223,590,l),
(45,590,l),
(45,290,l),
(45,99,o),
(166,-13,o),
(395,-13,c)
);
}
);
width = 789;
}
);
unicode = 1513;
},
{
glyphname = "tav-hebr";
layers = (
{
anchors = (
{
name = Anchor_1;
pos = (362,0);
},
{
name = dagesh;
pos = (365,0);
}
);
layerId = m001;
shapes = (
{
closed = 1;
nodes = (
(185,-6,o),
(232,67,o),
(232,189,c),
(232,551,l),
(514,551,l),
(514,0,l),
(563,0,l),
(563,590,l),
(73,590,l),
(63,551,l),
(183,551,l),
(183,177,l),
(183,77,o),
(144,39,o),
(78,39,c),
(64,39,o),
(49,41,o),
(32,45,c),
(28,-1,l),
(42,-5,o),
(58,-7,o),
(85,-7,c)
);
}
);
width = 653;
},
{
anchors = (
{
name = Anchor_1;
pos = (362,0);
},
{
name = dagesh;
pos = (363,0);
}
);
layerId = m003;
shapes = (
{
closed = 1;
nodes = (
(239,-6,o),
(292,65,o),
(292,209,c),
(292,447,l),
(438,447,l),
(438,0,l),
(620,0,l),
(620,590,l),
(44,590,l),
(24,447,l),
(113,447,l),
(113,199,l),
(111,167,o),
(100,148,o),
(56,148,c),
(47,148,o),
(32,149,o),
(12,152,c),
(7,2,l),
(32,-3,o),
(59,-6,o),
(101,-6,c)
);
}
);
width = 670;
}
);
unicode = 1514;
},
{
glyphname = "punctuationgeresh-hebr";
layers = (
{
layerId = m001;
shapes = (
{
closed = 1;
nodes = (
(66,485,l),
(66,518,l),
(99,537,o),
(120,583,o),
(120,621,q),
(120,635,l),
(65,635,l),
(65,710,l),
(147,710,l),
(147,627,l),
(147,573,o),
(114,512,o),
(70,485,q)
);
}
);
width = 212;
},
{
layerId = m003;
shapes = (
{
closed = 1;
nodes = (
(51,409,l),
(51,480,l),
(90,489,o),
(117,530,o),
(117,555,q),
(117,573,l),
(40,573,l),
(40,727,l),
(195,727,l),
(195,604,l),
(195,520,o),
(128,429,o),
(60,409,q)
);
}
);
width = 235;
}
);
unicode = 1523;
},
{
glyphname = "punctuationgershayim-hebr";
layers = (
{
layerId = m001;
shapes = (
{
closed = 1;
nodes = (
(204,485,l),
(204,518,l),
(237,537,o),
(258,583,o),
(258,621,q),
(258,635,l),
(203,635,l),
(203,710,l),
(285,710,l),
(285,627,l),
(285,573,o),
(252,512,o),
(208,485,q)
);
},
{
closed = 1;
nodes = (
(66,485,l),
(66,518,l),
(99,537,o),
(120,583,o),
(120,621,q),
(120,635,l),
(65,635,l),
(65,710,l),
(147,710,l),
(147,627,l),
(147,573,o),
(114,512,o),
(70,485,q)
);
}
);
width = 350;
},
{
layerId = m003;
shapes = (
{
closed = 1;
nodes = (
(247,409,l),
(247,480,l),
(286,489,o),
(313,530,o),
(313,555,q),
(313,573,l),
(236,573,l),
(236,727,l),
(391,727,l),
(391,604,l),
(391,520,o),
(324,429,o),
(256,409,q)
);
},
{
closed = 1;
nodes = (
(51,409,l),
(51,480,l),
(90,489,o),
(117,530,o),
(117,555,q),
(117,573,l),
(40,573,l),
(40,727,l),
(195,727,l),
(195,604,l),
(195,520,o),
(128,429,o),
(60,409,q)
);
}
);
width = 431;
}
);
unicode = 1524;
},
{
glyphname = "shevacomb-hebr";
layers = (
{
anchors = (
{
name = Anchor_1;
}
);
layerId = m001;
shapes = (
{
closed = 1;
nodes = (
(11,-79,o),
(27,-95,o),
(27,-106,q),
(27,-118,o),
(11,-134,o),
(0,-134,q),
(-12,-134,o),
(-28,-118,o),
(-28,-106,q),
(-28,-95,o),
(-12,-79,o),
(0,-79,q)
);
},
{
closed = 1;
nodes = (
(11,-181,o),
(27,-197,o),
(27,-208,q),
(27,-220,o),
(11,-236,o),
(0,-236,q),
(-12,-236,o),
(-28,-220,o),
(-28,-208,q),
(-28,-197,o),
(-12,-181,o),
(0,-181,q)
);
}
);
width = 0;
},
{
anchors = (
{
name = Anchor_1;
}
);
layerId = m003;
shapes = (
{
closed = 1;
nodes = (
(11,-79,o),
(27,-95,o),
(27,-106,q),
(27,-118,o),
(11,-134,o),
(0,-134,q),
(-12,-134,o),
(-28,-118,o),
(-28,-106,q),
(-28,-95,o),
(-12,-79,o),
(0,-79,q)
);
},
{
closed = 1;
nodes = (
(11,-181,o),
(27,-197,o),
(27,-208,q),
(27,-220,o),
(11,-236,o),
(0,-236,q),
(-12,-236,o),
(-28,-220,o),
(-28,-208,q),
(-28,-197,o),
(-12,-181,o),
(0,-181,q)
);
}
);
width = 0;
}
);
unicode = 1456;
},
{
glyphname = "hatafsegolcomb-hebr";
layers = (
{
anchors = (
{
name = Anchor_1;
}
);
layerId = m001;
shapes = (
{
closed = 1;
nodes = (
(-93,-79,o),
(-77,-95,o),
(-77,-106,q),
(-77,-118,o),
(-93,-134,o),
(-104,-134,q),
(-116,-134,o),
(-132,-118,o),
(-132,-106,q),
(-132,-95,o),
(-116,-79,o),
(-104,-79,q)
);
},
{
closed = 1;
nodes = (
(-42,-181,o),
(-26,-197,o),
(-26,-208,q),
(-26,-220,o),
(-42,-236,o),
(-53,-236,q),
(-65,-236,o),
(-81,-220,o),
(-81,-208,q),
(-81,-197,o),
(-65,-181,o),
(-53,-181,q)
);
},
{
closed = 1;
nodes = (
(116,-79,o),
(132,-95,o),
(132,-106,q),
(132,-118,o),
(116,-134,o),
(105,-134,q),
(93,-134,o),
(77,-118,o),
(77,-106,q),
(77,-95,o),
(93,-79,o),
(105,-79,q)
);
},
{
closed = 1;
nodes = (
(116,-181,o),
(132,-197,o),
(132,-208,q),
(132,-220,o),
(116,-236,o),
(105,-236,q),
(93,-236,o),
(77,-220,o),
(77,-208,q),
(77,-197,o),
(93,-181,o),
(105,-181,q)
);
},
{
closed = 1;
nodes = (
(10,-79,o),
(26,-95,o),
(26,-106,q),
(26,-118,o),
(10,-134,o),
(-1,-134,q),
(-13,-134,o),
(-29,-118,o),
(-29,-106,q),
(-29,-95,o),
(-13,-79,o),
(-1,-79,q)
);
}
);
width = 0;
},
{
anchors = (
{
name = Anchor_1;
}
);
layerId = m003;
shapes = (
{
closed = 1;
nodes = (
(-93,-79,o),
(-77,-95,o),
(-77,-106,q),
(-77,-118,o),
(-93,-134,o),
(-104,-134,q),
(-116,-134,o),
(-132,-118,o),
(-132,-106,q),
(-132,-95,o),
(-116,-79,o),
(-104,-79,q)
);
},
{
closed = 1;
nodes = (
(-42,-181,o),
(-26,-197,o),
(-26,-208,q),
(-26,-220,o),
(-42,-236,o),
(-53,-236,q),
(-65,-236,o),
(-81,-220,o),
(-81,-208,q),
(-81,-197,o),
(-65,-181,o),
(-53,-181,q)
);
},
{
closed = 1;
nodes = (
(116,-79,o),
(132,-95,o),
(132,-106,q),
(132,-118,o),
(116,-134,o),
(105,-134,q),
(93,-134,o),
(77,-118,o),
(77,-106,q),
(77,-95,o),
(93,-79,o),
(105,-79,q)
);
},
{
closed = 1;
nodes = (
(116,-181,o),
(132,-197,o),
(132,-208,q),
(132,-220,o),
(116,-236,o),
(105,-236,q),
(93,-236,o),
(77,-220,o),
(77,-208,q),
(77,-197,o),
(93,-181,o),
(105,-181,q)
);
},
{
closed = 1;
nodes = (
(10,-79,o),
(26,-95,o),
(26,-106,q),
(26,-118,o),
(10,-134,o),
(-1,-134,q),
(-13,-134,o),
(-29,-118,o),
(-29,-106,q),
(-29,-95,o),
(-13,-79,o),
(-1,-79,q)
);
}
);
width = 0;
}
);
unicode = 1457;
},
{
glyphname = "hatafpatahcomb-hebr";
layers = (
{
anchors = (
{
name = Anchor_1;
}
);
layerId = m001;
shapes = (
{
closed = 1;
nodes = (
(-127,-123,l),
(-127,-83,l),
(25,-83,l),
(25,-123,l)
);
},
{
closed = 1;
nodes = (
(88,-134,o),
(71,-118,o),
(71,-106,q),
(71,-95,o),
(88,-79,o),
(99,-79,q),
(110,-79,o),
(127,-95,o),
(127,-106,q),
(127,-118,o),
(110,-134,o),
(99,-134,q)
);
},
{
closed = 1;
nodes = (
(88,-236,o),
(71,-220,o),
(71,-208,q),
(71,-197,o),
(88,-181,o),
(99,-181,q),
(110,-181,o),
(127,-197,o),
(127,-208,q),
(127,-220,o),
(110,-236,o),
(99,-236,q)
);
}
);
width = 0;
},
{
anchors = (
{
name = Anchor_1;
}
);
layerId = m003;
shapes = (
{
closed = 1;
nodes = (
(-127,-123,l),
(-127,-83,l),
(25,-83,l),
(25,-123,l)
);
},
{
closed = 1;
nodes = (
(88,-134,o),
(71,-118,o),
(71,-106,q),
(71,-95,o),
(88,-79,o),
(99,-79,q),
(110,-79,o),
(127,-95,o),
(127,-106,q),
(127,-118,o),
(110,-134,o),
(99,-134,q)
);
},
{
closed = 1;
nodes = (
(88,-236,o),
(71,-220,o),
(71,-208,q),
(71,-197,o),
(88,-181,o),
(99,-181,q),
(110,-181,o),
(127,-197,o),
(127,-208,q),
(127,-220,o),
(110,-236,o),
(99,-236,q)
);
}
);
width = 0;
}
);
unicode = 1458;
},
{
glyphname = "hatafqamatscomb-hebr";
layers = (
{
anchors = (
{
name = Anchor_1;
}
);
layerId = m001;
shapes = (
{
closed = 1;
nodes = (
(-74,-231,l),
(-72,-206,o),
(-70,-185,o),
(-65,-166,o),
(-58,-123,q),
(-128,-123,l),
(-128,-84,l),
(26,-84,l),
(26,-123,l),
(-44,-123,l),
(-37,-166,o),
(-32,-185,o),
(-30,-206,o),
(-28,-231,q)
);
},
{
closed = 1;
nodes = (
(112,-79,o),
(129,-95,o),
(129,-106,q),
(129,-118,o),
(112,-134,o),
(101,-134,q),
(90,-134,o),
(73,-118,o),
(73,-106,q),
(73,-95,o),
(90,-79,o),
(101,-79,q)
);
},
{
closed = 1;
nodes = (
(112,-181,o),
(129,-197,o),
(129,-208,q),
(129,-220,o),
(112,-236,o),
(101,-236,q),
(90,-236,o),
(73,-220,o),
(73,-208,q),
(73,-197,o),
(90,-181,o),
(101,-181,q)
);
}
);
width = 0;
},
{
anchors = (
{
name = Anchor_1;
}
);
layerId = m003;
shapes = (
{
closed = 1;
nodes = (
(-74,-231,l),
(-72,-206,o),
(-70,-185,o),
(-65,-166,o),
(-58,-123,q),
(-128,-123,l),
(-128,-84,l),
(26,-84,l),
(26,-123,l),
(-44,-123,l),
(-37,-166,o),
(-32,-185,o),
(-30,-206,o),
(-28,-231,q)
);
},
{
closed = 1;
nodes = (
(112,-79,o),
(129,-95,o),
(129,-106,q),
(129,-118,o),
(112,-134,o),
(101,-134,q),
(90,-134,o),
(73,-118,o),
(73,-106,q),
(73,-95,o),
(90,-79,o),
(101,-79,q)
);
},
{
closed = 1;
nodes = (
(112,-181,o),
(129,-197,o),
(129,-208,q),
(129,-220,o),
(112,-236,o),
(101,-236,q),
(90,-236,o),
(73,-220,o),
(73,-208,q),
(73,-197,o),
(90,-181,o),
(101,-181,q)
);
}
);
width = 0;
}
);
unicode = 1459;
},
{
glyphname = "hiriqcomb-hebr";
layers = (
{
anchors = (
{
name = Anchor_1;
}
);
layerId = m001;
shapes = (
{
closed = 1;
nodes = (
(11,-79,o),
(27,-95,o),
(27,-106,q),
(27,-118,o),
(11,-134,o),
(0,-134,q),
(-12,-134,o),
(-28,-118,o),
(-28,-106,q),
(-28,-95,o),
(-12,-79,o),
(0,-79,q)
);
}
);
width = 0;
},
{
anchors = (
{
name = Anchor_1;
}
);
layerId = m003;
shapes = (
{
closed = 1;
nodes = (
(11,-79,o),
(27,-95,o),
(27,-106,q),
(27,-118,o),
(11,-134,o),
(0,-134,q),
(-12,-134,o),
(-28,-118,o),
(-28,-106,q),
(-28,-95,o),
(-12,-79,o),
(0,-79,q)
);
}
);
width = 0;
}
);
unicode = 1460;
},
{
glyphname = "tserecomb-hebr";
layers = (
{
anchors = (
{
name = Anchor_1;
}
);
layerId = m001;
shapes = (
{
closed = 1;
nodes = (
(-63,-134,o),
(-79,-118,o),
(-79,-106,q),
(-79,-95,o),
(-63,-79,o),
(-51,-79,q),
(-40,-79,o),
(-24,-95,o),
(-24,-106,q),
(-24,-118,o),
(-40,-134,o),
(-51,-134,q)
);
},
{
closed = 1;
nodes = (
(40,-134,o),
(24,-118,o),
(24,-106,q),
(24,-95,o),
(40,-79,o),
(52,-79,q),
(63,-79,o),
(79,-95,o),
(79,-106,q),
(79,-118,o),
(63,-134,o),
(52,-134,q)
);
}
);
width = 0;
},
{
anchors = (
{
name = Anchor_1;
}
);
layerId = m003;
shapes = (
{
closed = 1;
nodes = (
(-63,-134,o),
(-79,-118,o),
(-79,-106,q),
(-79,-95,o),
(-63,-79,o),
(-51,-79,q),
(-40,-79,o),
(-24,-95,o),
(-24,-106,q),
(-24,-118,o),
(-40,-134,o),
(-51,-134,q)
);
},
{
closed = 1;
nodes = (
(40,-134,o),
(24,-118,o),
(24,-106,q),
(24,-95,o),
(40,-79,o),
(52,-79,q),
(63,-79,o),
(79,-95,o),
(79,-106,q),
(79,-118,o),
(63,-134,o),
(52,-134,q)
);
}
);
width = 0;
}
);
unicode = 1461;
},
{
glyphname = "segolcomb-hebr";
layers = (
{
anchors = (
{
name = Anchor_1;
}
);
layerId = m001;
shapes = (
{
closed = 1;
nodes = (
(-65,-134,o),
(-82,-117,o),
(-82,-105,q),
(-82,-81,o),
(-54,-77,q),
(-42,-77,o),
(-25,-93,o),
(-25,-105,q),
(-25,-117,o),
(-39,-134,o),
(-54,-134,q)
);
},
{
closed = 1;
nodes = (
(30,-134,o),
(26,-105,q),
(26,-94,o),
(42,-77,o),
(54,-77,q),
(66,-77,o),
(83,-93,o),
(83,-105,q),
(83,-117,o),
(69,-134,o),
(54,-134,q)
);
},
{
closed = 1;
nodes = (
(-12,-236,o),
(-29,-219,o),
(-29,-207,q),
(-29,-196,o),
(-13,-179,o),
(-1,-179,q),
(24,-179,o),
(28,-207,q),
(28,-219,o),
(14,-236,o),
(-1,-236,q)
);
}
);
width = 0;
},
{
anchors = (
{
name = Anchor_1;
}
);
layerId = m003;
shapes = (
{
closed = 1;
nodes = (
(-65,-134,o),
(-82,-117,o),
(-82,-105,q),
(-82,-81,o),
(-54,-77,q),
(-42,-77,o),
(-25,-93,o),
(-25,-105,q),
(-25,-117,o),
(-39,-134,o),
(-54,-134,q)
);
},
{
closed = 1;
nodes = (
(30,-134,o),
(26,-105,q),
(26,-94,o),
(42,-77,o),
(54,-77,q),
(66,-77,o),
(83,-93,o),
(83,-105,q),
(83,-117,o),
(69,-134,o),
(54,-134,q)
);
},
{
closed = 1;
nodes = (
(-12,-236,o),
(-29,-219,o),
(-29,-207,q),
(-29,-196,o),
(-13,-179,o),
(-1,-179,q),
(24,-179,o),
(28,-207,q),
(28,-219,o),
(14,-236,o),
(-1,-236,q)
);
}
);
width = 0;
}
);
unicode = 1462;
},
{
glyphname = "patahcomb-hebr";
layers = (
{
anchors = (
{
name = Anchor_1;
}
);
layerId = m001;
shapes = (
{
closed = 1;
nodes = (
(-76,-123,l),
(-76,-83,l),
(76,-83,l),
(76,-123,l)
);
}
);
width = 0;
},
{
anchors = (
{
name = Anchor_1;
}
);
layerId = m003;
shapes = (
{
closed = 1;
nodes = (
(-76,-123,l),
(-76,-83,l),
(76,-83,l),
(76,-123,l)
);
}
);
width = 0;
}
);
unicode = 1463;
},
{
glyphname = "qamatscomb-hebr";
layers = (
{
anchors = (
{
name = Anchor_1;
}
);
layerId = m001;
shapes = (
{
closed = 1;
nodes = (
(-22,-231,l),
(-19,-185,l),
(-7,-123,l),
(-77,-123,l),
(-77,-84,l),
(77,-84,l),
(77,-123,l),
(7,-123,l),
(19,-185,l),
(22,-231,l)
);
}
);
width = 0;
},
{
anchors = (
{
name = Anchor_1;
}
);
layerId = m003;
shapes = (
{
closed = 1;
nodes = (
(-22,-231,l),
(-19,-185,l),
(-7,-123,l),
(-77,-123,l),
(-77,-84,l),
(77,-84,l),
(77,-123,l),
(7,-123,l),
(19,-185,l),
(22,-231,l)
);
}
);
width = 0;
}
);
unicode = 1464;
},
{
glyphname = "holamcomb-hebr";
layers = (
{
anchors = (
{
name = Anchor_1;
},
{
name = holam;
}
);
layerId = m001;
shapes = (
{
closed = 1;
nodes = (
(11,692,o),
(27,676,o),
(27,665,q),
(27,653,o),
(11,637,o),
(0,637,q),
(-12,637,o),
(-28,653,o),
(-28,665,q),
(-28,676,o),
(-12,692,o),
(0,692,q)
);
}
);
width = 0;
},
{
anchors = (
{
name = Anchor_1;
},
{
name = holam;
}
);
layerId = m003;
shapes = (
{
closed = 1;
nodes = (
(11,692,o),
(27,676,o),
(27,665,q),
(27,653,o),
(11,637,o),
(0,637,q),
(-12,637,o),
(-28,653,o),
(-28,665,q),
(-28,676,o),
(-12,692,o),
(0,692,q)
);
}
);
width = 0;
}
);
unicode = 1465;
},
{
glyphname = "holamhaserforvavcomb-hebr";
layers = (
{
anchors = (
{
name = Anchor_1;
}
);
layerId = m001;
shapes = (
{
closed = 1;
nodes = (
(-12,637,o),
(-28,653,o),
(-28,665,q),
(-28,676,o),
(-12,692,o),
(0,692,q),
(11,692,o),
(27,676,o),
(27,665,q),
(27,653,o),
(11,637,o),
(0,637,q)
);
}
);
width = 0;
},
{
anchors = (
{
name = Anchor_1;
}
);
layerId = m003;
shapes = (
{
closed = 1;
nodes = (
(-12,637,o),
(-28,653,o),
(-28,665,q),
(-28,676,o),
(-12,692,o),
(0,692,q),
(11,692,o),
(27,676,o),
(27,665,q),
(27,653,o),
(11,637,o),
(0,637,q)
);
}
);
width = 0;
}
);
unicode = 1466;
},
{
glyphname = "qubutscomb-hebr";
layers = (
{
anchors = (
{
name = Anchor_1;
}
);
layerId = m001;
shapes = (
{
closed = 1;
nodes = (
(-14,-132,o),
(-30,-116,o),
(-30,-104,q),
(-30,-93,o),
(-14,-77,o),
(-2,-77,q),
(9,-77,o),
(25,-93,o),
(25,-104,q),
(25,-116,o),
(9,-132,o),
(-2,-132,q)
);
},
{
closed = 1;
nodes = (
(56,-201,o),
(40,-185,o),
(40,-173,q),
(40,-162,o),
(56,-146,o),
(68,-146,q),
(79,-146,o),
(95,-162,o),
(95,-173,q),
(95,-185,o),
(79,-201,o),
(68,-201,q)
);
},
{
closed = 1;
nodes = (
(126,-271,o),
(110,-255,o),
(110,-243,q),
(110,-232,o),
(126,-216,o),
(138,-216,q),
(149,-216,o),
(165,-232,o),
(165,-243,q),
(165,-255,o),
(149,-271,o),
(138,-271,q)
);
}
);
width = 0;
},
{
anchors = (
{
name = Anchor_1;
}
);
layerId = m003;
shapes = (
{
closed = 1;
nodes = (
(-14,-132,o),
(-30,-116,o),
(-30,-104,q),
(-30,-93,o),
(-14,-77,o),
(-2,-77,q),
(9,-77,o),
(25,-93,o),
(25,-104,q),
(25,-116,o),
(9,-132,o),
(-2,-132,q)
);
},
{
closed = 1;
nodes = (
(56,-201,o),
(40,-185,o),
(40,-173,q),
(40,-162,o),
(56,-146,o),
(68,-146,q),
(79,-146,o),
(95,-162,o),
(95,-173,q),
(95,-185,o),
(79,-201,o),
(68,-201,q)
);
},
{
closed = 1;
nodes = (
(126,-271,o),
(110,-255,o),
(110,-243,q),
(110,-232,o),
(126,-216,o),
(138,-216,q),
(149,-216,o),
(165,-232,o),
(165,-243,q),
(165,-255,o),
(149,-271,o),
(138,-271,q)
);
}
);
width = 0;
}
);
unicode = 1467;
},
{
glyphname = "dageshormapiqcomb-hebr";
layers = (
{
anchors = (
{
name = Anchor_1;
},
{
name = dagesh;
}
);
layerId = m001;
shapes = (
{
closed = 1;
nodes = (
(-11,263,o),
(-27,279,o),
(-27,291,q),
(-27,302,o),
(-11,318,o),
(1,318,q),
(12,318,o),
(28,302,o),
(28,291,q),
(28,279,o),
(12,263,o),
(1,263,q)
);
}
);
width = 0;
},
{
anchors = (
{
name = Anchor_1;
},
{
name = dagesh;
}
);
layerId = m003;
shapes = (
{
closed = 1;
nodes = (
(-11,263,o),
(-27,279,o),
(-27,291,q),
(-27,302,o),
(-11,318,o),
(1,318,q),
(12,318,o),
(28,302,o),
(28,291,q),
(28,279,o),
(12,263,o),
(1,263,q)
);
}
);
width = 0;
}
);
unicode = 1468;
},
{
glyphname = "metegcomb-hebr";
layers = (
{
anchors = (
{
name = Anchor_1;
}
);
layerId = m001;
shapes = (
{
closed = 1;
nodes = (
(-23,-254,l),
(-23,-48,l),
(27,-48,l),
(27,-254,l)
);
}
);
width = 0;
},
{
anchors = (
{
name = Anchor_1;
}
);
layerId = m003;
shapes = (
{
closed = 1;
nodes = (
(-23,-254,l),
(-23,-48,l),
(27,-48,l),
(27,-254,l)
);
}
);
width = 0;
}
);
unicode = 1469;
},
{
glyphname = "maqaf-hebr";
layers = (
{
anchors = (
{
name = Anchor_1;
}
);
layerId = m001;
shapes = (
{
closed = 1;
nodes = (
(29,546,l),
(37,589,l),
(239,589,l),
(229,546,l)
);
}
);
width = 262;
},
{
anchors = (
{
name = Anchor_1;
}
);
layerId = m003;
shapes = (
{
closed = 1;
nodes = (
(29,446,l),
(47,589,l),
(239,589,l),
(219,446,l)
);
}
);
width = 262;
}
);
unicode = 1470;
},
{
glyphname = "rafecomb-hebr";
layers = (
{
anchors = (
{
name = Anchor_1;
}
);
layerId = m001;
shapes = (
{
closed = 1;
nodes = (
(37,527,l),
(37,569,l),
(212,569,l),
(212,527,l)
);
}
);
width = 0;
},
{
anchors = (
{
name = Anchor_1;
}
);
layerId = m003;
shapes = (
{
closed = 1;
nodes = (
(37,527,l),
(37,569,l),
(212,569,l),
(212,527,l)
);
}
);
width = 0;
}
);
unicode = 1471;
},
{
glyphname = "punctuationpaseq-hebr";
layers = (
{
layerId = m001;
shapes = (
{
closed = 1;
nodes = (
(100,0,l),
(100,710,l),
(149,706,l),
(149,-4,l)
);
}
);
width = 249;
},
{
layerId = m003;
shapes = (
{
closed = 1;
nodes = (
(100,0,l),
(100,710,l),
(149,706,l),
(149,-4,l)
);
}
);
width = 249;
}
);
unicode = 1472;
},
{
glyphname = "shindotcomb-hebr";
layers = (
{
anchors = (
{
name = Anchor_1;
},
{
name = "shin - liga";
}
);
layerId = m001;
shapes = (
{
closed = 1;
nodes = (
(-12,637,o),
(-28,653,o),
(-28,665,q),
(-28,676,o),
(-12,692,o),
(0,692,q),
(11,692,o),
(27,676,o),
(27,665,q),
(27,653,o),
(11,637,o),
(0,637,q)
);
}
);
width = 0;
},
{
anchors = (
{
name = Anchor_1;
},
{
name = "shin - liga";
}
);
layerId = m003;
shapes = (
{
closed = 1;
nodes = (
(-12,637,o),
(-28,653,o),
(-28,665,q),
(-28,676,o),
(-12,692,o),
(0,692,q),
(11,692,o),
(27,676,o),
(27,665,q),
(27,653,o),
(11,637,o),
(0,637,q)
);
}
);
width = 0;
}
);
unicode = 1473;
},
{
glyphname = "sindotcomb-hebr";
layers = (
{
anchors = (
{
name = Anchor_1;
},
{
name = "shin - liga";
},
{
name = sin;
}
);
layerId = m001;
shapes = (
{
closed = 1;
nodes = (
(-12,637,o),
(-28,653,o),
(-28,665,q),
(-28,676,o),
(-12,692,o),
(0,692,q),
(11,692,o),
(27,676,o),
(27,665,q),
(27,653,o),
(11,637,o),
(0,637,q)
);
}
);
width = 0;
},
{
anchors = (
{
name = Anchor_1;
},
{
name = "shin - liga";
},
{
name = sin;
}
);
layerId = m003;
shapes = (
{
closed = 1;
nodes = (
(-12,637,o),
(-28,653,o),
(-28,665,q),
(-28,676,o),
(-12,692,o),
(0,692,q),
(11,692,o),
(27,676,o),
(27,665,q),
(27,653,o),
(11,637,o),
(0,637,q)
);
}
);
width = 0;
}
);
unicode = 1474;
},
{
glyphname = "punctuationsofpasuq-hebr";
layers = (
{
layerId = m001;
shapes = (
{
closed = 1;
nodes = (
(84,415,l),
(84,506,l),
(159,506,l),
(159,415,l)
);
},
{
closed = 1;
nodes = (
(84,1,l),
(84,92,l),
(159,92,l),
(159,1,l)
);
}
);
width = 254;
},
{
layerId = m003;
shapes = (
{
closed = 1;
nodes = (
(84,415,l),
(84,506,l),
(159,506,l),
(159,415,l)
);
},
{
closed = 1;
nodes = (
(84,1,l),
(84,92,l),
(159,92,l),
(159,1,l)
);
}
);
width = 254;
}
);
unicode = 1475;
},
{
glyphname = "qamatsqatancomb-hebr";
layers = (
{
anchors = (
{
name = Anchor_1;
}
);
layerId = m001;
shapes = (
{
closed = 1;
nodes = (
(-13,-199,l),
(-13,-177,o),
(-12,-163,o),
(-9,-147,o),
(-4,-112,q),
(-49,-112,l),
(-49,-81,l),
(48,-81,l),
(48,-112,l),
(6,-112,l),
(9,-144,o),
(12,-163,o),
(13,-177,o),
(13,-199,q)
);
}
);
width = 0;
},
{
anchors = (
{
name = Anchor_1;
}
);
layerId = m003;
shapes = (
{
closed = 1;
nodes = (
(-13,-199,l),
(-13,-177,o),
(-12,-163,o),
(-9,-147,o),
(-4,-112,q),
(-49,-112,l),
(-49,-81,l),
(48,-81,l),
(48,-112,l),
(6,-112,l),
(9,-144,o),
(12,-163,o),
(13,-177,o),
(13,-199,q)
);
}
);
width = 0;
}
);
unicode = 1479;
},
{
glyphname = "aleflamed-hebr";
layers = (
{
anchors = (
{
name = Anchor_1_ligComponent_0;
pos = (297,0);
},
{
name = dagesh_ligComponent_0;
pos = (339,249);
}
);
layerId = m001;
shapes = (
{
closed = 1;
nodes = (
(332,257,l),
(514,604,l),
(550,575,l),
(363,219,l)
);
},
{
closed = 1;
nodes = (
(493,0,l),
(26,579,l),
(27,591,l),
(180,741,l),
(214,707,l),
(82,581,l),
(555,0,l)
);
}
);
width = 587;
},
{
anchors = (
{
name = Anchor_1_ligComponent_0;
pos = (297,0);
},
{
name = dagesh_ligComponent_0;
pos = (339,249);
}
);
layerId = m003;
shapes = (
{
closed = 1;
nodes = (
(312,371,l),
(508,615,l),
(622,503,l),
(419,259,l)
);
},
{
closed = 1;
nodes = (
(415,0,l),
(14,579,l),
(15,591,l),
(182,754,l),
(300,654,l),
(219,576,l),
(620,0,l)
);
}
);
width = 637;
}
);
unicode = 64335;
},
{
glyphname = newsheqelsign;
layers = (
{
layerId = m001;
shapes = (
{
closed = 1;
nodes = (
(134,478,l),
(172,481,o),
(221,485,o),
(278,485,c),
(404,485,o),
(498,466,o),
(501,339,c),
(501,140,l),
(550,140,l),
(550,339,l),
(550,447,o),
(509,531,o),
(277,531,c),
(213,531,o),
(149,526,o),
(85,520,c),
(85,0,l),
(134,0,l)
);
},
{
closed = 1;
nodes = (
(679,-11,o),
(759,63,o),
(759,210,c),
(759,530,l),
(710,530,l),
(710,195,l),
(710,90,o),
(645,37,o),
(519,37,c),
(403,37,o),
(344,90,o),
(344,195,c),
(344,373,l),
(295,373,l),
(295,210,l),
(295,63,o),
(376,-11,o),
(519,-11,c)
);
}
);
width = 844;
},
{
layerId = m003;
shapes = (
{
closed = 1;
nodes = (
(200,376,l),
(248,381,o),
(288,381,o),
(327,381,c),
(450,381,o),
(452,324,o),
(452,283,c),
(452,190,l),
(598,190,l),
(598,319,l),
(598,463,o),
(492,534,o),
(289,534,c),
(213,534,o),
(131,523,o),
(43,508,c),
(43,0,l),
(200,0,l)
);
},
{
closed = 1;
nodes = (
(685,-11,o),
(800,63,o),
(800,230,c),
(800,530,l),
(644,530,l),
(644,255,l),
(644,180,o),
(641,117,o),
(515,117,c),
(399,117,o),
(396,180,o),
(396,255,c),
(396,333,l),
(249,333,l),
(249,220,l),
(249,63,o),
(352,-11,o),
(515,-11,c)
);
}
);
width = 844;
}
);
unicode = 8362;
},
{
glyphname = zwnj;
layers = (
{
layerId = m001;
shapes = (
{
closed = 1;
nodes = (
(24,1100,l),
(-25,1100,l),
(-25,-68,l),
(24,-68,l)
);
}
);
width = 0;
},
{
layerId = m003;
shapes = (
{
closed = 1;
nodes = (
(30,1100,l),
(-30,1100,l),
(-30,-68,l),
(30,-68,l)
);
}
);
width = 0;
}
);
unicode = 8204;
},
{
glyphname = zwj;
layers = (
{
layerId = m001;
shapes = (
{
closed = 1;
nodes = (
(24,917,l),
(75,873,l),
(114,912,l),
(40,986,l),
(114,1060,l),
(74,1100,l),
(0,1026,l),
(-73,1100,l),
(-113,1060,l),
(-39,986,l),
(-113,912,l),
(-74,873,l),
(-25,916,l),
(-25,-68,l),
(24,-68,l)
);
}
);
width = 0;
},
{
layerId = m003;
shapes = (
{
closed = 1;
nodes = (
(30,917,l),
(75,873,l),
(114,912,l),
(40,986,l),
(114,1060,l),
(74,1100,l),
(0,1026,l),
(-73,1100,l),
(-113,1060,l),
(-39,986,l),
(-113,912,l),
(-74,873,l),
(-30,916,l),
(-30,-68,l),
(30,-68,l)
);
}
);
width = 0;
}
);
unicode = 8205;
},
{
glyphname = dottedcircle;
layers = (
{
layerId = m001;
shapes = (
{
closed = 1;
nodes = (
(323,459,o),
(336,470,o),
(336,488,c),
(336,504,o),
(325,518,o),
(307,518,c),
(289,518,o),
(278,504,o),
(278,488,c),
(278,470,o),
(291,459,o),
(307,459,c)
);
},
{
closed = 1;
nodes = (
(415,444,o),
(426,457,o),
(426,473,c),
(426,491,o),
(413,502,o),
(397,502,c),
(381,502,o),
(368,491,o),
(368,473,c),
(368,454,o),
(378,444,o),
(397,444,c)
);
},
{
closed = 1;
nodes = (
(234,444,o),
(247,455,o),
(247,473,c),
(247,491,o),
(234,502,o),
(218,502,c),
(200,502,o),
(189,489,o),
(189,473,c),
(189,457,o),
(200,444,o),
(218,444,c)
);
},
{
closed = 1;
nodes = (
(489,393,o),
(503,404,o),
(503,422,c),
(503,440,o),
(489,452,o),
(473,452,c),
(455,452,o),
(444,438,o),
(444,422,c),
(444,406,o),
(455,393,o),
(473,393,c)
);
},
{
closed = 1;
nodes = (
(158,393,o),
(171,404,o),
(171,422,c),
(171,438,o),
(160,452,o),
(142,452,c),
(126,452,o),
(112,440,o),
(112,422,c),
(112,404,o),
(126,393,o),
(142,393,c)
);
},
{
closed = 1;
nodes = (
(539,314,o),
(550,327,o),
(550,343,c),
(550,359,o),
(539,373,o),
(521,373,c),
(503,373,o),
(492,359,o),
(492,343,c),
(492,327,o),
(503,314,o),
(521,314,c)
);
},
{
closed = 1;
nodes = (
(112,314,o),
(123,327,o),
(123,343,c),
(123,359,o),
(112,373,o),
(94,373,c),
(76,373,o),
(64,359,o),
(64,343,c),
(64,325,o),
(78,314,o),
(94,314,c)
);
},
{
closed = 1;
nodes = (
(551,229,o),
(565,239,o),
(565,257,c),
(565,277,o),
(551,287,o),
(535,287,c),
(519,287,o),
(506,277,o),
(506,257,c),
(506,239,o),
(519,229,o),
(535,229,c)
);
},
{
closed = 1;
nodes = (
(96,229,o),
(109,239,o),
(109,257,c),
(109,277,o),
(96,287,o),
(80,287,c),
(64,287,o),
(50,277,o),
(50,257,c),
(50,239,o),
(64,229,o),
(80,229,c)
);
},
{
closed = 1;
nodes = (
(539,145,o),
(550,158,o),
(550,174,c),
(550,190,o),
(539,203,o),
(521,203,c),
(503,203,o),
(492,190,o),
(492,174,c),
(492,158,o),
(503,145,o),
(521,145,c)
);
},
{
closed = 1;
nodes = (
(112,145,o),
(123,158,o),
(123,174,c),
(123,190,o),
(112,203,o),
(94,203,c),
(78,203,o),
(64,192,o),
(64,174,c),
(64,156,o),
(78,145,o),
(94,145,c)
);
},
{
closed = 1;
nodes = (
(490,65,o),
(504,76,o),
(504,94,c),
(504,112,o),
(490,123,o),
(474,123,c),
(458,123,o),
(445,112,o),
(445,94,c),
(445,76,o),
(458,65,o),
(474,65,c)
);
},
{
closed = 1;
nodes = (
(157,65,o),
(170,76,o),
(170,94,c),
(170,110,o),
(159,123,o),
(141,123,c),
(125,123,o),
(111,112,o),
(111,94,c),
(111,76,o),
(125,65,o),
(141,65,c)
);
},
{
closed = 1;
nodes = (
(234,15,o),
(247,26,o),
(247,44,c),
(247,60,o),
(236,74,o),
(218,74,c),
(200,74,o),
(189,60,o),
(189,44,c),
(189,26,o),
(202,15,o),
(218,15,c)
);
},
{
closed = 1;
nodes = (
(415,15,o),
(426,28,o),
(426,44,c),
(426,60,o),
(415,74,o),
(397,74,c),
(379,74,o),
(368,60,o),
(368,44,c),
(368,26,o),
(381,15,o),
(397,15,c)
);
},
{
closed = 1;
nodes = (
(323,0,o),
(336,11,o),
(336,29,c),
(336,45,o),
(325,59,o),
(307,59,c),
(289,59,o),
(278,45,o),
(278,29,c),
(278,11,o),
(291,0,o),
(307,0,c)
);
}
);
width = 615;
},
{
layerId = m003;
shapes = (
{
closed = 1;
nodes = (
(320,459,o),
(331,472,o),
(331,488,c),
(331,504,o),
(320,518,o),
(302,518,c),
(284,518,o),
(273,504,o),
(273,488,c),
(273,470,o),
(286,459,o),
(302,459,c)
);
},
{
closed = 1;
nodes = (
(410,444,o),
(421,457,o),
(421,473,c),
(421,489,o),
(410,502,o),
(392,502,c),
(374,502,o),
(363,489,o),
(363,473,c),
(363,454,o),
(373,444,o),
(392,444,c)
);
},
{
closed = 1;
nodes = (
(229,444,o),
(242,455,o),
(242,473,c),
(242,491,o),
(229,502,o),
(213,502,c),
(197,502,o),
(184,491,o),
(184,473,c),
(184,455,o),
(197,444,o),
(213,444,c)
);
},
{
closed = 1;
nodes = (
(484,393,o),
(498,404,o),
(498,422,c),
(498,440,o),
(484,452,o),
(468,452,c),
(450,452,o),
(439,438,o),
(439,422,c),
(439,406,o),
(450,393,o),
(468,393,c)
);
},
{
closed = 1;
nodes = (
(153,393,o),
(166,404,o),
(166,422,c),
(166,438,o),
(155,452,o),
(137,452,c),
(121,452,o),
(107,440,o),
(107,422,c),
(107,404,o),
(121,393,o),
(137,393,c)
);
},
{
closed = 1;
nodes = (
(534,314,o),
(545,327,o),
(545,343,c),
(545,359,o),
(534,373,o),
(516,373,c),
(498,373,o),
(487,359,o),
(487,343,c),
(487,327,o),
(498,314,o),
(516,314,c)
);
},
{
closed = 1;
nodes = (
(107,314,o),
(118,327,o),
(118,343,c),
(118,359,o),
(107,373,o),
(89,373,c),
(71,373,o),
(59,359,o),
(59,343,c),
(59,325,o),
(73,314,o),
(89,314,c)
);
},
{
closed = 1;
nodes = (
(546,229,o),
(560,239,o),
(560,257,c),
(560,277,o),
(546,287,o),
(530,287,c),
(514,287,o),
(501,277,o),
(501,257,c),
(501,239,o),
(514,229,o),
(530,229,c)
);
},
{
closed = 1;
nodes = (
(91,229,o),
(104,239,o),
(104,257,c),
(104,277,o),
(91,287,o),
(75,287,c),
(59,287,o),
(45,277,o),
(45,257,c),
(45,239,o),
(59,229,o),
(75,229,c)
);
},
{
closed = 1;
nodes = (
(534,145,o),
(545,158,o),
(545,174,c),
(545,190,o),
(534,203,o),
(516,203,c),
(498,203,o),
(487,190,o),
(487,174,c),
(487,158,o),
(498,145,o),
(516,145,c)
);
},
{
closed = 1;
nodes = (
(107,145,o),
(118,158,o),
(118,174,c),
(118,192,o),
(105,203,o),
(89,203,c),
(73,203,o),
(59,192,o),
(59,174,c),
(59,156,o),
(73,145,o),
(89,145,c)
);
},
{
closed = 1;
nodes = (
(485,65,o),
(499,76,o),
(499,94,c),
(499,112,o),
(485,123,o),
(469,123,c),
(451,123,o),
(440,110,o),
(440,94,c),
(440,76,o),
(453,65,o),
(469,65,c)
);
},
{
closed = 1;
nodes = (
(152,65,o),
(165,76,o),
(165,94,c),
(165,110,o),
(154,123,o),
(136,123,c),
(120,123,o),
(106,112,o),
(106,94,c),
(106,76,o),
(120,65,o),
(136,65,c)
);
},
{
closed = 1;
nodes = (
(229,15,o),
(242,26,o),
(242,44,c),
(242,60,o),
(231,74,o),
(213,74,c),
(195,74,o),
(184,60,o),
(184,44,c),
(184,26,o),
(197,15,o),
(213,15,c)
);
},
{
closed = 1;
nodes = (
(410,15,o),
(421,28,o),
(421,44,c),
(421,60,o),
(410,74,o),
(392,74,c),
(374,74,o),
(363,60,o),
(363,44,c),
(363,26,o),
(376,15,o),
(392,15,c)
);
},
{
closed = 1;
nodes = (
(320,0,o),
(331,13,o),
(331,29,c),
(331,45,o),
(320,59,o),
(302,59,c),
(284,59,o),
(273,45,o),
(273,29,c),
(273,11,o),
(286,0,o),
(302,0,c)
);
}
);
width = 605;
}
);
unicode = 9676;
},
{
glyphname = A;
layers = (
{
layerId = m001;
shapes = (
{
closed = 1;
nodes = (
(150,252,l),
(281,614,l),
(417,252,l)
);
},
{
closed = 1;
nodes = (
(562,5,l),
(303,680,l),
(257,680,l),
(10,0,l),
(59,0,l),
(136,213,l),
(431,213,l),
(512,-6,l)
);
}
);
width = 572;
},
{
layerId = m003;
shapes = (
{
closed = 1;
nodes = (
(288,277,l),
(353,462,l),
(421,277,l)
);
},
{
closed = 1;
nodes = (
(701,8,l),
(447,680,l),
(265,680,l),
(10,0,l),
(191,0,l),
(238,134,l),
(473,134,l),
(522,-10,l)
);
}
);
width = 711;
}
);
unicode = 65;
},
{
glyphname = B;
layers = (
{
layerId = m001;
shapes = (
{
closed = 1;
nodes = (
(419,0,o),
(525,52,o),
(525,188,c),
(525,284,o),
(467,337,o),
(386,362,c),
(439,388,o),
(487,433,o),
(487,503,c),
(487,620,o),
(413,680,o),
(252,680,c),
(100,680,l),
(100,0,l),
(269,0,l)
);
},
{
closed = 1;
nodes = (
(150,372,l),
(150,641,l),
(264,641,l),
(372,641,o),
(435,601,o),
(435,502,c),
(435,392,o),
(322,374,o),
(264,372,c)
);
},
{
closed = 1;
nodes = (
(150,39,l),
(150,333,l),
(292,333,l),
(396,333,o),
(473,292,o),
(473,186,c),
(473,72,o),
(376,39,o),
(281,39,c)
);
}
);
width = 565;
},
{
layerId = m003;
shapes = (
{
closed = 1;
nodes = (
(479,0,o),
(625,45,o),
(625,203,c),
(625,271,o),
(585,325,o),
(534,361,c),
(567,394,o),
(597,432,o),
(597,484,c),
(597,616,o),
(498,680,o),
(347,680,c),
(80,680,l),
(80,0,l),
(337,0,l)
);
},
{
closed = 1;
nodes = (
(262,422,l),
(262,537,l),
(320,537,l),
(378,537,o),
(409,537,o),
(409,475,c),
(409,436,o),
(376,422,o),
(320,422,c)
);
},
{
closed = 1;
nodes = (
(262,143,l),
(262,279,l),
(359,279,l),
(405,279,o),
(437,255,o),
(437,207,c),
(437,165,o),
(403,143,o),
(351,143,c)
);
}
);
width = 645;
}
);
unicode = 66;
},
{
glyphname = C;
layers = (
{
layerId = m001;
shapes = (
{
closed = 1;
nodes = (
(412,-14,o),
(487,3,o),
(523,23,c),
(499,59,l),
(460,42,o),
(417,29,o),
(349,29,c),
(189,29,o),
(105,180,o),
(105,337,c),
(105,531,o),
(216,651,o),
(358,651,c),
(424,651,o),
(461,640,o),
(503,621,c),
(523,657,l),
(485,684,o),
(396,694,o),
(360,694,c),
(156,694,o),
(50,526,o),
(50,336,c),
(50,162,o),
(139,-14,o),
(354,-14,c)
);
}
);
width = 553;
},
{
layerId = m003;
shapes = (
{
closed = 1;
nodes = (
(451,-13,o),
(534,5,o),
(586,37,c),
(517,173,l),
(483,152,o),
(439,136,o),
(388,136,c),
(307,136,o),
(218,205,o),
(218,338,c),
(218,471,o),
(307,544,o),
(381,544,c),
(427,544,o),
(462,537,o),
(525,514,c),
(579,637,l),
(527,673,o),
(447,693,o),
(379,693,c),
(194,693,o),
(30,563,o),
(30,337,c),
(30,152,o),
(142,-13,o),
(383,-13,c)
);
}
);
width = 596;
}
);
unicode = 67;
},
{
glyphname = D;
layers = (
{
layerId = m001;
shapes = (
{
closed = 1;
nodes = (
(543,0,o),
(612,184,o),
(612,344,c),
(612,525,o),
(536,680,o),
(324,680,c),
(100,680,l),
(100,0,l),
(321,0,l)
);
},
{
closed = 1;
nodes = (
(149,39,l),
(149,641,l),
(332,641,l),
(495,641,o),
(561,496,o),
(561,343,c),
(561,182,o),
(477,39,o),
(322,39,c)
);
}
);
width = 662;
},
{
layerId = m003;
shapes = (
{
closed = 1;
nodes = (
(575,0,o),
(709,131,o),
(709,344,c),
(709,526,o),
(608,680,o),
(388,680,c),
(80,680,l),
(80,0,l),
(384,0,l)
);
},
{
closed = 1;
nodes = (
(262,143,l),
(262,537,l),
(379,537,l),
(470,537,o),
(521,457,o),
(521,344,c),
(521,213,o),
(460,143,o),
(372,143,c)
);
}
);
width = 739;
}
);
unicode = 68;
},
{
glyphname = E;
layers = (
{
layerId = m001;
shapes = (
{
closed = 1;
nodes = (
(469,39,l),
(149,39,l),
(149,329,l),
(394,329,l),
(389,368,l),
(149,368,l),
(149,641,l),
(452,641,l),
(447,680,l),
(100,680,l),
(100,0,l),
(475,0,l)
);
}
);
width = 495;
},
{
layerId = m003;
shapes = (
{
closed = 1;
nodes = (
(561,143,l),
(262,143,l),
(262,270,l),
(488,270,l),
(471,413,l),
(262,413,l),
(262,537,l),
(548,537,l),
(531,680,l),
(80,680,l),
(80,0,l),
(578,0,l)
);
}
);
width = 598;
}
);
unicode = 69;
},
{
glyphname = F;
layers = (
{
layerId = m001;
shapes = (
{
closed = 1;
nodes = (
(149,325,l),
(384,325,l),
(378,364,l),
(149,364,l),
(149,641,l),
(443,641,l),
(436,680,l),
(100,680,l),
(100,0,l),
(149,0,l)
);
}
);
width = 463;
},
{
layerId = m003;
shapes = (
{
closed = 1;
nodes = (
(262,257,l),
(488,257,l),
(471,400,l),
(262,400,l),
(262,536,l),
(538,536,l),
(521,679,l),
(80,679,l),
(80,0,l),
(262,0,l)
);
}
);
width = 558;
}
);
unicode = 70;
},
{
glyphname = G;
layers = (
{
layerId = m001;
shapes = (
{
closed = 1;
nodes = (
(440,-14,o),
(515,6,o),
(552,31,c),
(552,342,l),
(356,342,l),
(350,303,l),
(503,303,l),
(503,52,l),
(472,41,o),
(430,29,o),
(381,29,c),
(224,29,o),
(105,152,o),
(105,336,c),
(105,521,o),
(225,653,o),
(390,653,c),
(457,653,o),
(492,643,o),
(535,624,c),
(554,657,l),
(517,684,o),
(427,694,o),
(388,694,c),
(209,694,o),
(50,562,o),
(50,336,c),
(50,153,o),
(160,-14,o),
(382,-14,c)
);
}
);
width = 614;
},
{
layerId = m003;
shapes = (
{
closed = 1;
nodes = (
(460,-13,o),
(574,5,o),
(626,37,c),
(626,392,l),
(361,392,l),
(345,259,l),
(462,259,l),
(462,142,l),
(438,138,o),
(416,136,o),
(398,136,c),
(317,136,o),
(218,190,o),
(218,338,c),
(218,475,o),
(316,544,o),
(401,544,c),
(449,544,o),
(502,537,o),
(565,514,c),
(619,637,l),
(569,672,o),
(471,693,o),
(399,693,c),
(209,693,o),
(30,572,o),
(30,337,c),
(30,107,o),
(180,-13,o),
(393,-13,c)
);
}
);
width = 666;
}
);
unicode = 71;
},
{
glyphname = H;
layers = (
{
layerId = m001;
shapes = (
{
closed = 1;
nodes = (
(555,680,l),
(506,680,l),
(506,364,l),
(149,364,l),
(149,685,l),
(100,680,l),
(100,0,l),
(149,0,l),
(149,325,l),
(506,325,l),
(506,0,l),
(555,0,l)
);
}
);
width = 655;
},
{
layerId = m003;
shapes = (
{
closed = 1;
nodes = (
(682,680,l),
(500,680,l),
(500,409,l),
(262,409,l),
(262,686,l),
(80,680,l),
(80,0,l),
(262,0,l),
(262,266,l),
(500,266,l),
(500,0,l),
(682,0,l)
);
}
);
width = 762;
}
);
unicode = 72;
},
{
glyphname = I;
layers = (
{
layerId = m001;
shapes = (
{
closed = 1;
nodes = (
(149,680,l),
(100,680,l),
(100,0,l),
(149,0,l)
);
}
);
width = 249;
},
{
layerId = m003;
shapes = (
{
closed = 1;
nodes = (
(262,680,l),
(80,680,l),
(80,0,l),
(262,0,l)
);
}
);
width = 342;
}
);
unicode = 73;
},
{
glyphname = J;
layers = (
{
layerId = m001;
shapes = (
{
closed = 1;
nodes = (
(128,-73,o),
(147,-41,o),
(147,42,c),
(147,680,l),
(98,680,l),
(98,49,l),
(98,-28,o),
(80,-43,o),
(10,-70,c),
(34,-102,l)
);
}
);
width = 237;
},
{
layerId = m003;
shapes = (
{
closed = 1;
nodes = (
(225,-60,o),
(275,-16,o),
(275,84,c),
(275,680,l),
(93,680,l),
(93,137,l),
(93,99,o),
(80,66,o),
(10,38,c),
(84,-106,l)
);
}
);
width = 345;
}
);
unicode = 74;
},
{
glyphname = K;
layers = (
{
layerId = m001;
shapes = (
{
closed = 1;
nodes = (
(269,397,l),
(519,663,l),
(485,695,l),
(149,325,l),
(149,680,l),
(100,680,l),
(100,0,l),
(149,0,l),
(149,269,l),
(236,362,l),
(508,0,l),
(570,0,l)
);
}
);
width = 580;
},
{
layerId = m003;
shapes = (
{
closed = 1;
nodes = (
(445,377,l),
(676,593,l),
(535,695,l),
(262,444,l),
(262,680,l),
(80,680,l),
(80,0,l),
(262,0,l),
(262,204,l),
(315,254,l),
(489,0,l),
(720,0,l)
);
}
);
width = 730;
}
);
unicode = 75;
},
{
glyphname = L;
layers = (
{
layerId = m001;
shapes = (
{
closed = 1;
nodes = (
(476,39,l),
(149,39,l),
(149,680,l),
(100,680,l),
(100,0,l),
(481,0,l)
);
}
);
width = 491;
},
{
layerId = m003;
shapes = (
{
closed = 1;
nodes = (
(551,143,l),
(262,143,l),
(262,680,l),
(80,680,l),
(80,0,l),
(568,0,l)
);
}
);
width = 578;
}
);
unicode = 76;
},
{
glyphname = M;
layers = (
{
layerId = m001;
shapes = (
{
closed = 1;
nodes = (
(623,680,l),
(596,680,l),
(361,318,l),
(122,680,l),
(100,680,l),
(100,0,l),
(149,0,l),
(149,561,l),
(353,245,l),
(373,249,l),
(574,566,l),
(574,0,l),
(623,0,l)
);
}
);
width = 723;
},
{
layerId = m003;
shapes = (
{
closed = 1;
nodes = (
(719,680,l),
(598,680,l),
(410,421,l),
(205,680,l),
(80,680,l),
(80,0,l),
(262,0,l),
(262,329,l),
(372,195,l),
(445,205,l),
(537,329,l),
(537,0,l),
(719,0,l)
);
}
);
width = 799;
}
);
unicode = 77;
},
{
glyphname = N;
layers = (
{
layerId = m001;
shapes = (
{
closed = 1;
nodes = (
(558,680,l),
(509,680,l),
(509,111,l),
(475,170,l),
(128,680,l),
(100,680,l),
(100,0,l),
(149,0,l),
(149,574,l),
(163,545,l),
(531,0,l),
(558,0,l)
);
}
);
width = 658;
},
{
layerId = m003;
shapes = (
{
closed = 1;
nodes = (
(693,680,l),
(511,680,l),
(514,311,l),
(446,406,l),
(249,680,l),
(80,680,l),
(80,0,l),
(262,0,l),
(262,358,l),
(325,272,l),
(523,0,l),
(693,0,l)
);
}
);
width = 773;
}
);
unicode = 78;
},
{
glyphname = O;
layers = (
{
layerId = m001;
shapes = (
{
closed = 1;
nodes = (
(528,-14,o),
(657,134,o),
(657,345,c),
(657,549,o),
(534,696,o),
(357,696,c),
(181,696,o),
(50,550,o),
(50,337,c),
(50,135,o),
(173,-14,o),
(351,-14,c)
);
},
{
closed = 1;
nodes = (
(207,27,o),
(105,156,o),
(105,338,c),
(105,524,o),
(212,654,o),
(358,654,c),
(499,654,o),
(602,527,o),
(602,344,c),
(602,161,o),
(499,27,o),
(349,27,c)
);
}
);
width = 707;
},
{
layerId = m003;
shapes = (
{
closed = 1;
nodes = (
(587,-14,o),
(733,129,o),
(733,344,c),
(733,542,o),
(601,694,o),
(381,694,c),
(178,694,o),
(30,551,o),
(30,337,c),
(30,157,o),
(148,-14,o),
(381,-14,c)
);
},
{
closed = 1;
nodes = (
(272,138,o),
(217,231,o),
(217,338,c),
(217,471,o),
(300,542,o),
(383,542,c),
(484,542,o),
(546,460,o),
(546,344,c),
(546,196,o),
(464,138,o),
(380,138,c)
);
}
);
width = 763;
}
);
unicode = 79;
},
{
glyphname = P;
layers = (
{
layerId = m001;
shapes = (
{
closed = 1;
nodes = (
(149,264,l),
(252,264,l),
(387,264,o),
(508,324,o),
(508,475,c),
(508,622,o),
(408,680,o),
(263,680,c),
(100,680,l),
(100,0,l),
(149,0,l)
);
},
{
closed = 1;
nodes = (
(149,303,l),
(149,640,l),
(275,640,l),
(379,640,o),
(458,596,o),
(458,474,c),
(458,355,o),
(365,303,o),
(264,303,c)
);
}
);
width = 548;
},
{
layerId = m003;
shapes = (
{
closed = 1;
nodes = (
(262,198,l),
(358,198,l),
(497,198,o),
(646,266,o),
(646,435,c),
(646,618,o),
(494,680,o),
(366,680,c),
(80,680,l),
(80,0,l),
(262,0,l)
);
},
{
closed = 1;
nodes = (
(262,341,l),
(262,537,l),
(360,537,l),
(424,537,o),
(458,492,o),
(458,435,c),
(458,386,o),
(422,341,o),
(362,341,c)
);
}
);
width = 666;
}
);
unicode = 80;
},
{
glyphname = Q;
layers = (
{
layerId = m001;
shapes = (
{
closed = 1;
nodes = (
(650,1,l),
(439,209,l),
(405,176,l),
(618,-24,l)
);
},
{
closed = 1;
nodes = (
(528,-14,o),
(657,134,o),
(657,345,c),
(657,549,o),
(534,696,o),
(357,696,c),
(181,696,o),
(50,550,o),
(50,337,c),
(50,135,o),
(173,-14,o),
(351,-14,c)
);
},
{
closed = 1;
nodes = (
(207,27,o),
(105,156,o),
(105,338,c),
(105,524,o),
(212,654,o),
(358,654,c),
(499,654,o),
(602,527,o),
(602,344,c),
(602,161,o),
(499,27,o),
(349,27,c)
);
}
);
width = 707;
},
{
layerId = m003;
shapes = (
{
closed = 1;
nodes = (
(717,45,l),
(456,331,l),
(336,229,l),
(605,-52,l)
);
},
{
closed = 1;
nodes = (
(587,-14,o),
(733,129,o),
(733,344,c),
(733,542,o),
(601,694,o),
(381,694,c),
(178,694,o),
(30,551,o),
(30,337,c),
(30,157,o),
(148,-14,o),
(381,-14,c)
);
},
{
closed = 1;
nodes = (
(272,138,o),
(217,231,o),
(217,338,c),
(217,471,o),
(300,542,o),
(383,542,c),
(484,542,o),
(546,460,o),
(546,344,c),
(546,196,o),
(464,138,o),
(380,138,c)
);
}
);
width = 763;
}
);
unicode = 81;
},
{
glyphname = R;
layers = (
{
layerId = m001;
shapes = (
{
closed = 1;
nodes = (
(149,325,l),
(149,640,l),
(265,640,l),
(367,640,o),
(458,601,o),
(458,484,c),
(458,361,o),
(342,325,o),
(254,325,c)
);
},
{
closed = 1;
nodes = (
(385,309,l),
(455,336,o),
(508,392,o),
(508,486,c),
(508,628,o),
(409,680,o),
(263,680,c),
(100,680,l),
(100,0,l),
(149,0,l),
(149,286,l),
(252,289,l),
(281,289,o),
(312,289,o),
(343,296,c),
(507,0,l),
(562,0,l)
);
}
);
width = 572;
},
{
layerId = m003;
shapes = (
{
closed = 1;
nodes = (
(262,357,l),
(262,537,l),
(360,537,l),
(422,537,o),
(458,508,o),
(458,448,c),
(458,399,o),
(422,357,o),
(362,357,c)
);
},
{
closed = 1;
nodes = (
(554,268,l),
(607,305,o),
(646,364,o),
(646,448,c),
(646,619,o),
(511,680,o),
(366,680,c),
(80,680,l),
(80,0,l),
(262,0,l),
(262,214,l),
(351,214,l),
(362,214,o),
(373,214,o),
(382,216,c),
(493,0,l),
(704,0,l)
);
}
);
width = 714;
}
);
unicode = 82;
},
{
glyphname = S;
layers = (
{
layerId = m001;
shapes = (
{
closed = 1;
nodes = (
(395,-13,o),
(464,64,o),
(464,157,c),
(464,251,o),
(398,307,o),
(283,355,c),
(157,409,o),
(102,459,o),
(102,530,c),
(102,595,o),
(155,655,o),
(258,655,c),
(329,655,o),
(368,637,o),
(402,621,c),
(424,657,l),
(385,676,o),
(324,696,o),
(256,696,c),
(118,696,o),
(50,619,o),
(50,535,c),
(50,446,o),
(104,382,o),
(232,330,c),
(362,277,o),
(413,229,o),
(413,160,c),
(413,95,o),
(354,29,o),
(236,29,c),
(168,29,o),
(113,49,o),
(70,68,c),
(55,29,l),
(80,10,o),
(176,-13,o),
(237,-13,c)
);
}
);
width = 504;
},
{
layerId = m003;
shapes = (
{
closed = 1;
nodes = (
(434,-13,o),
(527,79,o),
(527,187,c),
(527,269,o),
(470,332,o),
(394,375,c),
(247,458,o),
(218,466,o),
(218,496,c),
(218,520,o),
(241,544,o),
(285,544,c),
(331,544,o),
(366,537,o),
(429,514,c),
(483,637,l),
(426,676,o),
(346,693,o),
(283,693,c),
(120,693,o),
(32,605,o),
(30,498,c),
(30,404,o),
(100,342,o),
(210,283,c),
(303,232,o),
(339,205,o),
(339,179,c),
(339,159,o),
(312,136,o),
(251,136,c),
(200,136,o),
(129,159,o),
(93,179,c),
(33,42,l),
(88,9,o),
(188,-13,o),
(256,-13,c)
);
}
);
width = 547;
}
);
unicode = 83;
},
{
glyphname = T;
layers = (
{
layerId = m001;
shapes = (
{
closed = 1;
nodes = (
(291,641,l),
(524,641,l),
(519,680,l),
(10,680,l),
(10,641,l),
(242,641,l),
(242,0,l),
(291,0,l)
);
}
);
width = 534;
},
{
layerId = m003;
shapes = (
{
closed = 1;
nodes = (
(392,537,l),
(609,537,l),
(592,680,l),
(10,680,l),
(10,537,l),
(210,537,l),
(210,0,l),
(392,0,l)
);
}
);
width = 619;
}
);
unicode = 84;
},
{
glyphname = U;
layers = (
{
layerId = m001;
shapes = (
{
closed = 1;
nodes = (
(497,-12,o),
(568,108,o),
(568,239,c),
(568,680,l),
(519,680,l),
(519,236,l),
(519,129,o),
(457,29,o),
(329,29,c),
(208,29,o),
(139,126,o),
(139,236,c),
(139,680,l),
(90,680,l),
(90,239,l),
(90,105,o),
(166,-12,o),
(329,-12,c)
);
}
);
width = 658;
},
{
layerId = m003;
shapes = (
{
closed = 1;
nodes = (
(544,-14,o),
(680,71,o),
(680,260,c),
(680,680,l),
(498,680,l),
(498,269,l),
(498,186,o),
(448,138,o),
(375,138,c),
(307,138,o),
(252,179,o),
(252,269,c),
(252,680,l),
(70,680,l),
(70,260,l),
(70,73,o),
(205,-14,o),
(375,-14,c)
);
}
);
width = 750;
}
);
unicode = 85;
},
{
glyphname = V;
layers = (
{
layerId = m001;
shapes = (
{
closed = 1;
nodes = (
(562,679,l),
(513,679,l),
(291,65,l),
(60,685,l),
(10,674,l),
(269,-1,l),
(315,-1,l)
);
}
);
width = 572;
},
{
layerId = m003;
shapes = (
{
closed = 1;
nodes = (
(701,680,l),
(520,680,l),
(358,218,l),
(189,690,l),
(10,672,l),
(264,0,l),
(446,0,l)
);
}
);
width = 711;
}
);
unicode = 86;
},
{
glyphname = W;
layers = (
{
layerId = m001;
shapes = (
{
closed = 1;
nodes = (
(802,679,l),
(753,679,l),
(601,79,l),
(432,679,l),
(383,679,l),
(231,79,l),
(60,685,l),
(10,674,l),
(209,-1,l),
(255,-1,l),
(407,593,l),
(579,-1,l),
(625,-1,l)
);
}
);
width = 812;
},
{
layerId = m003;
shapes = (
{
closed = 1;
nodes = (
(990,680,l),
(809,680,l),
(707,218,l),
(591,680,l),
(410,680,l),
(308,218,l),
(189,690,l),
(10,672,l),
(214,0,l),
(396,0,l),
(501,427,l),
(613,0,l),
(795,0,l)
);
}
);
width = 1000;
}
);
unicode = 87;
},
{
glyphname = X;
layers = (
{
layerId = m001;
shapes = (
{
closed = 1;
nodes = (
(298,337,l),
(513,680,l),
(459,680,l),
(271,379,l),
(86,691,l),
(38,668,l),
(237,350,l),
(10,0,l),
(68,0,l),
(261,311,l),
(454,0,l),
(513,0,l)
);
}
);
width = 523;
},
{
layerId = m003;
shapes = (
{
closed = 1;
nodes = (
(477,345,l),
(704,680,l),
(478,680,l),
(362,498,l),
(225,705,l),
(29,648,l),
(247,338,l),
(10,0,l),
(225,0,l),
(362,186,l),
(472,0,l),
(705,0,l)
);
}
);
width = 715;
}
);
unicode = 88;
},
{
glyphname = Y;
layers = (
{
layerId = m001;
shapes = (
{
closed = 1;
nodes = (
(284,274,l),
(520,680,l),
(463,680,l),
(259,321,l),
(59,689,l),
(10,668,l),
(235,269,l),
(235,0,l),
(284,0,l)
);
}
);
width = 530;
},
{
layerId = m003;
shapes = (
{
closed = 1;
nodes = (
(408,266,l),
(644,680,l),
(457,680,l),
(316,435,l),
(184,694,l),
(10,646,l),
(226,268,l),
(226,0,l),
(408,0,l)
);
}
);
width = 654;
}
);
unicode = 89;
},
{
glyphname = Z;
layers = (
{
layerId = m001;
shapes = (
{
closed = 1;
nodes = (
(499,39,l),
(79,39,l),
(509,631,l),
(504,680,l),
(47,680,l),
(57,641,l),
(463,641,l),
(30,50,l),
(36,0,l),
(504,0,l)
);
}
);
width = 539;
},
{
layerId = m003;
shapes = (
{
closed = 1;
nodes = (
(554,143,l),
(220,143,l),
(574,551,l),
(555,680,l),
(39,680,l),
(56,537,l),
(357,537,l),
(10,128,l),
(30,0,l),
(571,0,l)
);
}
);
width = 584;
}
);
unicode = 90;
},
{
glyphname = a;
layers = (
{
layerId = m001;
shapes = (
{
closed = 1;
nodes = (
(141,28,o),
(103,81,o),
(103,136,c),
(103,194,o),
(138,244,o),
(229,244,c),
(360,244,l),
(360,109,l),
(330,65,o),
(283,28,o),
(219,28,c)
);
},
{
closed = 1;
nodes = (
(279,-13,o),
(331,17,o),
(363,52,c),
(371,0,l),
(409,0,l),
(409,340,l),
(409,434,o),
(355,498,o),
(241,498,c),
(182,498,o),
(126,481,o),
(86,456,c),
(105,423,l),
(151,447,o),
(198,457,o),
(244,457,c),
(327,457,o),
(360,404,o),
(360,341,c),
(360,281,l),
(225,281,l),
(131,281,o),
(52,234,o),
(52,136,c),
(52,57,o),
(99,-13,o),
(215,-13,c)
);
}
);
width = 475;
},
{
layerId = m003;
shapes = (
{
closed = 1;
nodes = (
(200,125,o),
(184,139,o),
(184,159,c),
(184,181,o),
(200,198,o),
(225,198,c),
(281,198,l),
(281,152,l),
(261,136,o),
(239,125,o),
(217,125,c)
);
},
{
closed = 1;
nodes = (
(257,-11,o),
(294,13,o),
(323,50,c),
(375,0,l),
(463,0,l),
(463,300,l),
(463,416,o),
(402,502,o),
(262,502,c),
(177,502,o),
(97,478,o),
(48,456,c),
(96,325,l),
(131,340,o),
(182,354,o),
(217,354,c),
(252,354,o),
(272,339,o),
(278,310,c),
(280,298,l),
(239,298,l),
(140,298,o),
(32,291,o),
(32,156,c),
(32,61,o),
(85,-11,o),
(214,-11,c)
);
}
);
width = 509;
}
);
unicode = 97;
},
{
glyphname = b;
layers = (
{
layerId = m001;
shapes = (
{
closed = 1;
nodes = (
(129,59,l),
(129,706,l),
(80,696,l),
(80,0,l),
(108,0,l)
);
},
{
closed = 1;
nodes = (
(410,-13,o),
(472,107,o),
(472,240,c),
(472,386,o),
(410,498,o),
(263,498,c),
(197,498,o),
(144,468,o),
(104,420,c),
(124,386,l),
(163,429,o),
(201,457,o),
(263,457,c),
(371,457,o),
(421,362,o),
(421,239,c),
(421,133,o),
(371,28,o),
(258,28,c),
(199,28,o),
(155,58,o),
(119,92,c),
(99,59,l),
(125,33,o),
(191,-13,o),
(256,-13,c)
);
}
);
width = 512;
},
{
layerId = m003;
shapes = (
{
closed = 1;
nodes = (
(242,91,l),
(242,706,l),
(60,695,l),
(60,0,l),
(152,0,l)
);
},
{
closed = 1;
nodes = (
(451,-11,o),
(563,69,o),
(563,249,c),
(563,421,o),
(462,502,o),
(314,502,c),
(235,502,o),
(166,454,o),
(132,413,c),
(183,296,l),
(225,339,o),
(256,362,o),
(286,362,c),
(344,362,o),
(375,321,o),
(375,248,c),
(375,175,o),
(340,129,o),
(294,129,c),
(258,129,o),
(220,151,o),
(183,185,c),
(132,78,l),
(188,14,o),
(246,-11,o),
(306,-11,c)
);
}
);
width = 583;
}
);
unicode = 98;
},
{
glyphname = c;
layers = (
{
layerId = m001;
shapes = (
{
closed = 1;
nodes = (
(301,-13,o),
(365,2,o),
(408,28,c),
(388,62,l),
(350,43,o),
(322,28,o),
(259,28,c),
(145,28,o),
(91,133,o),
(91,246,c),
(91,351,o),
(149,457,o),
(264,457,c),
(325,457,o),
(361,438,o),
(393,423,c),
(413,456,l),
(376,481,o),
(305,498,o),
(266,498,c),
(114,498,o),
(40,381,o),
(40,245,c),
(40,105,o),
(108,-13,o),
(259,-13,c)
);
}
);
width = 449;
},
{
layerId = m003;
shapes = (
{
closed = 1;
nodes = (
(322,-11,o),
(394,-7,o),
(451,38,c),
(400,163,l),
(363,144,o),
(337,137,o),
(303,137,c),
(257,137,o),
(208,171,o),
(208,242,c),
(208,316,o),
(257,354,o),
(303,354,c),
(339,354,o),
(363,347,o),
(400,328,c),
(451,453,l),
(397,496,o),
(332,502,o),
(285,502,c),
(140,502,o),
(20,417,o),
(20,242,c),
(20,69,o),
(139,-11,o),
(285,-11,c)
);
}
);
width = 457;
}
);
unicode = 99;
},
{
glyphname = d;
layers = (
{
layerId = m001;
shapes = (
{
closed = 1;
nodes = (
(432,705,l),
(383,696,l),
(383,53,l),
(405,0,l),
(432,0,l)
);
},
{
closed = 1;
nodes = (
(316,-13,o),
(367,18,o),
(408,65,c),
(388,99,l),
(349,56,o),
(311,28,o),
(249,28,c),
(134,28,o),
(91,135,o),
(91,246,c),
(91,352,o),
(141,457,o),
(254,457,c),
(313,457,o),
(357,427,o),
(393,393,c),
(413,426,l),
(387,456,o),
(318,498,o),
(253,498,c),
(103,498,o),
(40,379,o),
(40,245,c),
(40,101,o),
(101,-13,o),
(249,-13,c)
);
}
);
width = 512;
},
{
layerId = m003;
shapes = (
{
closed = 1;
nodes = (
(523,706,l),
(341,695,l),
(341,117,l),
(431,0,l),
(523,0,l)
);
},
{
closed = 1;
nodes = (
(355,-11,o),
(423,44,o),
(451,78,c),
(400,195,l),
(358,152,o),
(327,129,o),
(297,129,c),
(245,129,o),
(208,164,o),
(208,243,c),
(208,325,o),
(249,362,o),
(289,362,c),
(325,362,o),
(363,340,o),
(400,306,c),
(451,413,l),
(395,477,o),
(337,502,o),
(277,502,c),
(130,502,o),
(20,420,o),
(20,242,c),
(20,59,o),
(135,-11,o),
(269,-11,c)
);
}
);
width = 583;
}
);
unicode = 100;
},
{
glyphname = e;
layers = (
{
layerId = m001;
shapes = (
{
closed = 1;
nodes = (
(310,-13,o),
(385,1,o),
(425,25,c),
(405,62,l),
(368,43,o),
(329,28,o),
(262,28,c),
(140,28,o),
(93,127,o),
(91,242,c),
(440,242,l),
(440,248,l),
(440,386,o),
(369,498,o),
(252,498,c),
(99,498,o),
(40,378,o),
(40,245,c),
(40,99,o),
(108,-13,o),
(270,-13,c)
);
},
{
closed = 1;
nodes = (
(93,279,l),
(103,371,o),
(146,457,o),
(245,457,c),
(345,457,o),
(380,371,o),
(388,279,c)
);
}
);
width = 480;
},
{
layerId = m003;
shapes = (
{
closed = 1;
nodes = (
(395,-11,o),
(474,13,o),
(512,41,c),
(461,164,l),
(430,148,o),
(385,131,o),
(328,131,c),
(262,131,o),
(231,160,o),
(218,197,c),
(513,197,l),
(513,250,l),
(513,380,o),
(443,502,o),
(281,502,c),
(145,502,o),
(20,416,o),
(20,242,c),
(20,68,o),
(153,-11,o),
(310,-11,c)
);
},
{
closed = 1;
nodes = (
(213,287,l),
(213,326,o),
(243,356,o),
(276,356,c),
(326,356,o),
(339,310,o),
(339,287,c)
);
}
);
width = 533;
}
);
unicode = 101;
},
{
glyphname = f;
layers = (
{
layerId = m001;
shapes = (
{
closed = 1;
nodes = (
(142,433,l),
(251,433,l),
(230,470,l),
(142,470,l),
(142,579,l),
(142,626,o),
(159,661,o),
(211,661,c),
(225,661,o),
(244,656,o),
(252,652,c),
(264,689,l),
(253,695,o),
(226,702,o),
(198,702,c),
(122,702,o),
(93,644,o),
(93,563,c),
(93,470,l),
(20,470,l),
(20,433,l),
(93,433,l),
(93,0,l),
(142,0,l)
);
}
);
width = 264;
},
{
layerId = m003;
shapes = (
{
closed = 1;
nodes = (
(272,322,l),
(423,322,l),
(406,465,l),
(272,465,l),
(272,489,l),
(272,524,o),
(281,555,o),
(329,555,c),
(348,555,o),
(375,550,o),
(399,536,c),
(451,660,l),
(427,682,o),
(363,703,o),
(310,703,c),
(208,703,o),
(90,645,o),
(90,510,c),
(90,465,l),
(10,465,l),
(10,322,l),
(90,322,l),
(90,0,l),
(272,0,l)
);
}
);
width = 451;
}
);
unicode = 102;
},
{
glyphname = g;
layers = (
{
layerId = m001;
shapes = (
{
closed = 1;
nodes = (
(366,-230,o),
(432,-160,o),
(432,-62,c),
(432,485,l),
(405,485,l),
(383,412,l),
(383,-72,l),
(383,-157,o),
(314,-189,o),
(238,-189,c),
(184,-189,o),
(148,-178,o),
(94,-154,c),
(75,-189,l),
(113,-214,o),
(200,-230,o),
(240,-230,c)
);
},
{
closed = 1;
nodes = (
(316,-13,o),
(367,18,o),
(408,65,c),
(388,99,l),
(349,56,o),
(311,28,o),
(249,28,c),
(134,28,o),
(91,135,o),
(91,246,c),
(91,352,o),
(141,457,o),
(254,457,c),
(313,457,o),
(357,427,o),
(393,393,c),
(413,426,l),
(387,456,o),
(318,498,o),
(256,498,c),
(103,498,o),
(40,379,o),
(40,245,c),
(40,101,o),
(101,-13,o),
(249,-13,c)
);
}
);
width = 508;
},
{
layerId = m003;
shapes = (
{
closed = 1;
nodes = (
(421,-230,o),
(523,-139,o),
(523,-16,c),
(523,484,l),
(432,484,l),
(341,370,l),
(341,-15,l),
(341,-54,o),
(300,-83,o),
(243,-83,c),
(199,-83,o),
(151,-76,o),
(89,-46,c),
(34,-174,l),
(104,-217,o),
(218,-230,o),
(256,-230,c)
);
},
{
closed = 1;
nodes = (
(355,-11,o),
(423,44,o),
(451,78,c),
(400,195,l),
(358,152,o),
(327,129,o),
(297,129,c),
(245,129,o),
(208,164,o),
(208,243,c),
(208,325,o),
(249,362,o),
(289,362,c),
(325,362,o),
(363,340,o),
(400,306,c),
(451,413,l),
(395,477,o),
(337,502,o),
(261,502,c),
(130,502,o),
(20,420,o),
(20,242,c),
(20,59,o),
(135,-11,o),
(269,-11,c)
);
}
);
width = 579;
}
);
unicode = 103;
},
{
glyphname = h;
layers = (
{
layerId = m001;
shapes = (
{
closed = 1;
nodes = (
(444,337,l),
(444,429,o),
(404,498,o),
(300,498,c),
(240,498,o),
(170,457,o),
(128,409,c),
(129,359,l),
(184,416,o),
(246,457,o),
(304,457,c),
(381,457,o),
(395,399,o),
(395,337,c),
(395,0,l),
(444,0,l)
);
},
{
closed = 1;
nodes = (
(129,706,l),
(80,696,l),
(80,0,l),
(129,0,l)
);
}
);
width = 510;
},
{
layerId = m003;
shapes = (
{
closed = 1;
nodes = (
(574,313,l),
(574,419,o),
(523,501,o),
(398,501,c),
(314,501,o),
(242,461,o),
(200,435,c),
(242,326,l),
(269,339,o),
(320,354,o),
(340,354,c),
(383,354,o),
(392,324,o),
(392,296,c),
(392,0,l),
(574,0,l)
);
},
{
closed = 1;
nodes = (
(242,706,l),
(60,695,l),
(60,0,l),
(242,0,l)
);
}
);
width = 620;
}
);
unicode = 104;
},
{
glyphname = i;
layers = (
{
layerId = m001;
shapes = (
{
closed = 1;
nodes = (
(119,485,l),
(70,485,l),
(70,0,l),
(119,0,l)
);
},
{
closed = 1;
nodes = (
(118,600,o),
(133,618,o),
(133,638,c),
(133,660,o),
(115,676,o),
(94,676,c),
(70,676,o),
(56,658,o),
(56,638,c),
(56,618,o),
(70,600,o),
(94,600,c)
);
}
);
width = 189;
},
{
layerId = m003;
shapes = (
{
closed = 1;
nodes = (
(232,485,l),
(50,485,l),
(50,0,l),
(232,0,l)
);
},
{
closed = 1;
nodes = (
(195,551,o),
(240,595,o),
(240,649,c),
(240,704,o),
(195,749,o),
(140,749,c),
(86,749,o),
(42,704,o),
(42,649,c),
(42,595,o),
(86,551,o),
(140,551,c)
);
}
);
width = 282;
}
);
unicode = 105;
},
{
glyphname = j;
layers = (
{
layerId = m001;
shapes = (
{
closed = 1;
nodes = (
(125,600,o),
(140,618,o),
(140,638,c),
(140,660,o),
(122,676,o),
(101,676,c),
(77,676,o),
(63,658,o),
(63,638,c),
(63,616,o),
(78,600,o),
(101,600,c)
);
},
{
closed = 1;
nodes = (
(108,-189,o),
(126,-155,o),
(126,-62,c),
(126,485,l),
(77,485,l),
(77,-54,l),
(77,-134,o),
(63,-159,o),
(0,-183,c),
(18,-219,l)
);
}
);
width = 206;
},
{
layerId = m003;
shapes = (
{
closed = 1;
nodes = (
(211,551,o),
(256,595,o),
(256,649,c),
(256,704,o),
(211,749,o),
(156,749,c),
(102,749,o),
(58,704,o),
(58,649,c),
(58,597,o),
(107,551,o),
(156,551,c)
);
},
{
closed = 1;
nodes = (
(196,-151,o),
(248,-107,o),
(248,2,c),
(248,485,l),
(66,485,l),
(66,29,l),
(66,-11,o),
(59,-38,o),
(-10,-63,c),
(62,-194,l)
);
}
);
width = 302;
}
);
unicode = 106;
},
{
glyphname = k;
layers = (
{
layerId = m001;
shapes = (
{
closed = 1;
nodes = (
(236,313,l),
(391,467,l),
(354,498,l),
(129,264,l),
(129,706,l),
(80,696,l),
(80,0,l),
(129,0,l),
(129,206,l),
(203,280,l),
(390,0,l),
(449,0,l)
);
}
);
width = 449;
},
{
layerId = m003;
shapes = (
{
closed = 1;
nodes = (
(403,277,l),
(532,374,l),
(423,499,l),
(242,346,l),
(242,706,l),
(60,695,l),
(60,0,l),
(242,0,l),
(242,156,l),
(275,181,l),
(371,0,l),
(567,0,l)
);
}
);
width = 567;
}
);
unicode = 107;
},
{
glyphname = l;
layers = (
{
layerId = m001;
shapes = (
{
closed = 1;
nodes = (
(129,706,l),
(80,696,l),
(80,0,l),
(129,0,l)
);
}
);
width = 209;
},
{
layerId = m003;
shapes = (
{
closed = 1;
nodes = (
(242,706,l),
(60,695,l),
(60,0,l),
(242,0,l)
);
}
);
width = 302;
}
);
unicode = 108;
},
{
glyphname = m;
layers = (
{
layerId = m001;
shapes = (
{
closed = 1;
nodes = (
(419,337,l),
(419,429,o),
(384,498,o),
(285,498,c),
(236,498,o),
(161,459,o),
(118,409,c),
(108,485,l),
(70,485,l),
(70,0,l),
(119,0,l),
(119,359,l),
(171,413,o),
(233,457,o),
(289,457,c),
(352,457,o),
(370,414,o),
(370,337,c),
(370,0,l),
(419,0,l)
);
},
{
closed = 1;
nodes = (
(710,337,l),
(710,429,o),
(675,498,o),
(576,498,c),
(527,498,o),
(452,459,o),
(409,409,c),
(410,359,l),
(462,413,o),
(524,457,o),
(580,457,c),
(643,457,o),
(661,414,o),
(661,337,c),
(661,0,l),
(710,0,l)
);
}
);
width = 776;
},
{
layerId = m003;
shapes = (
{
closed = 1;
nodes = (
(554,313,l),
(554,427,o),
(506,501,o),
(383,501,c),
(306,501,o),
(237,464,o),
(190,435,c),
(158,485,l),
(50,485,l),
(50,0,l),
(232,0,l),
(232,326,l),
(259,339,o),
(308,354,o),
(325,354,c),
(365,354,o),
(372,334,o),
(372,296,c),
(372,0,l),
(554,0,l)
);
},
{
closed = 1;
nodes = (
(875,313,l),
(875,427,o),
(827,501,o),
(704,501,c),
(627,501,o),
(558,464,o),
(511,435,c),
(553,326,l),
(580,339,o),
(629,354,o),
(646,354,c),
(686,354,o),
(693,334,o),
(693,296,c),
(693,0,l),
(875,0,l)
);
}
);
width = 921;
}
);
unicode = 109;
},
{
glyphname = n;
layers = (
{
layerId = m001;
shapes = (
{
closed = 1;
nodes = (
(434,337,l),
(434,429,o),
(394,498,o),
(290,498,c),
(230,498,o),
(160,457,o),
(118,409,c),
(108,485,l),
(70,485,l),
(70,0,l),
(119,0,l),
(119,359,l),
(174,416,o),
(236,457,o),
(294,457,c),
(371,457,o),
(385,399,o),
(385,337,c),
(385,0,l),
(434,0,l)
);
}
);
width = 500;
},
{
layerId = m003;
shapes = (
{
closed = 1;
nodes = (
(564,313,l),
(564,419,o),
(513,501,o),
(388,501,c),
(304,501,o),
(232,461,o),
(190,435,c),
(158,485,l),
(50,485,l),
(50,0,l),
(232,0,l),
(232,326,l),
(259,339,o),
(310,354,o),
(330,354,c),
(371,354,o),
(382,326,o),
(382,296,c),
(382,0,l),
(564,0,l)
);
}
);
width = 610;
}
);
unicode = 110;
},
{
glyphname = o;
layers = (
{
layerId = m001;
shapes = (
{
closed = 1;
nodes = (
(412,-11,o),
(483,103,o),
(483,240,c),
(483,381,o),
(416,498,o),
(265,498,c),
(109,498,o),
(40,393,o),
(40,245,c),
(40,103,o),
(109,-11,o),
(259,-13,c)
);
},
{
closed = 1;
nodes = (
(145,28,o),
(91,133,o),
(91,246,c),
(91,351,o),
(149,457,o),
(264,457,c),
(373,457,o),
(432,361,o),
(432,239,c),
(432,135,o),
(374,28,o),
(259,28,c)
);
}
);
width = 523;
},
{
layerId = m003;
shapes = (
{
closed = 1;
nodes = (
(436,-11,o),
(570,62,o),
(570,240,c),
(570,412,o),
(458,502,o),
(295,502,c),
(145,502,o),
(20,417,o),
(20,245,c),
(20,62,o),
(145,-11,o),
(291,-11,c)
);
},
{
closed = 1;
nodes = (
(235,137,o),
(208,185,o),
(208,245,c),
(208,309,o),
(237,354,o),
(297,354,c),
(354,354,o),
(382,302,o),
(382,240,c),
(382,171,o),
(349,137,o),
(293,137,c)
);
}
);
width = 590;
}
);
unicode = 111;
},
{
glyphname = p;
layers = (
{
layerId = m001;
shapes = (
{
closed = 1;
nodes = (
(125,-208,l),
(125,418,l),
(104,485,l),
(76,485,l),
(76,-219,l)
);
},
{
closed = 1;
nodes = (
(406,-13,o),
(468,107,o),
(468,240,c),
(468,386,o),
(406,498,o),
(259,498,c),
(193,498,o),
(140,468,o),
(100,420,c),
(120,386,l),
(159,429,o),
(197,457,o),
(259,457,c),
(367,457,o),
(417,362,o),
(417,239,c),
(417,133,o),
(367,28,o),
(254,28,c),
(195,28,o),
(151,58,o),
(115,92,c),
(95,59,l),
(121,33,o),
(187,-13,o),
(252,-13,c)
);
}
);
width = 508;
},
{
layerId = m003;
shapes = (
{
closed = 1;
nodes = (
(238,-209,l),
(238,393,l),
(147,484,l),
(56,484,l),
(56,-219,l)
);
},
{
closed = 1;
nodes = (
(447,-11,o),
(559,69,o),
(559,249,c),
(559,421,o),
(458,502,o),
(310,502,c),
(231,502,o),
(162,454,o),
(128,413,c),
(179,296,l),
(221,339,o),
(252,362,o),
(282,362,c),
(340,362,o),
(371,321,o),
(371,248,c),
(371,175,o),
(336,129,o),
(290,129,c),
(254,129,o),
(216,151,o),
(179,185,c),
(128,78,l),
(184,14,o),
(242,-11,o),
(302,-11,c)
);
}
);
width = 579;
}
);
unicode = 112;
},
{
glyphname = q;
layers = (
{
layerId = m001;
shapes = (
{
closed = 1;
nodes = (
(432,-208,l),
(432,485,l),
(405,485,l),
(383,419,l),
(383,-219,l)
);
},
{
closed = 1;
nodes = (
(316,-13,o),
(367,18,o),
(408,65,c),
(388,99,l),
(349,56,o),
(311,28,o),
(249,28,c),
(134,28,o),
(91,135,o),
(91,246,c),
(91,352,o),
(141,457,o),
(254,457,c),
(313,457,o),
(357,427,o),
(393,393,c),
(413,426,l),
(387,456,o),
(318,498,o),
(256,498,c),
(103,498,o),
(40,379,o),
(40,245,c),
(40,101,o),
(101,-13,o),
(249,-13,c)
);
}
);
width = 508;
},
{
layerId = m003;
shapes = (
{
closed = 1;
nodes = (
(523,-208,l),
(523,484,l),
(432,484,l),
(341,389,l),
(341,-219,l)
);
},
{
closed = 1;
nodes = (
(355,-11,o),
(423,44,o),
(451,78,c),
(400,195,l),
(358,152,o),
(327,129,o),
(297,129,c),
(245,129,o),
(208,164,o),
(208,243,c),
(208,325,o),
(249,362,o),
(289,362,c),
(325,362,o),
(363,340,o),
(400,306,c),
(451,413,l),
(395,477,o),
(337,502,o),
(277,502,c),
(130,502,o),
(20,420,o),
(20,242,c),
(20,59,o),
(135,-11,o),
(269,-11,c)
);
}
);
width = 579;
}
);
unicode = 113;
},
{
glyphname = r;
layers = (
{
layerId = m001;
shapes = (
{
closed = 1;
nodes = (
(119,357,l),
(157,399,o),
(231,447,o),
(292,447,c),
(275,485,l),
(221,485,o),
(149,436,o),
(116,408,c),
(98,485,l),
(70,485,l),
(70,0,l),
(119,0,l)
);
}
);
width = 302;
},
{
layerId = m003;
shapes = (
{
closed = 1;
nodes = (
(232,285,l),
(273,316,o),
(337,339,o),
(385,339,c),
(348,485,l),
(294,485,o),
(224,453,o),
(185,425,c),
(141,484,l),
(50,484,l),
(50,0,l),
(232,0,l)
);
}
);
width = 395;
}
);
unicode = 114;
},
{
glyphname = s;
layers = (
{
layerId = m001;
shapes = (
{
closed = 1;
nodes = (
(312,-13,o),
(366,37,o),
(366,123,c),
(366,191,o),
(293,230,o),
(224,264,c),
(159,296,o),
(97,324,o),
(97,368,c),
(97,411,o),
(137,457,o),
(210,457,c),
(268,457,o),
(305,438,o),
(334,423,c),
(354,458,l),
(322,482,o),
(259,498,o),
(217,498,c),
(101,498,o),
(50,435,o),
(50,364,c),
(50,301,o),
(116,265,o),
(182,233,c),
(250,199,o),
(319,170,o),
(319,119,c),
(319,65,o),
(271,28,o),
(191,28,c),
(138,28,o),
(99,49,o),
(60,66,c),
(42,25,l),
(83,-1,o),
(152,-13,o),
(189,-13,c)
);
}
);
width = 406;
},
{
layerId = m003;
shapes = (
{
closed = 1;
nodes = (
(371,-11,o),
(431,55,o),
(431,151,c),
(431,222,o),
(373,266,o),
(308,293,c),
(242,321,o),
(210,326,o),
(210,342,c),
(210,356,o),
(232,364,o),
(260,364,c),
(296,364,o),
(342,351,o),
(379,335,c),
(430,450,l),
(374,494,o),
(285,502,o),
(247,502,c),
(113,502,o),
(32,442,o),
(32,340,c),
(32,265,o),
(97,224,o),
(157,198,c),
(207,176,o),
(253,164,o),
(253,149,c),
(253,134,o),
(235,127,o),
(211,127,c),
(158,127,o),
(112,144,o),
(73,161,c),
(22,46,l),
(79,1,o),
(190,-11,o),
(229,-11,c)
);
}
);
width = 451;
}
);
unicode = 115;
},
{
glyphname = t;
layers = (
{
layerId = m001;
shapes = (
{
closed = 1;
nodes = (
(223,-13,o),
(246,-6,o),
(262,-1,c),
(250,37,l),
(244,34,o),
(224,28,o),
(209,28,c),
(156,28,o),
(141,79,o),
(141,123,c),
(141,433,l),
(250,433,l),
(229,470,l),
(141,470,l),
(141,623,l),
(92,601,l),
(92,470,l),
(20,470,l),
(20,433,l),
(92,433,l),
(92,116,l),
(92,32,o),
(134,-13,o),
(196,-13,c)
);
}
);
width = 292;
},
{
layerId = m003;
shapes = (
{
closed = 1;
nodes = (
(362,-11,o),
(422,12,o),
(446,32,c),
(394,156,l),
(370,142,o),
(343,137,o),
(324,137,c),
(290,137,o),
(267,161,o),
(267,202,c),
(267,322,l),
(411,322,l),
(394,465,l),
(267,465,l),
(267,621,l),
(85,596,l),
(85,465,l),
(10,465,l),
(10,322,l),
(85,322,l),
(85,182,l),
(85,38,o),
(216,-11,o),
(312,-11,c)
);
}
);
width = 456;
}
);
unicode = 116;
},
{
glyphname = u;
layers = (
{
layerId = m001;
shapes = (
{
closed = 1;
nodes = (
(272,-13,o),
(342,28,o),
(382,76,c),
(392,0,l),
(430,0,l),
(430,485,l),
(381,485,l),
(381,126,l),
(329,74,o),
(268,28,o),
(206,28,c),
(129,28,o),
(115,86,o),
(115,148,c),
(115,485,l),
(66,485,l),
(66,148,l),
(66,61,o),
(103,-13,o),
(210,-13,c)
);
}
);
width = 500;
},
{
layerId = m003;
shapes = (
{
closed = 1;
nodes = (
(304,-17,o),
(378,23,o),
(420,49,c),
(472,-1,l),
(560,-1,l),
(560,484,l),
(378,484,l),
(378,158,l),
(351,146,o),
(304,130,o),
(280,130,c),
(239,130,o),
(228,160,o),
(228,188,c),
(228,484,l),
(46,484,l),
(46,171,l),
(46,66,o),
(97,-17,o),
(222,-17,c)
);
}
);
width = 610;
}
);
unicode = 117;
},
{
glyphname = v;
layers = (
{
layerId = m001;
shapes = (
{
closed = 1;
nodes = (
(420,485,l),
(370,485,l),
(216,56,l),
(56,492,l),
(10,474,l),
(193,0,l),
(240,0,l)
);
}
);
width = 430;
},
{
layerId = m003;
shapes = (
{
closed = 1;
nodes = (
(559,485,l),
(378,485,l),
(285,211,l),
(188,503,l),
(20,455,l),
(196,0,l),
(368,0,l)
);
}
);
width = 569;
}
);
unicode = 118;
},
{
glyphname = w;
layers = (
{
layerId = m001;
shapes = (
{
closed = 1;
nodes = (
(632,485,l),
(582,485,l),
(466,64,l),
(340,485,l),
(298,485,l),
(175,64,l),
(56,491,l),
(10,473,l),
(153,0,l),
(200,0,l),
(315,409,l),
(441,0,l),
(488,0,l)
);
}
);
width = 642;
},
{
layerId = m003;
shapes = (
{
closed = 1;
nodes = (
(802,485,l),
(621,485,l),
(558,210,l),
(486,485,l),
(315,485,l),
(248,210,l),
(178,503,l),
(10,455,l),
(158,0,l),
(324,0,l),
(399,251,l),
(475,0,l),
(641,0,l)
);
}
);
width = 812;
}
);
unicode = 119;
},
{
glyphname = x;
layers = (
{
layerId = m001;
shapes = (
{
closed = 1;
nodes = (
(235,232,l),
(395,485,l),
(341,485,l),
(209,267,l),
(73,494,l),
(30,474,l),
(171,244,l),
(10,0,l),
(66,0,l),
(196,207,l),
(327,0,l),
(382,0,l)
);
}
);
width = 405;
},
{
layerId = m003;
shapes = (
{
closed = 1;
nodes = (
(382,231,l),
(547,485,l),
(346,485,l),
(272,368,l),
(187,500,l),
(11,458,l),
(168,241,l),
(10,0,l),
(215,0,l),
(278,104,l),
(343,0,l),
(547,0,l)
);
}
);
width = 557;
}
);
unicode = 120;
},
{
glyphname = y;
layers = (
{
layerId = m001;
shapes = (
{
closed = 1;
nodes = (
(133,-205,o),
(180,-168,o),
(201,-112,c),
(420,485,l),
(370,485,l),
(216,56,l),
(56,491,l),
(10,473,l),
(193,0,l),
(162,-98,l),
(146,-142,o),
(115,-163,o),
(63,-181,c),
(68,-219,l)
);
}
);
width = 430;
},
{
layerId = m003;
shapes = (
{
closed = 1;
nodes = (
(208,-198,o),
(306,-140,o),
(338,-57,c),
(551,485,l),
(370,485,l),
(277,211,l),
(178,503,l),
(10,455,l),
(184,9,l),
(177,-10,l),
(170,-29,o),
(151,-38,o),
(56,-78,c),
(117,-219,l)
);
}
);
width = 561;
}
);
unicode = 121;
},
{
glyphname = z;
layers = (
{
layerId = m001;
shapes = (
{
closed = 1;
nodes = (
(388,37,l),
(79,37,l),
(404,453,l),
(401,485,l),
(57,485,l),
(73,448,l),
(350,448,l),
(28,31,l),
(36,0,l),
(398,0,l)
);
}
);
width = 432;
},
{
layerId = m003;
shapes = (
{
closed = 1;
nodes = (
(427,143,l),
(230,143,l),
(426,384,l),
(417,485,l),
(30,485,l),
(47,342,l),
(207,342,l),
(8,94,l),
(30,0,l),
(444,0,l)
);
}
);
width = 452;
}
);
unicode = 122;
},
{
glyphname = zero.zero;
layers = (
{
layerId = m001;
shapes = (
{
closed = 1;
nodes = (
(428,-13,o),
(530,113,o),
(530,289,c),
(530,456,o),
(430,579,o),
(286,579,c),
(148,579,o),
(40,465,o),
(40,288,c),
(40,110,o),
(145,-13,o),
(286,-13,c)
);
},
{
closed = 1;
nodes = (
(175,28,o),
(91,134,o),
(91,291,c),
(91,442,o),
(178,538,o),
(286,538,c),
(397,538,o),
(479,435,o),
(479,286,c),
(479,137,o),
(400,28,o),
(286,28,c)
);
},
{
closed = 1;
nodes = (
(455,453,l),
(426,485,l),
(110,114,l),
(143,88,l)
);
}
);
width = 570;
},
{
layerId = m003;
shapes = (
{
closed = 1;
nodes = (
(523,-14,o),
(658,109,o),
(658,286,c),
(658,455,o),
(527,579,o),
(339,579,c),
(154,579,o),
(20,458,o),
(20,284,c),
(20,112,o),
(152,-14,o),
(338,-14,c)
);
},
{
closed = 1;
nodes = (
(263,134,o),
(208,196,o),
(208,287,c),
(208,373,o),
(265,431,o),
(338,431,c),
(417,431,o),
(470,368,o),
(470,283,c),
(470,197,o),
(415,134,o),
(339,134,c)
);
},
{
closed = 1;
nodes = (
(561,413,l),
(486,468,l),
(126,170,l),
(190,101,l)
);
}
);
width = 678;
}
);
},
{
glyphname = zero;
layers = (
{
layerId = m001;
shapes = (
{
closed = 1;
nodes = (
(428,-13,o),
(530,113,o),
(530,289,c),
(530,456,o),
(430,579,o),
(286,579,c),
(148,579,o),
(40,465,o),
(40,288,c),
(40,110,o),
(145,-13,o),
(286,-13,c)
);
},
{
closed = 1;
nodes = (
(175,28,o),
(91,134,o),
(91,291,c),
(91,442,o),
(178,538,o),
(286,538,c),
(397,538,o),
(479,435,o),
(479,286,c),
(479,137,o),
(400,28,o),
(286,28,c)
);
}
);
width = 570;
},
{
layerId = m003;
shapes = (
{
closed = 1;
nodes = (
(523,-14,o),
(658,109,o),
(658,286,c),
(658,455,o),
(527,579,o),
(339,579,c),
(154,579,o),
(20,458,o),
(20,284,c),
(20,112,o),
(152,-14,o),
(338,-14,c)
);
},
{
closed = 1;
nodes = (
(263,134,o),
(208,196,o),
(208,287,c),
(208,373,o),
(265,431,o),
(338,431,c),
(417,431,o),
(470,368,o),
(470,283,c),
(470,197,o),
(415,134,o),
(339,134,c)
);
}
);
width = 678;
}
);
unicode = 48;
},
{
glyphname = one;
layers = (
{
layerId = m001;
shapes = (
{
closed = 1;
nodes = (
(220,566,l),
(185,566,l),
(10,481,l),
(28,445,l),
(171,508,l),
(171,0,l),
(220,0,l)
);
}
);
width = 300;
},
{
layerId = m003;
shapes = (
{
closed = 1;
nodes = (
(379,566,l),
(258,566,l),
(10,459,l),
(81,313,l),
(197,363,l),
(197,0,l),
(379,0,l)
);
}
);
width = 439;
}
);
unicode = 49;
},
{
glyphname = two;
layers = (
{
layerId = m001;
shapes = (
{
closed = 1;
nodes = (
(442,39,l),
(75,39,l),
(270,196,l),
(370,276,o),
(419,344,o),
(419,418,c),
(419,512,o),
(334,579,o),
(219,579,c),
(136,579,o),
(78,551,o),
(38,527,c),
(60,493,l),
(93,511,o),
(145,539,o),
(217,539,c),
(303,539,o),
(367,489,o),
(367,417,c),
(367,353,o),
(340,314,o),
(250,238,c),
(25,50,l),
(25,0,l),
(450,0,l)
);
}
);
width = 470;
},
{
layerId = m003;
shapes = (
{
closed = 1;
nodes = (
(465,143,l),
(283,143,l),
(344,195,l),
(405,247,o),
(470,307,o),
(470,403,c),
(470,527,o),
(378,579,o),
(246,579,c),
(161,579,o),
(78,551,o),
(38,527,c),
(61,379,l),
(94,397,o),
(163,430,o),
(225,430,c),
(273,430,o),
(308,417,o),
(308,382,c),
(308,356,o),
(286,332,o),
(258,308,c),
(25,106,l),
(25,0,l),
(477,0,l)
);
}
);
width = 497;
}
);
unicode = 50;
},
{
glyphname = three;
layers = (
{
layerId = m001;
shapes = (
{
closed = 1;
nodes = (
(329,-76,o),
(402,11,o),
(402,106,c),
(402,187,o),
(352,252,o),
(276,268,c),
(340,288,o),
(390,346,o),
(390,417,c),
(390,498,o),
(333,579,o),
(205,579,c),
(129,579,o),
(67,556,o),
(11,520,c),
(42,489,l),
(76,512,o),
(132,538,o),
(202,538,c),
(290,538,o),
(339,473,o),
(339,416,c),
(339,317,o),
(241,286,o),
(173,286,c),
(126,286,l),
(136,247,l),
(218,247,l),
(287,247,o),
(351,200,o),
(351,104,c),
(351,22,o),
(271,-35,o),
(193,-35,c),
(124,-35,o),
(83,-20,o),
(33,10,c),
(0,-24,l),
(41,-47,o),
(111,-76,o),
(190,-76,c)
);
}
);
width = 447;
},
{
layerId = m003;
shapes = (
{
closed = 1;
nodes = (
(406,-78,o),
(511,5,o),
(511,121,c),
(511,181,o),
(472,245,o),
(425,272,c),
(462,292,o),
(500,352,o),
(500,402,c),
(500,509,o),
(401,579,o),
(255,579,c),
(178,579,o),
(93,562,o),
(21,505,c),
(108,382,l),
(157,416,o),
(202,431,o),
(237,431,c),
(290,431,o),
(312,411,o),
(312,386,c),
(312,353,o),
(276,330,o),
(218,330,c),
(136,330,l),
(151,187,l),
(254,187,l),
(291,187,o),
(323,167,o),
(323,126,c),
(323,94,o),
(293,69,o),
(244,69,c),
(195,69,o),
(151,85,o),
(97,119,c),
(0,-2,l),
(81,-54,o),
(174,-78,o),
(243,-78,c)
);
}
);
width = 536;
}
);
unicode = 51;
},
{
glyphname = four;
layers = (
{
layerId = m001;
shapes = (
{
closed = 1;
nodes = (
(375,74,l),
(484,74,l),
(492,113,l),
(375,113,l),
(375,571,l),
(347,571,l),
(10,125,l),
(19,74,l),
(326,74,l),
(326,-69,l),
(375,-69,l)
);
},
{
closed = 1;
nodes = (
(60,113,l),
(326,470,l),
(326,113,l)
);
}
);
width = 512;
},
{
layerId = m003;
shapes = (
{
closed = 1;
nodes = (
(491,54,l),
(582,54,l),
(591,197,l),
(491,197,l),
(491,571,l),
(355,571,l),
(10,187,l),
(31,54,l),
(309,54,l),
(309,-63,l),
(491,-63,l)
);
},
{
closed = 1;
nodes = (
(224,197,l),
(309,297,l),
(309,197,l)
);
}
);
width = 611;
}
);
unicode = 52;
},
{
glyphname = five;
layers = (
{
layerId = m001;
shapes = (
{
closed = 1;
nodes = (
(378,-76,o),
(451,25,o),
(451,130,c),
(451,236,o),
(392,330,o),
(243,330,c),
(211,330,o),
(167,317,o),
(129,289,c),
(140,527,l),
(409,527,l),
(412,566,l),
(95,566,l),
(80,230,l),
(116,230,l),
(141,258,o),
(191,289,o),
(247,289,c),
(340,289,o),
(399,226,o),
(399,130,c),
(399,40,o),
(343,-35,o),
(224,-35,c),
(163,-35,o),
(111,-18,o),
(64,10,c),
(40,-26,l),
(87,-49,o),
(147,-76,o),
(220,-76,c)
);
}
);
width = 491;
},
{
layerId = m003;
shapes = (
{
closed = 1;
nodes = (
(417,-79,o),
(513,18,o),
(513,154,c),
(513,265,o),
(446,374,o),
(305,374,c),
(278,374,o),
(260,368,o),
(243,358,c),
(243,423,l),
(466,423,l),
(484,566,l),
(90,566,l),
(71,180,l),
(224,180,l),
(231,199,o),
(252,223,o),
(285,223,c),
(320,223,o),
(349,200,o),
(349,154,c),
(349,103,o),
(308,76,o),
(262,76,c),
(216,76,o),
(175,90,o),
(111,126,c),
(20,-3,l),
(94,-53,o),
(187,-79,o),
(259,-79,c)
);
}
);
width = 533;
}
);
unicode = 53;
},
{
glyphname = six;
layers = (
{
layerId = m001;
shapes = (
{
closed = 1;
nodes = (
(382,-13,o),
(452,96,o),
(452,190,c),
(452,286,o),
(388,387,o),
(253,387,c),
(156,387,o),
(101,330,o),
(65,285,c),
(82,248,l),
(110,293,o),
(176,346,o),
(253,346,c),
(355,346,o),
(401,265,o),
(401,185,c),
(401,115,o),
(352,28,o),
(252,28,c),
(153,28,o),
(87,105,o),
(87,270,c),
(87,461,o),
(258,587,o),
(393,594,c),
(375,634,l),
(220,615,o),
(40,490,o),
(40,260,c),
(40,73,o),
(135,-13,o),
(254,-13,c)
);
}
);
width = 492;
},
{
layerId = m003;
shapes = (
{
closed = 1;
nodes = (
(472,-13,o),
(565,76,o),
(565,195,c),
(565,314,o),
(465,398,o),
(319,398,c),
(247,398,o),
(170,348,o),
(114,294,c),
(139,181,l),
(185,230,o),
(237,280,o),
(295,280,c),
(343,280,o),
(377,251,o),
(377,209,c),
(377,166,o),
(343,134,o),
(307,134,c),
(247,134,o),
(211,186,o),
(211,261,c),
(211,444,o),
(383,452,o),
(498,467,c),
(480,634,l),
(330,625,o),
(20,561,o),
(20,252,c),
(20,98,o),
(138,-13,o),
(312,-13,c)
);
}
);
width = 585;
}
);
unicode = 54;
},
{
glyphname = seven;
layers = (
{
layerId = m001;
shapes = (
{
closed = 1;
nodes = (
(409,537,l),
(387,566,l),
(10,566,l),
(18,527,l),
(360,527,l),
(123,-49,l),
(169,-69,l)
);
}
);
width = 429;
},
{
layerId = m003;
shapes = (
{
closed = 1;
nodes = (
(498,494,l),
(464,566,l),
(10,566,l),
(27,423,l),
(299,423,l),
(108,-30,l),
(289,-77,l)
);
}
);
width = 518;
}
);
unicode = 55;
},
{
glyphname = eight;
layers = (
{
layerId = m001;
shapes = (
{
closed = 1;
nodes = (
(397,-13,o),
(461,75,o),
(461,169,c),
(461,255,o),
(395,323,o),
(325,339,c),
(381,364,o),
(433,416,o),
(433,481,c),
(433,558,o),
(383,643,o),
(251,643,c),
(121,643,o),
(68,565,o),
(68,481,c),
(68,410,o),
(120,362,o),
(177,339,c),
(102,323,o),
(40,243,o),
(40,169,c),
(40,72,o),
(105,-13,o),
(251,-13,c)
);
},
{
closed = 1;
nodes = (
(160,373,o),
(118,432,o),
(118,484,c),
(118,542,o),
(157,602,o),
(248,602,c),
(346,602,o),
(384,542,o),
(384,484,c),
(384,435,o),
(339,373,o),
(251,360,c)
);
},
{
closed = 1;
nodes = (
(162,28,o),
(91,83,o),
(91,162,c),
(91,234,o),
(138,302,o),
(251,316,c),
(363,302,o),
(410,233,o),
(410,162,c),
(410,87,o),
(342,28,o),
(251,28,c)
);
}
);
width = 501;
},
{
layerId = m003;
shapes = (
{
closed = 1;
nodes = (
(468,-13,o),
(552,83,o),
(552,197,c),
(552,255,o),
(515,308,o),
(470,340,c),
(502,366,o),
(530,410,o),
(530,457,c),
(530,581,o),
(406,643,o),
(287,643,c),
(153,643,o),
(42,572,o),
(42,457,c),
(42,410,o),
(72,368,o),
(103,341,c),
(62,311,o),
(20,257,o),
(20,197,c),
(20,57,o),
(135,-13,o),
(287,-13,c)
);
},
{
closed = 1;
nodes = (
(247,395,o),
(231,423,o),
(231,446,c),
(231,466,o),
(249,494,o),
(285,494,c),
(328,494,o),
(341,464,o),
(341,447,c),
(341,425,o),
(325,395,o),
(287,389,c)
);
},
{
closed = 1;
nodes = (
(246,135,o),
(208,168,o),
(208,205,c),
(208,232,o),
(230,273,o),
(287,283,c),
(340,273,o),
(365,232,o),
(365,205,c),
(365,169,o),
(327,135,o),
(286,135,c)
);
}
);
width = 572;
}
);
unicode = 56;
},
{
glyphname = nine;
layers = (
{
layerId = m001;
shapes = (
{
closed = 1;
nodes = (
(271,-50,o),
(452,74,o),
(452,305,c),
(452,490,o),
(359,578,o),
(238,578,c),
(112,578,o),
(40,471,o),
(40,375,c),
(40,278,o),
(105,178,o),
(239,178,c),
(341,178,o),
(401,246,o),
(427,280,c),
(410,317,l),
(388,281,o),
(324,219,o),
(239,219,c),
(141,219,o),
(91,296,o),
(91,380,c),
(91,449,o),
(139,537,o),
(240,537,c),
(348,537,o),
(405,448,o),
(405,295,c),
(405,93,o),
(221,-23,o),
(99,-29,c),
(117,-69,l)
);
}
);
width = 492;
},
{
layerId = m003;
shapes = (
{
closed = 1;
nodes = (
(268,-58,o),
(565,7,o),
(565,314,c),
(565,470,o),
(447,579,o),
(273,579,c),
(116,579,o),
(20,493,o),
(20,371,c),
(20,249,o),
(125,168,o),
(266,168,c),
(335,168,o),
(411,214,o),
(471,272,c),
(446,385,l),
(402,337,o),
(349,286,o),
(290,286,c),
(244,286,o),
(208,314,o),
(208,357,c),
(208,402,o),
(244,432,o),
(278,432,c),
(338,432,o),
(374,379,o),
(374,305,c),
(374,113,o),
(180,114,o),
(87,99,c),
(105,-68,l)
);
}
);
width = 585;
}
);
unicode = 57;
},
{
glyphname = grave;
layers = (
{
layerId = m001;
shapes = (
{
closed = 1;
nodes = (
(127,600,l),
(71,742,l),
(10,742,l),
(95,589,l)
);
}
);
width = 137;
},
{
layerId = m003;
shapes = (
{
closed = 1;
nodes = (
(256,610,l),
(190,787,l),
(10,787,l),
(124,588,l)
);
}
);
width = 266;
}
);
unicode = 96;
},
{
glyphname = dieresis;
layers = (
{
layerId = m001;
shapes = (
{
closed = 1;
nodes = (
(66,618,o),
(84,633,o),
(84,655,c),
(84,677,o),
(66,691,o),
(47,691,c),
(23,691,o),
(10,675,o),
(10,655,c),
(10,635,o),
(23,618,o),
(47,618,c)
);
},
{
closed = 1;
nodes = (
(225,618,o),
(243,633,o),
(243,655,c),
(243,677,o),
(225,691,o),
(206,691,c),
(182,691,o),
(169,675,o),
(169,655,c),
(169,635,o),
(182,618,o),
(206,618,c)
);
}
);
width = 253;
},
{
layerId = m003;
shapes = (
{
closed = 1;
nodes = (
(141,603,o),
(177,639,o),
(177,686,c),
(177,731,o),
(142,769,o),
(93,769,c),
(50,769,o),
(10,733,o),
(10,686,c),
(10,638,o),
(50,603,o),
(93,603,c)
);
},
{
closed = 1;
nodes = (
(352,603,o),
(388,639,o),
(388,686,c),
(388,731,o),
(353,769,o),
(304,769,c),
(261,769,o),
(221,733,o),
(221,686,c),
(221,638,o),
(261,603,o),
(304,603,c)
);
}
);
width = 398;
}
);
unicode = 168;
},
{
glyphname = macron;
layers = (
{
layerId = m001;
shapes = (
{
closed = 1;
nodes = (
(245,677,l),
(10,677,l),
(10,640,l),
(251,640,l)
);
}
);
width = 261;
},
{
layerId = m003;
shapes = (
{
closed = 1;
nodes = (
(290,756,l),
(10,756,l),
(10,613,l),
(300,613,l)
);
}
);
width = 310;
}
);
unicode = 175;
},
{
glyphname = acute;
layers = (
{
layerId = m001;
shapes = (
{
closed = 1;
nodes = (
(127,742,l),
(66,742,l),
(10,600,l),
(42,589,l)
);
}
);
width = 137;
},
{
layerId = m003;
shapes = (
{
closed = 1;
nodes = (
(256,787,l),
(76,787,l),
(10,610,l),
(142,588,l)
);
}
);
width = 266;
}
);
unicode = 180;
},
{
glyphname = circumflexmod;
layers = (
{
layerId = m001;
shapes = (
{
closed = 1;
nodes = (
(261,603,l),
(156,742,l),
(116,742,l),
(10,599,l),
(51,589,l),
(137,707,l),
(220,589,l)
);
}
);
width = 271;
},
{
layerId = m003;
shapes = (
{
closed = 1;
nodes = (
(465,608,l),
(291,787,l),
(184,787,l),
(10,608,l),
(187,588,l),
(240,650,l),
(292,588,l)
);
}
);
width = 475;
}
);
unicode = 710;
},
{
glyphname = caronmod;
layers = (
{
layerId = m001;
shapes = (
{
closed = 1;
nodes = (
(261,728,l),
(220,742,l),
(137,624,l),
(51,742,l),
(10,732,l),
(116,589,l),
(156,589,l)
);
}
);
width = 271;
},
{
layerId = m003;
shapes = (
{
closed = 1;
nodes = (
(465,767,l),
(292,787,l),
(240,725,l),
(187,787,l),
(10,767,l),
(184,588,l),
(291,588,l)
);
}
);
width = 475;
}
);
unicode = 711;
},
{
glyphname = brevemod;
layers = (
{
layerId = m001;
shapes = (
{
closed = 1;
nodes = (
(230,601,o),
(270,667,o),
(270,731,c),
(229,731,l),
(229,685,o),
(200,640,o),
(140,640,c),
(80,640,o),
(51,688,o),
(51,731,c),
(10,731,l),
(10,668,o),
(51,601,o),
(140,601,c)
);
}
);
width = 280;
},
{
layerId = m003;
shapes = (
{
closed = 1;
nodes = (
(308,590,o),
(370,671,o),
(370,777,c),
(241,777,l),
(241,745,o),
(224,721,o),
(190,721,c),
(156,721,o),
(139,745,o),
(139,777,c),
(10,777,l),
(10,655,o),
(88,590,o),
(190,588,c)
);
}
);
width = 380;
}
);
unicode = 728;
},
{
glyphname = dotaccentmod;
layers = (
{
layerId = m001;
shapes = (
{
closed = 1;
nodes = (
(69,618,o),
(87,634,o),
(87,656,c),
(87,678,o),
(69,694,o),
(48,694,c),
(24,694,o),
(10,676,o),
(10,656,c),
(10,636,o),
(24,618,o),
(48,618,c)
);
}
);
width = 97;
},
{
layerId = m003;
shapes = (
{
closed = 1;
nodes = (
(154,594,o),
(192,631,o),
(192,686,c),
(192,733,o),
(159,778,o),
(102,778,c),
(51,778,o),
(10,737,o),
(10,686,c),
(10,630,o),
(54,594,o),
(102,594,c)
);
}
);
width = 202;
}
);
unicode = 729;
},
{
glyphname = ringmod;
layers = (
{
layerId = m001;
shapes = (
{
closed = 1;
nodes = (
(147,594,o),
(187,628,o),
(187,675,c),
(187,724,o),
(147,759,o),
(99,759,c),
(52,759,o),
(10,723,o),
(10,675,c),
(10,626,o),
(54,594,o),
(99,594,c)
);
},
{
closed = 1;
nodes = (
(69,624,o),
(49,646,o),
(49,675,c),
(49,706,o),
(70,728,o),
(99,728,c),
(130,728,o),
(148,704,o),
(148,675,c),
(148,647,o),
(130,624,o),
(99,624,c)
);
}
);
width = 197;
},
{
layerId = m003;
shapes = (
{
closed = 1;
nodes = (
(195,594,o),
(256,636,o),
(256,709,c),
(256,776,o),
(198,826,o),
(133,826,c),
(66,826,o),
(10,775,o),
(10,709,c),
(10,636,o),
(71,594,o),
(133,594,c)
);
},
{
closed = 1;
nodes = (
(119,679,o),
(105,693,o),
(105,709,c),
(105,726,o),
(120,737,o),
(135,737,c),
(152,737,o),
(163,724,o),
(163,709,c),
(163,694,o),
(152,679,o),
(135,679,c)
);
}
);
width = 266;
}
);
unicode = 730;
},
{
glyphname = tildemod;
layers = (
{
layerId = m001;
shapes = (
{
closed = 1;
nodes = (
(253,608,o),
(289,638,o),
(289,699,c),
(251,699,l),
(248,670,o),
(236,646,o),
(206,646,c),
(161,646,o),
(164,703,o),
(93,703,c),
(57,703,o),
(10,685,o),
(10,612,c),
(49,612,l),
(52,642,o),
(64,665,o),
(94,665,c),
(133,665,o),
(158,608,o),
(206,608,c)
);
}
);
width = 299;
},
{
layerId = m003;
shapes = (
{
closed = 1;
nodes = (
(323,595,o),
(381,635,o),
(381,755,c),
(259,755,l),
(259,737,o),
(247,726,o),
(237,726,c),
(200,726,o),
(182,760,o),
(134,760,c),
(87,760,o),
(10,734,o),
(10,600,c),
(136,600,l),
(136,611,o),
(147,629,o),
(163,629,c),
(199,629,o),
(212,595,o),
(261,595,c)
);
}
);
width = 391;
}
);
unicode = 732;
},
{
glyphname = doubleacutemod;
layers = (
{
layerId = m001;
shapes = (
{
closed = 1;
nodes = (
(127,742,l),
(66,742,l),
(10,600,l),
(42,589,l)
);
},
{
closed = 1;
nodes = (
(255,742,l),
(194,742,l),
(138,600,l),
(170,589,l)
);
}
);
width = 265;
},
{
layerId = m003;
shapes = (
{
closed = 1;
nodes = (
(256,787,l),
(76,787,l),
(10,610,l),
(142,588,l)
);
},
{
closed = 1;
nodes = (
(503,787,l),
(323,787,l),
(257,610,l),
(389,588,l)
);
}
);
width = 513;
}
);
unicode = 733;
},
{
glyphname = ogonekmod;
layers = (
{
layerId = m001;
shapes = (
{
closed = 1;
nodes = (
(150,-207,o),
(179,-193,o),
(195,-177,c),
(173,-150,l),
(156,-164,o),
(138,-171,o),
(118,-171,c),
(94,-171,o),
(56,-154,o),
(56,-112,c),
(56,-74,o),
(71,-34,o),
(109,0,c),
(72,4,l),
(36,-26,o),
(10,-73,o),
(10,-111,c),
(10,-167,o),
(54,-207,o),
(115,-207,c)
);
}
);
width = 205;
},
{
layerId = m003;
shapes = (
{
closed = 1;
nodes = (
(215,-240,o),
(260,-218,o),
(281,-193,c),
(220,-91,l),
(203,-107,o),
(191,-111,o),
(176,-111,c),
(157,-111,o),
(147,-94,o),
(147,-79,c),
(147,-53,o),
(168,-9,o),
(179,5,c),
(35,5,l),
(23,-19,o),
(10,-65,o),
(10,-93,c),
(10,-164,o),
(57,-240,o),
(158,-240,c)
);
}
);
width = 291;
}
);
unicode = 731;
},
{
glyphname = cedilla;
layers = (
{
layerId = m001;
shapes = (
{
closed = 1;
nodes = (
(160,-221,o),
(196,-182,o),
(196,-136,c),
(196,-101,o),
(167,-61,o),
(105,-51,c),
(130,13,l),
(89,13,l),
(55,-77,l),
(121,-77,o),
(154,-112,o),
(154,-138,c),
(154,-161,o),
(128,-185,o),
(84,-185,c),
(62,-185,o),
(36,-176,o),
(25,-171,c),
(10,-202,l),
(28,-213,o),
(64,-221,o),
(87,-221,c)
);
}
);
width = 206;
},
{
layerId = m003;
shapes = (
{
closed = 1;
nodes = (
(196,-262,o),
(267,-220,o),
(267,-142,c),
(267,-115,o),
(253,-56,o),
(199,-39,c),
(219,13,l),
(93,13,l),
(50,-94,l),
(86,-98,o),
(135,-105,o),
(135,-132,c),
(135,-145,o),
(120,-150,o),
(104,-150,c),
(85,-150,o),
(62,-141,o),
(48,-135,c),
(10,-221,l),
(42,-245,o),
(85,-262,o),
(126,-262,c)
);
}
);
width = 277;
}
);
unicode = 184;
},
{
glyphname = commaaccent;
layers = (
{
layerId = m001;
shapes = (
{
closed = 1;
nodes = (
(82,-177,o),
(112,-125,o),
(112,-64,c),
(112,-45,o),
(99,-21,o),
(73,-21,c),
(47,-21,o),
(35,-41,o),
(35,-60,c),
(35,-73,o),
(46,-98,o),
(71,-98,c),
(70,-135,o),
(44,-162,o),
(10,-180,c),
(26,-205,l)
);
}
);
width = 0;
},
{
layerId = m003;
shapes = (
{
closed = 1;
nodes = (
(134,-293,o),
(203,-212,o),
(203,-133,c),
(203,-64,o),
(158,-26,o),
(111,-26,c),
(56,-26,o),
(19,-75,o),
(19,-118,c),
(19,-153,o),
(40,-182,o),
(62,-196,c),
(56,-215,o),
(27,-237,o),
(10,-247,c),
(46,-327,l)
);
}
);
width = 0;
}
);
unicode = 63171;
},
{
glyphname = grave.case;
layers = (
{
layerId = m001;
shapes = (
{
closed = 1;
nodes = (
(127,750,l),
(71,892,l),
(10,892,l),
(95,739,l)
);
}
);
width = 137;
},
{
layerId = m003;
shapes = (
{
closed = 1;
nodes = (
(256,755,l),
(190,932,l),
(10,932,l),
(124,733,l)
);
}
);
width = 266;
}
);
},
{
glyphname = dieresis.case;
layers = (
{
layerId = m001;
shapes = (
{
closed = 1;
nodes = (
(66,768,o),
(84,783,o),
(84,805,c),
(84,827,o),
(66,841,o),
(47,841,c),
(23,841,o),
(10,825,o),
(10,805,c),
(10,785,o),
(23,768,o),
(47,768,c)
);
},
{
closed = 1;
nodes = (
(225,768,o),
(243,783,o),
(243,805,c),
(243,827,o),
(225,841,o),
(206,841,c),
(182,841,o),
(169,825,o),
(169,805,c),
(169,785,o),
(182,768,o),
(206,768,c)
);
}
);
width = 253;
},
{
layerId = m003;
shapes = (
{
closed = 1;
nodes = (
(141,753,o),
(177,789,o),
(177,836,c),
(177,881,o),
(142,919,o),
(93,919,c),
(50,919,o),
(10,883,o),
(10,836,c),
(10,788,o),
(50,753,o),
(93,753,c)
);
},
{
closed = 1;
nodes = (
(352,753,o),
(388,789,o),
(388,836,c),
(388,881,o),
(353,919,o),
(304,919,c),
(261,919,o),
(221,883,o),
(221,836,c),
(221,788,o),
(261,753,o),
(304,753,c)
);
}
);
width = 398;
}
);
},
{
glyphname = macron.case;
layers = (
{
layerId = m001;
shapes = (
{
closed = 1;
nodes = (
(246,827,l),
(10,827,l),
(10,790,l),
(251,790,l)
);
}
);
width = 261;
},
{
layerId = m003;
shapes = (
{
closed = 1;
nodes = (
(290,906,l),
(10,906,l),
(10,763,l),
(300,763,l)
);
}
);
width = 310;
}
);
},
{
glyphname = acute.case;
layers = (
{
layerId = m001;
shapes = (
{
closed = 1;
nodes = (
(127,892,l),
(66,892,l),
(10,750,l),
(42,739,l)
);
}
);
width = 137;
},
{
layerId = m003;
shapes = (
{
closed = 1;
nodes = (
(256,932,l),
(76,932,l),
(10,755,l),
(142,733,l)
);
}
);
width = 266;
}
);
},
{
glyphname = circumflexmod.case;
layers = (
{
layerId = m001;
shapes = (
{
closed = 1;
nodes = (
(261,754,l),
(156,893,l),
(116,893,l),
(10,750,l),
(51,740,l),
(137,858,l),
(220,740,l)
);
}
);
width = 271;
},
{
layerId = m003;
shapes = (
{
closed = 1;
nodes = (
(465,759,l),
(291,938,l),
(184,938,l),
(10,759,l),
(187,739,l),
(240,801,l),
(292,739,l)
);
}
);
width = 475;
}
);
},
{
glyphname = caronmod.case;
layers = (
{
layerId = m001;
shapes = (
{
closed = 1;
nodes = (
(261,878,l),
(220,892,l),
(137,774,l),
(51,892,l),
(10,882,l),
(116,739,l),
(156,739,l)
);
}
);
width = 271;
},
{
layerId = m003;
shapes = (
{
closed = 1;
nodes = (
(465,918,l),
(292,938,l),
(240,876,l),
(187,938,l),
(10,918,l),
(184,739,l),
(291,739,l)
);
}
);
width = 475;
}
);
},
{
glyphname = brevemod.case;
layers = (
{
layerId = m001;
shapes = (
{
closed = 1;
nodes = (
(230,751,o),
(270,817,o),
(270,881,c),
(229,881,l),
(229,835,o),
(200,790,o),
(140,790,c),
(80,790,o),
(51,838,o),
(51,881,c),
(10,881,l),
(10,818,o),
(51,751,o),
(140,751,c)
);
}
);
width = 280;
},
{
layerId = m003;
shapes = (
{
closed = 1;
nodes = (
(308,741,o),
(370,822,o),
(370,928,c),
(241,928,l),
(241,896,o),
(224,872,o),
(190,872,c),
(156,872,o),
(139,896,o),
(139,928,c),
(10,928,l),
(10,806,o),
(88,741,o),
(190,739,c)
);
}
);
width = 380;
}
);
},
{
glyphname = dotaccentmod.case;
layers = (
{
layerId = m001;
shapes = (
{
closed = 1;
nodes = (
(69,768,o),
(87,784,o),
(87,806,c),
(87,828,o),
(69,844,o),
(48,844,c),
(24,844,o),
(10,826,o),
(10,806,c),
(10,786,o),
(24,768,o),
(48,768,c)
);
}
);
width = 97;
},
{
layerId = m003;
shapes = (
{
closed = 1;
nodes = (
(154,744,o),
(192,781,o),
(192,836,c),
(192,883,o),
(159,928,o),
(102,928,c),
(51,928,o),
(10,887,o),
(10,836,c),
(10,780,o),
(54,744,o),
(102,744,c)
);
}
);
width = 202;
}
);
},
{
glyphname = ringmod.case;
layers = (
{
layerId = m001;
shapes = (
{
closed = 1;
nodes = (
(147,744,o),
(187,778,o),
(187,825,c),
(187,874,o),
(147,909,o),
(99,909,c),
(52,909,o),
(10,873,o),
(10,825,c),
(10,776,o),
(54,744,o),
(99,744,c)
);
},
{
closed = 1;
nodes = (
(69,774,o),
(49,796,o),
(49,825,c),
(49,856,o),
(70,878,o),
(99,878,c),
(130,878,o),
(148,854,o),
(148,825,c),
(148,797,o),
(130,774,o),
(99,774,c)
);
}
);
width = 197;
},
{
layerId = m003;
shapes = (
{
closed = 1;
nodes = (
(195,744,o),
(256,786,o),
(256,859,c),
(256,926,o),
(198,976,o),
(133,976,c),
(66,976,o),
(10,925,o),
(10,859,c),
(10,786,o),
(71,744,o),
(133,744,c)
);
},
{
closed = 1;
nodes = (
(119,829,o),
(105,843,o),
(105,859,c),
(105,876,o),
(120,887,o),
(135,887,c),
(152,887,o),
(163,874,o),
(163,859,c),
(163,844,o),
(152,829,o),
(135,829,c)
);
}
);
width = 266;
}
);
},
{
glyphname = tildemod.case;
layers = (
{
layerId = m001;
shapes = (
{
closed = 1;
nodes = (
(253,758,o),
(289,788,o),
(289,849,c),
(251,849,l),
(248,820,o),
(236,796,o),
(206,796,c),
(161,796,o),
(164,853,o),
(93,853,c),
(57,853,o),
(10,835,o),
(10,762,c),
(49,762,l),
(52,792,o),
(64,815,o),
(94,815,c),
(133,815,o),
(158,758,o),
(206,758,c)
);
}
);
width = 299;
},
{
layerId = m003;
shapes = (
{
closed = 1;
nodes = (
(328,745,o),
(381,789,o),
(381,905,c),
(259,905,l),
(259,887,o),
(247,876,o),
(237,876,c),
(197,876,o),
(183,910,o),
(131,910,c),
(89,910,o),
(10,890,o),
(10,750,c),
(136,750,l),
(136,761,o),
(147,779,o),
(164,779,c),
(190,779,o),
(220,745,o),
(262,745,c)
);
}
);
width = 391;
}
);
},
{
glyphname = doubleacutemod.case;
layers = (
{
layerId = m001;
shapes = (
{
closed = 1;
nodes = (
(127,892,l),
(66,892,l),
(10,750,l),
(42,739,l)
);
},
{
closed = 1;
nodes = (
(255,892,l),
(194,892,l),
(138,750,l),
(170,739,l)
);
}
);
width = 265;
},
{
layerId = m003;
shapes = (
{
closed = 1;
nodes = (
(256,932,l),
(76,932,l),
(10,755,l),
(142,733,l)
);
},
{
closed = 1;
nodes = (
(503,932,l),
(323,932,l),
(257,755,l),
(389,733,l)
);
}
);
width = 513;
}
);
},
{
glyphname = Thorn;
layers = (
{
layerId = m001;
shapes = (
{
closed = 1;
nodes = (
(149,184,l),
(252,184,l),
(387,184,o),
(508,244,o),
(508,395,c),
(508,542,o),
(408,600,o),
(263,600,c),
(149,600,l),
(149,680,l),
(100,680,l),
(100,0,l),
(149,0,l)
);
},
{
closed = 1;
nodes = (
(149,223,l),
(149,560,l),
(275,560,l),
(379,560,o),
(458,516,o),
(458,394,c),
(458,275,o),
(365,223,o),
(264,223,c)
);
}
);
width = 548;
},
{
layerId = m003;
shapes = (
{
closed = 1;
nodes = (
(262,118,l),
(358,118,l),
(497,118,o),
(646,186,o),
(646,355,c),
(646,538,o),
(494,600,o),
(366,600,c),
(262,600,l),
(262,680,l),
(80,680,l),
(80,0,l),
(262,0,l)
);
},
{
closed = 1;
nodes = (
(262,261,l),
(262,457,l),
(360,457,l),
(424,457,o),
(458,412,o),
(458,355,c),
(458,306,o),
(422,261,o),
(362,261,c)
);
}
);
width = 666;
}
);
unicode = 222;
},
{
glyphname = Eth;
layers = (
{
layerId = m001;
shapes = (
{
closed = 1;
nodes = (
(258,353,l),
(10,353,l),
(20,314,l),
(268,314,l)
);
},
{
closed = 1;
nodes = (
(526,0,o),
(612,163,o),
(612,344,c),
(612,538,o),
(529,680,o),
(324,680,c),
(100,680,l),
(100,0,l),
(321,0,l)
);
},
{
closed = 1;
nodes = (
(149,39,l),
(149,641,l),
(332,641,l),
(494,641,o),
(561,495,o),
(561,343,c),
(561,171,o),
(469,39,o),
(322,39,c)
);
}
);
width = 662;
},
{
layerId = m003;
shapes = (
{
closed = 1;
nodes = (
(369,413,l),
(0,413,l),
(17,270,l),
(386,270,l)
);
},
{
closed = 1;
nodes = (
(577,0,o),
(709,133,o),
(709,344,c),
(709,542,o),
(595,680,o),
(388,680,c),
(80,680,l),
(80,0,l),
(384,0,l)
);
},
{
closed = 1;
nodes = (
(262,143,l),
(262,537,l),
(379,537,l),
(470,537,o),
(521,457,o),
(521,344,c),
(521,205,o),
(452,143,o),
(372,143,c)
);
}
);
width = 739;
}
);
unicode = 208;
},
{
glyphname = AE;
layers = (
{
layerId = m001;
shapes = (
{
closed = 1;
nodes = (
(190,213,l),
(434,213,l),
(434,0,l),
(809,0,l),
(803,39,l),
(483,39,l),
(483,329,l),
(728,329,l),
(723,368,l),
(483,368,l),
(483,641,l),
(786,641,l),
(781,680,l),
(426,680,l),
(10,5,l),
(60,-5,l)
);
},
{
closed = 1;
nodes = (
(214,252,l),
(434,611,l),
(434,252,l)
);
}
);
width = 829;
},
{
layerId = m003;
shapes = (
{
closed = 1;
nodes = (
(277,128,l),
(469,128,l),
(469,0,l),
(967,0,l),
(950,143,l),
(651,143,l),
(651,270,l),
(877,270,l),
(860,413,l),
(651,413,l),
(651,537,l),
(937,537,l),
(920,680,l),
(469,680,l),
(10,13,l),
(185,-13,l)
);
},
{
closed = 1;
nodes = (
(378,271,l),
(469,399,l),
(469,271,l)
);
}
);
width = 987;
}
);
unicode = 198;
},
{
glyphname = Dcroat;
layers = (
{
layerId = m001;
shapes = (
{
closed = 1;
nodes = (
(258,353,l),
(10,353,l),
(20,314,l),
(268,314,l)
);
},
{
closed = 1;
nodes = (
(526,0,o),
(612,163,o),
(612,344,c),
(612,538,o),
(529,680,o),
(324,680,c),
(100,680,l),
(100,0,l),
(321,0,l)
);
},
{
closed = 1;
nodes = (
(149,39,l),
(149,641,l),
(332,641,l),
(494,641,o),
(561,495,o),
(561,343,c),
(561,171,o),
(469,39,o),
(322,39,c)
);
}
);
width = 662;
},
{
layerId = m003;
shapes = (
{
closed = 1;
nodes = (
(369,413,l),
(0,413,l),
(17,270,l),
(386,270,l)
);
},
{
closed = 1;
nodes = (
(577,0,o),
(709,133,o),
(709,344,c),
(709,542,o),
(595,680,o),
(388,680,c),
(80,680,l),
(80,0,l),
(384,0,l)
);
},
{
closed = 1;
nodes = (
(262,143,l),
(262,537,l),
(379,537,l),
(470,537,o),
(521,457,o),
(521,344,c),
(521,205,o),
(452,143,o),
(372,143,c)
);
}
);
width = 739;
}
);
unicode = 272;
},
{
glyphname = Lslash;
layers = (
{
layerId = m001;
shapes = (
{
closed = 1;
nodes = (
(476,39,l),
(149,39,l),
(149,322,l),
(281,438,l),
(259,472,l),
(149,376,l),
(149,680,l),
(100,680,l),
(100,333,l),
(10,255,l),
(32,219,l),
(100,279,l),
(100,0,l),
(481,0,l)
);
}
);
width = 491;
},
{
layerId = m003;
shapes = (
{
closed = 1;
nodes = (
(551,143,l),
(262,143,l),
(262,291,l),
(467,414,l),
(394,547,l),
(262,466,l),
(262,680,l),
(80,680,l),
(80,355,l),
(0,306,l),
(56,167,l),
(80,181,l),
(80,0,l),
(568,0,l)
);
}
);
width = 578;
}
);
unicode = 321;
},
{
glyphname = OE;
layers = (
{
layerId = m001;
shapes = (
{
closed = 1;
nodes = (
(416,-14,o),
(489,4,o),
(523,23,c),
(499,59,l),
(460,42,o),
(417,29,o),
(349,29,c),
(185,29,o),
(105,187,o),
(105,337,c),
(105,543,o),
(226,651,o),
(358,651,c),
(421,651,o),
(460,640,o),
(503,621,c),
(523,657,l),
(487,683,o),
(400,694,o),
(360,694,c),
(150,694,o),
(50,519,o),
(50,336,c),
(50,157,o),
(140,-14,o),
(354,-14,c)
);
},
{
closed = 1;
nodes = (
(866,39,l),
(546,39,l),
(546,329,l),
(791,329,l),
(786,368,l),
(546,368,l),
(546,641,l),
(849,641,l),
(844,680,l),
(497,680,l),
(497,0,l),
(872,0,l)
);
}
);
width = 892;
},
{
layerId = m003;
shapes = (
{
closed = 1;
nodes = (
(453,-13,o),
(536,6,o),
(586,37,c),
(517,173,l),
(483,152,o),
(439,136,o),
(388,136,c),
(303,136,o),
(218,209,o),
(218,338,c),
(218,471,o),
(307,544,o),
(381,544,c),
(421,544,o),
(453,540,o),
(525,514,c),
(579,637,l),
(527,673,o),
(447,693,o),
(379,693,c),
(162,693,o),
(30,531,o),
(30,337,c),
(30,140,o),
(153,-13,o),
(383,-13,c)
);
},
{
closed = 1;
nodes = (
(995,143,l),
(696,143,l),
(696,270,l),
(922,270,l),
(905,413,l),
(696,413,l),
(696,537,l),
(982,537,l),
(965,680,l),
(514,680,l),
(514,0,l),
(1012,0,l)
);
}
);
width = 1032;
}
);
unicode = 338;
},
{
glyphname = Oslash;
layers = (
{
layerId = m001;
shapes = (
{
closed = 1;
nodes = (
(528,-14,o),
(657,134,o),
(657,345,c),
(657,549,o),
(534,696,o),
(357,696,c),
(181,696,o),
(50,550,o),
(50,337,c),
(50,135,o),
(173,-14,o),
(351,-14,c)
);
},
{
closed = 1;
nodes = (
(207,27,o),
(105,156,o),
(105,338,c),
(105,524,o),
(212,654,o),
(358,654,c),
(499,654,o),
(602,527,o),
(602,344,c),
(602,161,o),
(499,27,o),
(349,27,c)
);
},
{
closed = 1;
nodes = (
(504,629,l),
(456,642,l),
(207,58,l),
(251,37,l)
);
}
);
width = 707;
},
{
layerId = m003;
shapes = (
{
closed = 1;
nodes = (
(587,-14,o),
(733,129,o),
(733,344,c),
(733,542,o),
(601,694,o),
(381,694,c),
(178,694,o),
(30,551,o),
(30,337,c),
(30,157,o),
(148,-14,o),
(381,-14,c)
);
},
{
closed = 1;
nodes = (
(272,138,o),
(217,231,o),
(217,338,c),
(217,471,o),
(300,542,o),
(383,542,c),
(484,542,o),
(546,460,o),
(546,344,c),
(546,196,o),
(464,138,o),
(380,138,c)
);
},
{
closed = 1;
nodes = (
(540,542,l),
(421,596,l),
(233,140,l),
(341,77,l)
);
}
);
width = 763;
}
);
unicode = 216;
},
{
glyphname = germandbls;
layers = (
{
layerId = m001;
shapes = (
{
closed = 1;
nodes = (
(359,0,o),
(499,28,o),
(499,188,c),
(499,279,o),
(437,337,o),
(369,356,c),
(431,383,o),
(465,433,o),
(465,503,c),
(465,625,o),
(374,680,o),
(276,680,c),
(152,680,o),
(80,604,o),
(80,473,c),
(80,0,l),
(130,0,l),
(130,473,l),
(130,557,o),
(173,639,o),
(279,639,c),
(346,639,o),
(413,596,o),
(413,502,c),
(413,397,o),
(350,372,o),
(286,372,c),
(221,372,l),
(221,333,l),
(290,333,l),
(359,333,o),
(447,312,o),
(447,186,c),
(447,54,o),
(337,39,o),
(271,39,c),
(205,39,l),
(205,0,l),
(243,0,l)
);
}
);
width = 544;
},
{
layerId = m003;
shapes = (
{
closed = 1;
nodes = (
(535,0,o),
(630,79,o),
(630,200,c),
(630,271,o),
(585,343,o),
(529,364,c),
(580,399,o),
(596,439,o),
(596,496,c),
(596,626,o),
(480,702,o),
(346,702,c),
(151,702,o),
(60,588,o),
(60,452,c),
(60,0,l),
(242,0,l),
(242,457,l),
(242,520,o),
(287,549,o),
(329,549,c),
(384,549,o),
(414,516,o),
(414,481,c),
(414,440,o),
(377,416,o),
(345,416,c),
(300,416,l),
(300,286,l),
(379,286,l),
(411,286,o),
(445,264,o),
(445,214,c),
(445,173,o),
(412,149,o),
(371,149,c),
(295,149,l),
(295,0,l),
(388,0,l)
);
}
);
width = 660;
}
);
unicode = 223;
},
{
glyphname = eth;
layers = (
{
layerId = m001;
shapes = (
{
closed = 1;
nodes = (
(401,-11,o),
(473,106,o),
(473,240,c),
(473,474,o),
(350,652,o),
(104,750,c),
(91,718,l),
(331,612,o),
(422,436,o),
(422,239,c),
(422,135,o),
(364,28,o),
(249,28,c),
(134,28,o),
(81,136,o),
(81,246,c),
(81,351,o),
(140,457,o),
(254,457,c),
(314,457,o),
(371,426,o),
(412,381,c),
(434,402,l),
(387,461,o),
(337,498,o),
(255,498,c),
(93,498,o),
(30,389,o),
(30,245,c),
(30,106,o),
(93,-11,o),
(249,-13,c)
);
},
{
closed = 1;
nodes = (
(366,707,l),
(348,742,l),
(80,610,l),
(99,572,l)
);
}
);
width = 513;
},
{
layerId = m003;
shapes = (
{
closed = 1;
nodes = (
(470,-11,o),
(580,66,o),
(580,254,c),
(580,456,o),
(430,681,o),
(124,750,c),
(63,638,l),
(307,574,o),
(392,414,o),
(392,240,c),
(392,172,o),
(361,137,o),
(303,137,c),
(245,137,o),
(218,185,o),
(218,245,c),
(218,318,o),
(254,354,o),
(307,354,c),
(335,354,o),
(402,343,o),
(448,288,c),
(527,391,l),
(478,454,o),
(356,502,o),
(285,502,c),
(164,502,o),
(30,419,o),
(30,245,c),
(30,66,o),
(164,-11,o),
(312,-11,c)
);
},
{
closed = 1;
nodes = (
(476,642,l),
(422,752,l),
(66,580,l),
(116,474,l)
);
}
);
width = 600;
}
);
unicode = 240;
},
{
glyphname = thorn;
layers = (
{
layerId = m001;
shapes = (
{
closed = 1;
nodes = (
(125,-208,l),
(125,33,l),
(156,12,o),
(204,-13,o),
(252,-13,c),
(406,-13,o),
(468,107,o),
(468,240,c),
(468,386,o),
(406,498,o),
(259,498,c),
(205,498,o),
(161,478,o),
(125,446,c),
(125,706,l),
(76,696,l),
(76,-219,l)
);
},
{
closed = 1;
nodes = (
(197,28,o),
(155,56,o),
(125,83,c),
(125,392,l),
(161,431,o),
(198,457,o),
(259,457,c),
(367,457,o),
(417,362,o),
(417,239,c),
(417,133,o),
(367,28,o),
(254,28,c)
);
}
);
width = 508;
},
{
layerId = m003;
shapes = (
{
closed = 1;
nodes = (
(238,-209,l),
(238,2,l),
(262,-6,o),
(285,-11,o),
(320,-11,c),
(447,-11,o),
(559,69,o),
(559,249,c),
(559,421,o),
(458,502,o),
(328,502,c),
(289,502,o),
(262,495,o),
(238,486,c),
(238,706,l),
(56,695,l),
(56,-219,l)
);
},
{
closed = 1;
nodes = (
(272,129,o),
(254,134,o),
(238,142,c),
(238,347,l),
(252,356,o),
(267,362,o),
(282,362,c),
(340,362,o),
(371,321,o),
(371,248,c),
(371,175,o),
(336,129,o),
(290,129,c)
);
}
);
width = 579;
}
);
unicode = 254;
},
{
glyphname = fhook;
layers = (
{
layerId = m001;
shapes = (
{
closed = 1;
nodes = (
(138,-66,o),
(171,-12,o),
(171,73,c),
(171,433,l),
(280,433,l),
(259,470,l),
(171,470,l),
(171,579,l),
(171,626,o),
(188,661,o),
(240,661,c),
(254,661,o),
(273,656,o),
(281,652,c),
(293,689,l),
(283,694,o),
(257,702,o),
(227,702,c),
(157,702,o),
(122,650,o),
(122,563,c),
(122,470,l),
(49,470,l),
(49,433,l),
(122,433,l),
(122,57,l),
(122,10,o),
(105,-25,o),
(53,-25,c),
(39,-25,o),
(20,-20,o),
(12,-16,c),
(0,-53,l),
(15,-57,o),
(34,-66,o),
(66,-66,c)
);
}
);
width = 293;
},
{
layerId = m003;
shapes = (
{
closed = 1;
nodes = (
(236,-123,o),
(371,-74,o),
(371,70,c),
(371,308,l),
(522,308,l),
(505,451,l),
(371,451,l),
(371,490,l),
(371,528,o),
(393,555,o),
(438,555,c),
(454,555,o),
(484,550,o),
(508,536,c),
(560,660,l),
(537,681,o),
(473,703,o),
(426,703,c),
(308,703,o),
(189,646,o),
(189,510,c),
(189,451,l),
(109,451,l),
(109,308,l),
(189,308,l),
(189,90,l),
(189,52,o),
(167,25,o),
(122,25,c),
(106,25,o),
(76,30,o),
(52,44,c),
(0,-80,l),
(24,-100,o),
(85,-123,o),
(134,-123,c)
);
}
);
width = 560;
}
);
unicode = 402;
},
{
glyphname = ae;
layers = (
{
layerId = m001;
shapes = (
{
closed = 1;
nodes = (
(625,-13,o),
(700,1,o),
(740,25,c),
(720,62,l),
(683,43,o),
(644,28,o),
(577,28,c),
(455,28,o),
(408,127,o),
(406,242,c),
(755,242,l),
(755,252,l),
(755,388,o),
(684,498,o),
(567,498,c),
(486,498,o),
(430,464,o),
(396,410,c),
(376,462,o),
(326,498,o),
(241,498,c),
(192,498,o),
(128,482,o),
(86,456,c),
(105,423,l),
(147,442,o),
(193,457,o),
(244,457,c),
(327,457,o),
(360,404,o),
(360,341,c),
(360,281,l),
(225,281,l),
(131,281,o),
(52,234,o),
(52,136,c),
(52,57,o),
(99,-13,o),
(215,-13,c),
(307,-13,o),
(359,21,o),
(396,79,c),
(433,22,o),
(494,-13,o),
(585,-13,c)
);
},
{
closed = 1;
nodes = (
(408,279,l),
(418,371,o),
(461,457,o),
(560,457,c),
(660,457,o),
(695,371,o),
(703,279,c)
);
},
{
closed = 1;
nodes = (
(141,28,o),
(103,81,o),
(103,136,c),
(103,188,o),
(133,244,o),
(214,244,c),
(360,244,l),
(360,201,o),
(363,158,o),
(376,120,c),
(346,70,o),
(299,28,o),
(219,28,c)
);
}
);
width = 795;
},
{
layerId = m003;
shapes = (
{
closed = 1;
nodes = (
(655,-11,o),
(734,13,o),
(772,41,c),
(721,164,l),
(690,148,o),
(645,131,o),
(588,131,c),
(522,131,o),
(491,160,o),
(478,197,c),
(773,197,l),
(773,233,l),
(773,380,o),
(703,502,o),
(541,502,c),
(484,502,o),
(435,487,o),
(394,463,c),
(364,487,o),
(319,502,o),
(256,502,c),
(177,502,o),
(97,478,o),
(48,456,c),
(96,325,l),
(131,340,o),
(182,354,o),
(217,354,c),
(255,354,o),
(273,338,o),
(279,307,c),
(280,298,l),
(210,298,l),
(140,298,o),
(32,291,o),
(32,156,c),
(32,61,o),
(85,-11,o),
(214,-11,c),
(288,-11,o),
(335,13,o),
(370,48,c),
(423,7,o),
(494,-11,o),
(570,-11,c)
);
},
{
closed = 1;
nodes = (
(473,287,l),
(473,326,o),
(503,356,o),
(536,356,c),
(586,356,o),
(599,310,o),
(599,287,c)
);
},
{
closed = 1;
nodes = (
(200,125,o),
(184,139,o),
(184,159,c),
(184,183,o),
(202,198,o),
(225,198,c),
(283,198,l),
(286,181,o),
(289,167,o),
(294,153,c),
(275,138,o),
(251,125,o),
(217,125,c)
);
}
);
width = 793;
}
);
unicode = 230;
},
{
glyphname = dcroat;
layers = (
{
layerId = m001;
shapes = (
{
closed = 1;
nodes = (
(316,-13,o),
(367,18,o),
(408,65,c),
(388,99,l),
(349,56,o),
(311,28,o),
(249,28,c),
(134,28,o),
(91,135,o),
(91,246,c),
(91,352,o),
(141,457,o),
(254,457,c),
(313,457,o),
(357,427,o),
(393,393,c),
(413,426,l),
(387,456,o),
(318,498,o),
(256,498,c),
(103,498,o),
(40,379,o),
(40,245,c),
(40,101,o),
(101,-13,o),
(249,-13,c)
);
},
{
closed = 1;
nodes = (
(432,580,l),
(500,580,l),
(490,615,l),
(432,615,l),
(432,705,l),
(383,696,l),
(383,615,l),
(242,615,l),
(252,580,l),
(383,580,l),
(383,53,l),
(405,0,l),
(432,0,l)
);
}
);
width = 512;
},
{
layerId = m003;
shapes = (
{
closed = 1;
nodes = (
(326,-11,o),
(415,34,o),
(451,78,c),
(400,195,l),
(358,152,o),
(327,129,o),
(297,129,c),
(245,129,o),
(208,164,o),
(208,243,c),
(208,325,o),
(249,362,o),
(289,362,c),
(325,362,o),
(363,340,o),
(400,306,c),
(451,413,l),
(391,481,o),
(312,502,o),
(277,502,c),
(130,502,o),
(20,420,o),
(20,242,c),
(20,59,o),
(135,-11,o),
(269,-11,c)
);
},
{
closed = 1;
nodes = (
(523,550,l),
(583,550,l),
(566,663,l),
(523,663,l),
(523,706,l),
(341,695,l),
(341,663,l),
(237,663,l),
(254,550,l),
(341,550,l),
(341,117,l),
(431,0,l),
(523,0,l)
);
}
);
width = 583;
}
);
unicode = 273;
},
{
glyphname = oe;
layers = (
{
layerId = m001;
shapes = (
{
closed = 1;
nodes = (
(588,-13,o),
(663,1,o),
(703,25,c),
(683,62,l),
(646,43,o),
(607,28,o),
(540,28,c),
(418,28,o),
(371,127,o),
(369,242,c),
(718,242,l),
(718,247,l),
(718,389,o),
(644,498,o),
(530,498,c),
(478,498,o),
(437,483,o),
(406,461,c),
(367,483,o),
(322,498,o),
(266,498,c),
(114,498,o),
(40,381,o),
(40,245,c),
(40,105,o),
(108,-13,o),
(259,-13,c),
(323,-13,o),
(367,3,o),
(407,27,c),
(445,0,o),
(492,-13,o),
(548,-13,c)
);
},
{
closed = 1;
nodes = (
(371,279,l),
(381,371,o),
(424,457,o),
(523,457,c),
(623,457,o),
(658,371,o),
(666,279,c)
);
},
{
closed = 1;
nodes = (
(145,28,o),
(91,133,o),
(91,246,c),
(91,351,o),
(149,457,o),
(264,457,c),
(312,457,o),
(345,446,o),
(375,432,c),
(336,384,o),
(318,317,o),
(318,245,c),
(318,172,o),
(335,105,o),
(376,56,c),
(344,40,o),
(315,28,o),
(259,28,c)
);
}
);
width = 758;
},
{
layerId = m003;
shapes = (
{
closed = 1;
nodes = (
(718,-11,o),
(797,13,o),
(835,41,c),
(784,164,l),
(753,148,o),
(708,131,o),
(651,131,c),
(585,131,o),
(554,160,o),
(541,197,c),
(836,197,l),
(836,250,l),
(836,380,o),
(766,502,o),
(604,502,c),
(547,502,o),
(492,488,o),
(447,456,c),
(392,499,o),
(321,502,o),
(285,502,c),
(140,502,o),
(20,417,o),
(20,242,c),
(20,69,o),
(139,-11,o),
(285,-11,c),
(322,-11,o),
(392,-7,o),
(449,36,c),
(501,4,o),
(566,-11,o),
(633,-11,c)
);
},
{
closed = 1;
nodes = (
(536,287,l),
(536,326,o),
(566,356,o),
(599,356,c),
(649,356,o),
(662,310,o),
(662,287,c)
);
},
{
closed = 1;
nodes = (
(257,137,o),
(208,171,o),
(208,242,c),
(208,316,o),
(257,354,o),
(303,354,c),
(327,354,o),
(343,351,o),
(361,345,c),
(348,314,o),
(343,279,o),
(343,242,c),
(343,208,o),
(349,175,o),
(360,146,c),
(341,140,o),
(324,137,o),
(303,137,c)
);
}
);
width = 856;
}
);
unicode = 339;
},
{
glyphname = lacute;
layers = (
{
layerId = m001;
shapes = (
{
closed = 1;
nodes = (
(129,684,l),
(80,674,l),
(80,0,l),
(129,0,l)
);
},
{
closed = 1;
nodes = (
(201,892,l),
(140,892,l),
(84,750,l),
(116,739,l)
);
}
);
width = 209;
},
{
layerId = m003;
shapes = (
{
closed = 1;
nodes = (
(242,706,l),
(60,695,l),
(60,0,l),
(242,0,l)
);
},
{
closed = 1;
nodes = (
(330,932,l),
(150,932,l),
(84,755,l),
(216,733,l)
);
}
);
width = 302;
}
);
unicode = 314;
},
{
glyphname = lslash;
layers = (
{
layerId = m001;
shapes = (
{
closed = 1;
nodes = (
(160,340,l),
(271,438,l),
(249,472,l),
(160,394,l),
(160,706,l),
(111,696,l),
(111,351,l),
(0,255,l),
(22,219,l),
(111,297,l),
(111,0,l),
(160,0,l)
);
}
);
width = 271;
},
{
layerId = m003;
shapes = (
{
closed = 1;
nodes = (
(280,322,l),
(386,395,l),
(345,555,l),
(280,510,l),
(280,706,l),
(98,695,l),
(98,384,l),
(0,316,l),
(40,156,l),
(98,196,l),
(98,0,l),
(280,0,l)
);
}
);
width = 386;
}
);
unicode = 322;
},
{
glyphname = idotless;
layers = (
{
layerId = m001;
shapes = (
{
closed = 1;
nodes = (
(119,485,l),
(70,485,l),
(70,0,l),
(119,0,l)
);
}
);
width = 189;
},
{
layerId = m003;
shapes = (
{
closed = 1;
nodes = (
(232,485,l),
(50,485,l),
(50,0,l),
(232,0,l)
);
}
);
width = 282;
}
);
unicode = 305;
},
{
glyphname = oslash;
layers = (
{
layerId = m001;
shapes = (
{
closed = 1;
nodes = (
(412,-11,o),
(483,108,o),
(483,240,c),
(483,381,o),
(416,498,o),
(265,498,c),
(125,498,o),
(40,393,o),
(40,245,c),
(40,103,o),
(109,-11,o),
(259,-13,c)
);
},
{
closed = 1;
nodes = (
(145,28,o),
(91,133,o),
(91,246,c),
(91,351,o),
(149,457,o),
(264,457,c),
(373,457,o),
(432,361,o),
(432,239,c),
(432,133,o),
(373,28,o),
(259,28,c)
);
},
{
closed = 1;
nodes = (
(384,417,l),
(347,444,l),
(142,49,l),
(182,28,l)
);
}
);
width = 523;
},
{
layerId = m003;
shapes = (
{
closed = 1;
nodes = (
(436,-11,o),
(570,69,o),
(570,240,c),
(570,412,o),
(458,502,o),
(295,502,c),
(153,502,o),
(20,417,o),
(20,245,c),
(20,62,o),
(145,-11,o),
(291,-11,c)
);
},
{
closed = 1;
nodes = (
(235,137,o),
(208,171,o),
(208,245,c),
(208,309,o),
(237,354,o),
(297,354,c),
(349,354,o),
(382,302,o),
(382,240,c),
(382,171,o),
(349,137,o),
(293,137,c)
);
},
{
closed = 1;
nodes = (
(399,332,l),
(316,380,l),
(187,142,l),
(263,91,l)
);
}
);
width = 590;
}
);
unicode = 248;
},
{
glyphname = Aogonek;
layers = (
{
layerId = m001;
shapes = (
{
closed = 1;
nodes = (
(601,-202,o),
(630,-187,o),
(645,-172,c),
(623,-145,l),
(606,-159,o),
(588,-166,o),
(568,-166,c),
(544,-166,o),
(506,-149,o),
(506,-107,c),
(506,-66,o),
(524,-29,o),
(562,5,c),
(522,9,l),
(486,-19,o),
(460,-68,o),
(460,-106,c),
(460,-162,o),
(504,-202,o),
(565,-202,c)
);
},
{
closed = 1;
nodes = (
(150,252,l),
(281,614,l),
(417,252,l)
);
},
{
closed = 1;
nodes = (
(562,5,l),
(303,680,l),
(257,680,l),
(10,0,l),
(59,0,l),
(136,213,l),
(431,213,l),
(512,-6,l)
);
}
);
width = 572;
},
{
layerId = m003;
shapes = (
{
closed = 1;
nodes = (
(710,-236,o),
(781,-215,o),
(803,-189,c),
(742,-87,l),
(725,-103,o),
(713,-107,o),
(698,-107,c),
(679,-107,o),
(669,-90,o),
(669,-75,c),
(669,-51,o),
(689,-7,o),
(701,9,c),
(531,9,l),
(519,-15,o),
(506,-61,o),
(506,-89,c),
(506,-160,o),
(553,-236,o),
(654,-236,c)
);
},
{
closed = 1;
nodes = (
(288,277,l),
(353,462,l),
(421,277,l)
);
},
{
closed = 1;
nodes = (
(701,8,l),
(447,680,l),
(265,680,l),
(10,0,l),
(191,0,l),
(238,134,l),
(473,134,l),
(522,-10,l)
);
}
);
width = 711;
}
);
unicode = 260;
},
{
glyphname = Iogonek;
layers = (
{
layerId = m001;
shapes = (
{
closed = 1;
nodes = (
(190,-207,o),
(219,-193,o),
(235,-177,c),
(213,-150,l),
(196,-164,o),
(178,-171,o),
(158,-171,c),
(134,-171,o),
(96,-154,o),
(96,-112,c),
(96,-74,o),
(111,-34,o),
(149,0,c),
(102,4,l),
(74,-28,o),
(50,-65,o),
(50,-111,c),
(50,-167,o),
(94,-207,o),
(155,-207,c)
);
},
{
closed = 1;
nodes = (
(149,680,l),
(100,680,l),
(100,0,l),
(149,0,l)
);
}
);
width = 249;
},
{
layerId = m003;
shapes = (
{
closed = 1;
nodes = (
(270,-245,o),
(315,-223,o),
(336,-198,c),
(275,-96,l),
(258,-112,o),
(246,-116,o),
(231,-116,c),
(212,-116,o),
(202,-99,o),
(202,-84,c),
(202,-29,o),
(252,-5,o),
(262,0,c),
(80,0,l),
(70,-27,o),
(65,-74,o),
(65,-98,c),
(65,-169,o),
(112,-245,o),
(213,-245,c)
);
},
{
closed = 1;
nodes = (
(262,680,l),
(80,680,l),
(80,0,l),
(262,0,l)
);
}
);
width = 342;
}
);
unicode = 302;
},
{
glyphname = aogonek;
layers = (
{
layerId = m001;
shapes = (
{
closed = 1;
nodes = (
(450,-207,o),
(479,-193,o),
(495,-177,c),
(473,-150,l),
(456,-164,o),
(438,-171,o),
(418,-171,c),
(394,-171,o),
(356,-154,o),
(356,-112,c),
(356,-74,o),
(371,-34,o),
(409,0,c),
(372,4,l),
(336,-26,o),
(310,-73,o),
(310,-111,c),
(310,-167,o),
(354,-207,o),
(415,-207,c)
);
},
{
closed = 1;
nodes = (
(142,28,o),
(103,80,o),
(103,136,c),
(103,194,o),
(138,244,o),
(229,244,c),
(360,244,l),
(360,109,l),
(330,65,o),
(283,28,o),
(219,28,c)
);
},
{
closed = 1;
nodes = (
(279,-13,o),
(331,17,o),
(363,52,c),
(371,0,l),
(409,0,l),
(409,340,l),
(409,436,o),
(353,498,o),
(241,498,c),
(205,498,o),
(125,483,o),
(86,456,c),
(105,423,l),
(151,444,o),
(184,457,o),
(244,457,c),
(327,457,o),
(360,404,o),
(360,341,c),
(360,281,l),
(225,281,l),
(131,281,o),
(52,234,o),
(52,136,c),
(52,57,o),
(99,-13,o),
(215,-13,c)
);
}
);
width = 475;
},
{
layerId = m003;
shapes = (
{
closed = 1;
nodes = (
(499,-245,o),
(544,-223,o),
(565,-198,c),
(504,-96,l),
(487,-112,o),
(475,-116,o),
(460,-116,c),
(441,-116,o),
(431,-99,o),
(431,-84,c),
(431,-58,o),
(452,-14,o),
(463,0,c),
(345,54,l),
(299,-23,o),
(294,-69,o),
(294,-108,c),
(294,-164,o),
(336,-245,o),
(442,-245,c)
);
},
{
closed = 1;
nodes = (
(199,125,o),
(184,139,o),
(184,159,c),
(184,181,o),
(200,198,o),
(225,198,c),
(281,198,l),
(281,152,l),
(261,136,o),
(239,125,o),
(217,125,c)
);
},
{
closed = 1;
nodes = (
(257,-11,o),
(294,13,o),
(323,50,c),
(375,0,l),
(463,0,l),
(463,300,l),
(463,425,o),
(393,502,o),
(262,502,c),
(182,502,o),
(101,480,o),
(48,456,c),
(96,325,l),
(131,340,o),
(182,354,o),
(217,354,c),
(252,354,o),
(272,338,o),
(278,307,c),
(280,298,l),
(222,298,l),
(112,298,o),
(32,264,o),
(32,156,c),
(32,61,o),
(85,-11,o),
(214,-11,c)
);
}
);
width = 509;
}
);
unicode = 261;
},
{
glyphname = dcaron;
layers = (
{
layerId = m001;
shapes = (
{
closed = 1;
nodes = (
(576,546,o),
(606,598,o),
(606,659,c),
(606,678,o),
(593,702,o),
(567,702,c),
(541,702,o),
(529,682,o),
(529,663,c),
(529,653,o),
(539,625,o),
(565,625,c),
(564,588,o),
(538,561,o),
(504,543,c),
(520,518,l)
);
},
{
closed = 1;
nodes = (
(432,705,l),
(383,696,l),
(383,53,l),
(405,0,l),
(432,0,l)
);
},
{
closed = 1;
nodes = (
(315,-13,o),
(367,17,o),
(408,65,c),
(388,99,l),
(349,56,o),
(311,28,o),
(249,28,c),
(136,28,o),
(91,133,o),
(91,246,c),
(91,349,o),
(139,457,o),
(254,457,c),
(313,457,o),
(357,427,o),
(393,393,c),
(413,426,l),
(390,453,o),
(323,498,o),
(256,498,c),
(105,498,o),
(40,382,o),
(40,245,c),
(40,104,o),
(98,-13,o),
(249,-13,c)
);
}
);
width = 636;
},
{
layerId = m003;
shapes = (
{
closed = 1;
nodes = (
(697,475,o),
(766,556,o),
(766,635,c),
(766,704,o),
(721,742,o),
(674,742,c),
(619,742,o),
(582,693,o),
(582,650,c),
(582,618,o),
(602,587,o),
(625,572,c),
(619,553,o),
(590,531,o),
(573,521,c),
(609,441,l)
);
},
{
closed = 1;
nodes = (
(523,706,l),
(341,695,l),
(341,117,l),
(431,0,l),
(523,0,l)
);
},
{
closed = 1;
nodes = (
(347,-11,o),
(417,37,o),
(451,78,c),
(400,195,l),
(358,152,o),
(327,129,o),
(297,129,c),
(245,129,o),
(208,164,o),
(208,243,c),
(208,319,o),
(245,362,o),
(289,362,c),
(325,362,o),
(363,340,o),
(400,306,c),
(451,413,l),
(399,473,o),
(341,502,o),
(277,502,c),
(140,502,o),
(20,431,o),
(20,242,c),
(20,64,o),
(132,-11,o),
(269,-11,c)
);
}
);
width = 796;
}
);
unicode = 271;
},
{
glyphname = iogonek;
layers = (
{
layerId = m001;
shapes = (
{
closed = 1;
nodes = (
(160,-207,o),
(189,-193,o),
(205,-177,c),
(183,-150,l),
(166,-164,o),
(148,-171,o),
(128,-171,c),
(104,-171,o),
(66,-154,o),
(66,-112,c),
(66,-74,o),
(81,-34,o),
(119,0,c),
(72,4,l),
(44,-28,o),
(20,-65,o),
(20,-111,c),
(20,-167,o),
(64,-207,o),
(125,-207,c)
);
},
{
closed = 1;
nodes = (
(119,485,l),
(70,485,l),
(70,0,l),
(119,0,l)
);
},
{
closed = 1;
nodes = (
(115,618,o),
(133,634,o),
(133,656,c),
(133,678,o),
(115,694,o),
(94,694,c),
(70,694,o),
(56,676,o),
(56,656,c),
(56,636,o),
(70,618,o),
(94,618,c)
);
}
);
width = 189;
},
{
layerId = m003;
shapes = (
{
closed = 1;
nodes = (
(240,-245,o),
(285,-223,o),
(306,-198,c),
(245,-96,l),
(228,-112,o),
(216,-116,o),
(201,-116,c),
(182,-116,o),
(172,-99,o),
(172,-84,c),
(172,-29,o),
(222,-5,o),
(232,0,c),
(50,0,l),
(40,-27,o),
(35,-74,o),
(35,-98,c),
(35,-169,o),
(82,-245,o),
(183,-245,c)
);
},
{
closed = 1;
nodes = (
(232,485,l),
(50,485,l),
(50,0,l),
(232,0,l)
);
},
{
closed = 1;
nodes = (
(197,594,o),
(235,631,o),
(235,686,c),
(235,733,o),
(202,778,o),
(145,778,c),
(94,778,o),
(53,737,o),
(53,686,c),
(53,630,o),
(97,594,o),
(145,594,c)
);
}
);
width = 282;
}
);
unicode = 303;
},
{
glyphname = lcaron;
layers = (
{
layerId = m001;
shapes = (
{
closed = 1;
nodes = (
(273,546,o),
(303,598,o),
(303,659,c),
(303,678,o),
(290,702,o),
(264,702,c),
(238,702,o),
(226,682,o),
(226,663,c),
(226,653,o),
(236,625,o),
(262,625,c),
(261,588,o),
(235,561,o),
(201,543,c),
(217,518,l)
);
},
{
closed = 1;
nodes = (
(129,706,l),
(80,696,l),
(80,0,l),
(129,0,l)
);
}
);
width = 333;
},
{
layerId = m003;
shapes = (
{
closed = 1;
nodes = (
(415,475,o),
(484,556,o),
(484,635,c),
(484,704,o),
(439,742,o),
(392,742,c),
(337,742,o),
(300,693,o),
(300,650,c),
(300,616,o),
(319,588,o),
(343,572,c),
(337,553,o),
(308,531,o),
(291,521,c),
(327,441,l)
);
},
{
closed = 1;
nodes = (
(242,706,l),
(60,695,l),
(60,0,l),
(242,0,l)
);
}
);
width = 514;
}
);
unicode = 318;
},
{
glyphname = tcaron;
layers = (
{
layerId = m001;
shapes = (
{
closed = 1;
nodes = (
(352,546,o),
(382,598,o),
(382,659,c),
(382,678,o),
(369,702,o),
(343,702,c),
(317,702,o),
(305,682,o),
(305,663,c),
(305,653,o),
(315,625,o),
(341,625,c),
(340,588,o),
(314,561,o),
(280,543,c),
(296,518,l)
);
},
{
closed = 1;
nodes = (
(224,-13,o),
(248,-5,o),
(262,-1,c),
(250,37,l),
(244,34,o),
(224,28,o),
(209,28,c),
(156,28,o),
(141,79,o),
(141,123,c),
(141,433,l),
(250,433,l),
(229,470,l),
(141,470,l),
(141,623,l),
(92,601,l),
(92,470,l),
(20,470,l),
(20,433,l),
(92,433,l),
(92,116,l),
(92,32,o),
(134,-13,o),
(196,-13,c)
);
}
);
width = 412;
},
{
layerId = m003;
shapes = (
{
closed = 1;
nodes = (
(542,475,o),
(611,556,o),
(611,635,c),
(611,704,o),
(566,742,o),
(519,742,c),
(464,742,o),
(427,693,o),
(427,650,c),
(427,616,o),
(446,588,o),
(470,572,c),
(464,553,o),
(435,531,o),
(418,521,c),
(454,441,l)
);
},
{
closed = 1;
nodes = (
(363,-11,o),
(424,13,o),
(446,32,c),
(394,156,l),
(370,142,o),
(343,137,o),
(324,137,c),
(290,137,o),
(267,161,o),
(267,202,c),
(267,322,l),
(411,322,l),
(394,465,l),
(267,465,l),
(267,621,l),
(85,596,l),
(85,465,l),
(10,465,l),
(10,322,l),
(85,322,l),
(85,182,l),
(85,47,o),
(203,-11,o),
(312,-11,c)
);
}
);
width = 641;
}
);
unicode = 357;
},
{
glyphname = uogonek;
layers = (
{
layerId = m001;
shapes = (
{
closed = 1;
nodes = (
(471,-207,o),
(500,-193,o),
(516,-177,c),
(494,-150,l),
(477,-164,o),
(459,-171,o),
(439,-171,c),
(415,-171,o),
(377,-154,o),
(377,-112,c),
(377,-74,o),
(392,-34,o),
(430,0,c),
(393,4,l),
(357,-26,o),
(331,-73,o),
(331,-111,c),
(331,-167,o),
(375,-207,o),
(436,-207,c)
);
},
{
closed = 1;
nodes = (
(274,-13,o),
(345,31,o),
(382,76,c),
(392,0,l),
(430,0,l),
(430,485,l),
(381,485,l),
(381,126,l),
(325,70,o),
(266,28,o),
(206,28,c),
(129,28,o),
(115,86,o),
(115,148,c),
(115,485,l),
(66,485,l),
(66,148,l),
(66,52,o),
(108,-13,o),
(210,-13,c)
);
}
);
width = 500;
},
{
layerId = m003;
shapes = (
{
closed = 1;
nodes = (
(596,-246,o),
(641,-224,o),
(662,-199,c),
(601,-97,l),
(584,-113,o),
(572,-117,o),
(557,-117,c),
(538,-117,o),
(528,-100,o),
(528,-85,c),
(528,-59,o),
(549,-15,o),
(560,-1,c),
(442,53,l),
(396,-24,o),
(391,-70,o),
(391,-109,c),
(391,-165,o),
(433,-246,o),
(539,-246,c)
);
},
{
closed = 1;
nodes = (
(296,-17,o),
(369,17,o),
(420,49,c),
(472,-1,l),
(560,-1,l),
(560,484,l),
(378,484,l),
(378,158,l),
(354,148,o),
(306,130,o),
(280,130,c),
(239,130,o),
(228,160,o),
(228,188,c),
(228,484,l),
(46,484,l),
(46,171,l),
(46,74,o),
(89,-17,o),
(222,-17,c)
);
}
);
width = 610;
}
);
unicode = 371;
},
{
glyphname = mu;
layers = (
{
layerId = m001;
shapes = (
{
closed = 1;
nodes = (
(125,-208,l),
(125,418,l),
(76,398,l),
(76,-219,l)
);
},
{
closed = 1;
nodes = (
(284,-13,o),
(355,31,o),
(392,76,c),
(402,0,l),
(440,0,l),
(440,485,l),
(391,485,l),
(391,126,l),
(335,70,o),
(276,28,o),
(216,28,c),
(139,28,o),
(125,86,o),
(125,148,c),
(125,485,l),
(76,485,l),
(76,148,l),
(76,52,o),
(118,-13,o),
(220,-13,c)
);
}
);
width = 510;
},
{
layerId = m003;
shapes = (
{
closed = 1;
nodes = (
(238,-209,l),
(238,393,l),
(56,389,l),
(56,-219,l)
);
},
{
closed = 1;
nodes = (
(306,-17,o),
(379,17,o),
(430,49,c),
(462,-1,l),
(570,-1,l),
(570,484,l),
(388,484,l),
(388,158,l),
(364,148,o),
(316,130,o),
(290,130,c),
(249,130,o),
(238,160,o),
(238,188,c),
(238,484,l),
(56,484,l),
(56,171,l),
(56,74,o),
(99,-17,o),
(232,-17,c)
);
}
);
width = 620;
}
);
unicode = 181;
},
{
glyphname = macronmod;
layers = (
{
layerId = m001;
shapes = (
{
closed = 1;
nodes = (
(245,689,l),
(10,689,l),
(10,650,l),
(251,650,l)
);
}
);
width = 261;
},
{
layerId = m003;
shapes = (
{
closed = 1;
nodes = (
(290,756,l),
(10,756,l),
(10,613,l),
(300,613,l)
);
}
);
width = 310;
}
);
unicode = 713;
},
{
glyphname = lscript;
layers = (
{
layerId = m001;
shapes = (
{
closed = 1;
nodes = (
(233,-12,o),
(259,-3,o),
(272,6,c),
(260,43,l),
(251,39,o),
(236,29,o),
(215,29,c),
(164,29,o),
(136,74,o),
(136,122,c),
(136,274,l),
(200,335,o),
(308,454,o),
(308,574,c),
(308,654,o),
(263,702,o),
(195,702,c),
(137,702,o),
(87,661,o),
(87,566,c),
(87,291,l),
(59,268,o),
(37,251,o),
(10,232,c),
(22,185,l),
(52,206,o),
(60,211,o),
(87,231,c),
(87,127,l),
(87,32,o),
(146,-12,o),
(214,-12,c)
);
},
{
closed = 1;
nodes = (
(136,566,l),
(136,633,o),
(162,661,o),
(196,661,c),
(227,661,o),
(258,634,o),
(258,572,c),
(258,489,o),
(202,405,o),
(136,337,c)
);
}
);
width = 338;
},
{
layerId = m003;
shapes = (
{
closed = 1;
nodes = (
(395,-11,o),
(456,13,o),
(478,32,c),
(426,156,l),
(402,142,o),
(372,137,o),
(356,137,c),
(311,137,o),
(289,150,o),
(289,185,c),
(289,275,l),
(400,350,o),
(484,442,o),
(484,544,c),
(484,643,o),
(409,702,o),
(300,702,c),
(210,702,o),
(107,644,o),
(107,532,c),
(107,350,l),
(79,337,o),
(38,322,o),
(10,312,c),
(51,162,l),
(73,169,o),
(90,175,o),
(107,181,c),
(107,147,l),
(107,65,o),
(171,-11,o),
(307,-11,c)
);
},
{
closed = 1;
nodes = (
(283,527,l),
(283,542,o),
(287,560,o),
(303,560,c),
(317,560,o),
(323,550,o),
(323,539,c),
(323,502,o),
(305,469,o),
(283,440,c)
);
}
);
width = 514;
}
);
unicode = 8467;
},
{
glyphname = "Ohmsign-grek";
layers = (
{
layerId = m001;
shapes = (
{
closed = 1;
nodes = (
(650,39,l),
(530,39,l),
(606,95,o),
(652,227,o),
(652,337,c),
(652,540,o),
(543,696,o),
(353,696,c),
(164,696,o),
(50,536,o),
(50,337,c),
(50,230,o),
(95,98,o),
(171,39,c),
(52,39,l),
(56,0,l),
(241,0,l),
(236,44,l),
(152,93,o),
(105,240,o),
(105,338,c),
(105,520,o),
(214,652,o),
(353,652,c),
(500,652,o),
(600,511,o),
(600,338,c),
(600,234,o),
(550,92,o),
(469,44,c),
(464,0,l),
(646,0,l)
);
}
);
width = 702;
},
{
layerId = m003;
shapes = (
{
closed = 1;
nodes = (
(696,143,l),
(633,143,l),
(673,203,o),
(696,273,o),
(696,337,c),
(696,552,o),
(565,694,o),
(363,694,c),
(158,694,o),
(30,546,o),
(30,337,c),
(30,273,o),
(53,203,o),
(93,143,c),
(30,143,l),
(46,0,l),
(302,0,l),
(302,143,l),
(240,166,o),
(217,265,o),
(217,338,c),
(217,470,o),
(279,542,o),
(363,542,c),
(455,542,o),
(509,461,o),
(509,338,c),
(509,266,o),
(485,167,o),
(424,143,c),
(424,0,l),
(680,0,l)
);
}
);
width = 726;
}
);
unicode = 8486;
},
{
glyphname = increment;
layers = (
{
layerId = m001;
shapes = (
{
closed = 1;
nodes = (
(562,11,l),
(303,680,l),
(257,680,l),
(10,0,l),
(562,0,l)
);
},
{
closed = 1;
nodes = (
(73,39,l),
(281,614,l),
(497,39,l)
);
}
);
width = 572;
},
{
layerId = m003;
shapes = (
{
closed = 1;
nodes = (
(689,18,l),
(405,680,l),
(295,680,l),
(10,0,l),
(689,0,l)
);
},
{
closed = 1;
nodes = (
(234,143,l),
(347,408,l),
(462,143,l)
);
}
);
width = 699;
}
);
unicode = 8710;
},
{
glyphname = divisionslash;
layers = (
{
layerId = m001;
shapes = (
{
closed = 1;
nodes = (
(365,706,l),
(318,710,l),
(10,0,l),
(56,-4,l)
);
}
);
width = 375;
},
{
layerId = m003;
shapes = (
{
closed = 1;
nodes = (
(496,706,l),
(308,706,l),
(10,0,l),
(197,0,l)
);
}
);
width = 506;
}
);
unicode = 8725;
},
{
glyphname = bulletoperator;
layers = (
{
layerId = m001;
shapes = (
{
closed = 1;
nodes = (
(127,265,o),
(153,296,o),
(153,326,c),
(153,361,o),
(127,388,o),
(92,388,c),
(59,388,o),
(30,364,o),
(30,326,c),
(30,293,o),
(57,265,o),
(92,265,c)
);
}
);
width = 183;
},
{
layerId = m003;
shapes = (
{
closed = 1;
nodes = (
(221,208,o),
(278,262,o),
(278,331,c),
(278,400,o),
(221,455,o),
(153,455,c),
(84,455,o),
(30,399,o),
(30,331,c),
(30,263,o),
(84,208,o),
(153,208,c)
);
}
);
width = 308;
}
);
unicode = 8729;
},
{
glyphname = turkishlirasign;
layers = (
{
layerId = m001;
shapes = (
{
closed = 1;
nodes = (
(322,0,o),
(471,149,o),
(471,331,c),
(425,331,l),
(425,174,o),
(286,39,o),
(175,39,c),
(175,399,l),
(344,459,l),
(337,497,l),
(175,440,l),
(175,507,l),
(344,567,l),
(337,605,l),
(175,548,l),
(175,706,l),
(126,696,l),
(126,530,l),
(0,486,l),
(6,447,l),
(126,489,l),
(126,422,l),
(0,378,l),
(6,339,l),
(126,381,l),
(126,0,l),
(175,0,l)
);
}
);
width = 491;
},
{
layerId = m003;
shapes = (
{
closed = 1;
nodes = (
(473,0,o),
(604,129,o),
(604,360,c),
(416,361,l),
(416,215,o),
(342,149,o),
(261,149,c),
(261,342,l),
(404,392,l),
(366,504,l),
(261,467,l),
(261,500,l),
(404,550,l),
(366,662,l),
(261,625,l),
(261,707,l),
(79,692,l),
(79,561,l),
(0,533,l),
(9,412,l),
(79,436,l),
(79,403,l),
(0,375,l),
(9,255,l),
(79,279,l),
(79,0,l),
(261,0,l)
);
}
);
width = 624;
}
);
unicode = 8378;
},
{
glyphname = rublesign;
layers = (
{
layerId = m001;
shapes = (
{
closed = 1;
nodes = (
(438,204,l),
(37,204,l),
(42,165,l),
(443,165,l)
);
},
{
closed = 1;
nodes = (
(149,264,l),
(252,264,l),
(388,264,o),
(508,323,o),
(508,475,c),
(508,625,o),
(401,680,o),
(263,680,c),
(100,680,l),
(100,0,l),
(149,0,l)
);
},
{
closed = 1;
nodes = (
(149,303,l),
(149,640,l),
(275,640,l),
(386,640,o),
(458,592,o),
(458,474,c),
(458,355,o),
(365,303,o),
(264,303,c)
);
},
{
closed = 1;
nodes = (
(125,303,l),
(37,303,l),
(42,264,l),
(130,264,l)
);
}
);
width = 548;
},
{
layerId = m003;
shapes = (
{
closed = 1;
nodes = (
(496,166,l),
(0,166,l),
(10,43,l),
(506,43,l)
);
},
{
closed = 1;
nodes = (
(262,208,l),
(358,208,l),
(501,208,o),
(646,271,o),
(646,439,c),
(646,609,o),
(510,680,o),
(366,680,c),
(80,680,l),
(80,0,l),
(262,0,l)
);
},
{
closed = 1;
nodes = (
(262,351,l),
(262,537,l),
(360,537,l),
(422,537,o),
(458,498,o),
(458,439,c),
(458,387,o),
(419,351,o),
(362,351,c)
);
},
{
closed = 1;
nodes = (
(206,340,l),
(0,340,l),
(10,217,l),
(216,217,l)
);
}
);
width = 666;
}
);
unicode = 8381;
},
{
glyphname = cent;
layers = (
{
layerId = m001;
shapes = (
{
closed = 1;
nodes = (
(284,605,l),
(240,595,l),
(240,477,l),
(284,477,l)
);
},
{
closed = 1;
nodes = (
(284,0,l),
(240,0,l),
(240,-111,l),
(284,-111,l)
);
},
{
closed = 1;
nodes = (
(301,-13,o),
(365,2,o),
(408,28,c),
(388,62,l),
(350,43,o),
(322,28,o),
(259,28,c),
(144,28,o),
(91,136,o),
(91,246,c),
(91,351,o),
(150,457,o),
(264,457,c),
(325,457,o),
(361,438,o),
(393,423,c),
(413,456,l),
(377,481,o),
(304,498,o),
(266,498,c),
(121,498,o),
(40,389,o),
(40,245,c),
(40,104,o),
(108,-13,o),
(259,-13,c)
);
}
);
width = 449;
},
{
layerId = m003;
shapes = (
{
closed = 1;
nodes = (
(362,631,l),
(212,618,l),
(212,456,l),
(362,460,l)
);
},
{
closed = 1;
nodes = (
(362,51,l),
(212,54,l),
(212,-125,l),
(362,-125,l)
);
},
{
closed = 1;
nodes = (
(332,-11,o),
(397,-5,o),
(451,38,c),
(400,163,l),
(363,144,o),
(337,137,o),
(303,137,c),
(256,137,o),
(208,171,o),
(208,242,c),
(208,316,o),
(258,354,o),
(303,354,c),
(339,354,o),
(363,347,o),
(400,328,c),
(451,453,l),
(394,498,o),
(322,502,o),
(285,502,c),
(140,502,o),
(20,418,o),
(20,242,c),
(20,69,o),
(139,-11,o),
(285,-11,c)
);
}
);
width = 457;
}
);
unicode = 162;
},
{
glyphname = sterling;
layers = (
{
layerId = m001;
shapes = (
{
closed = 1;
nodes = (
(410,39,l),
(148,39,l),
(177,64,o),
(182,97,o),
(182,143,c),
(182,334,l),
(344,334,l),
(322,371,l),
(182,371,l),
(182,561,l),
(182,608,o),
(199,643,o),
(251,643,c),
(265,643,o),
(284,638,o),
(292,634,c),
(304,671,l),
(294,676,o),
(268,684,o),
(238,684,c),
(168,684,o),
(133,632,o),
(133,545,c),
(133,371,l),
(60,371,l),
(62,334,l),
(133,334,l),
(133,122,l),
(133,75,o),
(117,40,o),
(68,39,c),
(70,0,l),
(416,0,l)
);
}
);
width = 426;
},
{
layerId = m003;
shapes = (
{
closed = 1;
nodes = (
(495,143,l),
(298,143,l),
(301,156,o),
(303,171,o),
(303,188,c),
(303,268,l),
(453,268,l),
(436,411,l),
(303,411,l),
(303,471,l),
(303,509,o),
(325,536,o),
(370,536,c),
(386,536,o),
(416,531,o),
(440,517,c),
(492,641,l),
(469,662,o),
(405,684,o),
(358,684,c),
(240,684,o),
(121,627,o),
(121,491,c),
(121,411,l),
(40,411,l),
(40,268,l),
(121,268,l),
(121,208,l),
(121,168,o),
(99,144,o),
(39,143,c),
(49,0,l),
(512,0,l)
);
}
);
width = 522;
}
);
unicode = 163;
},
{
glyphname = currency;
layers = (
{
layerId = m001;
shapes = (
{
closed = 1;
nodes = (
(631,-22,l),
(523,84,l),
(558,129,o),
(574,185,o),
(574,239,c),
(574,302,o),
(555,358,o),
(526,401,c),
(631,505,l),
(602,537,l),
(497,435,l),
(458,473,o),
(404,498,o),
(335,498,c),
(264,498,o),
(206,472,o),
(165,434,c),
(59,537,l),
(30,505,l),
(136,401,l),
(106,360,o),
(87,308,o),
(87,246,c),
(87,179,o),
(106,124,o),
(135,82,c),
(30,-22,l),
(59,-54,l),
(164,48,l),
(203,11,o),
(256,-13,o),
(325,-13,c),
(396,-13,o),
(454,13,o),
(493,51,c),
(602,-54,l)
);
},
{
closed = 1;
nodes = (
(216,28,o),
(138,123,o),
(138,246,c),
(138,359,o),
(217,457,o),
(335,457,c),
(462,457,o),
(523,346,o),
(523,239,c),
(523,125,o),
(444,28,o),
(325,28,c)
);
}
);
width = 661;
},
{
layerId = m003;
shapes = (
{
closed = 1;
nodes = (
(783,20,l),
(654,136,l),
(669,168,o),
(680,209,o),
(680,252,c),
(680,295,o),
(669,334,o),
(655,366,c),
(771,480,l),
(646,604,l),
(534,486,l),
(496,504,o),
(448,512,o),
(406,512,c),
(364,512,o),
(317,503,o),
(279,485,c),
(172,599,l),
(30,481,l),
(159,365,l),
(144,333,o),
(133,292,o),
(133,249,c),
(133,206,o),
(144,167,o),
(158,135,c),
(42,21,l),
(167,-103,l),
(279,15,l),
(317,-3,o),
(365,-11,o),
(407,-12,c),
(449,-11,o),
(496,-2,o),
(534,16,c),
(641,-98,l)
);
},
{
closed = 1;
nodes = (
(357,159,o),
(314,195,o),
(312,250,c),
(314,302,o),
(350,342,o),
(406,342,c),
(461,342,o),
(501,303,o),
(501,251,c),
(501,202,o),
(464,159,o),
(407,159,c)
);
}
);
width = 813;
}
);
unicode = 164;
},
{
glyphname = yen;
layers = (
{
layerId = m001;
shapes = (
{
closed = 1;
nodes = (
(463,298,l),
(62,298,l),
(67,259,l),
(468,259,l)
);
},
{
closed = 1;
nodes = (
(463,129,l),
(62,129,l),
(67,90,l),
(468,90,l)
);
},
{
closed = 1;
nodes = (
(284,274,l),
(520,680,l),
(463,680,l),
(259,321,l),
(59,689,l),
(10,668,l),
(235,269,l),
(235,0,l),
(284,0,l)
);
}
);
width = 530;
},
{
layerId = m003;
shapes = (
{
closed = 1;
nodes = (
(546,316,l),
(98,316,l),
(108,200,l),
(556,200,l)
);
},
{
closed = 1;
nodes = (
(546,162,l),
(98,162,l),
(108,46,l),
(556,46,l)
);
},
{
closed = 1;
nodes = (
(408,266,l),
(644,680,l),
(457,680,l),
(316,435,l),
(184,694,l),
(10,646,l),
(226,268,l),
(226,0,l),
(408,0,l)
);
}
);
width = 654;
}
);
unicode = 165;
},
{
glyphname = euro;
layers = (
{
layerId = m001;
shapes = (
{
closed = 1;
nodes = (
(401,446,l),
(0,446,l),
(5,407,l),
(406,407,l)
);
},
{
closed = 1;
nodes = (
(401,265,l),
(0,265,l),
(5,226,l),
(406,226,l)
);
},
{
closed = 1;
nodes = (
(456,-14,o),
(529,4,o),
(563,23,c),
(539,59,l),
(500,42,o),
(457,29,o),
(389,29,c),
(225,29,o),
(145,187,o),
(145,337,c),
(145,543,o),
(266,651,o),
(398,651,c),
(461,651,o),
(500,640,o),
(543,621,c),
(563,657,l),
(527,683,o),
(440,694,o),
(400,694,c),
(190,694,o),
(90,519,o),
(90,336,c),
(90,157,o),
(180,-14,o),
(394,-14,c)
);
}
);
width = 593;
},
{
layerId = m003;
shapes = (
{
closed = 1;
nodes = (
(506,480,l),
(0,480,l),
(12,364,l),
(516,364,l)
);
},
{
closed = 1;
nodes = (
(506,318,l),
(0,318,l),
(12,202,l),
(516,202,l)
);
},
{
closed = 1;
nodes = (
(513,-13,o),
(596,6,o),
(646,37,c),
(577,173,l),
(543,152,o),
(499,136,o),
(448,136,c),
(363,136,o),
(278,209,o),
(278,338,c),
(278,471,o),
(367,544,o),
(441,544,c),
(481,544,o),
(513,540,o),
(585,514,c),
(639,637,l),
(587,673,o),
(507,693,o),
(439,693,c),
(222,693,o),
(90,531,o),
(90,337,c),
(90,140,o),
(213,-13,o),
(443,-13,c)
);
}
);
width = 656;
}
);
unicode = 8364;
},
{
glyphname = dollar;
layers = (
{
layerId = m001;
shapes = (
{
closed = 1;
nodes = (
(341,1,l),
(426,29,o),
(464,87,o),
(464,157,c),
(464,251,o),
(398,307,o),
(283,355,c),
(157,409,o),
(102,459,o),
(102,530,c),
(102,595,o),
(155,655,o),
(258,655,c),
(329,655,o),
(368,637,o),
(402,621,c),
(424,657,l),
(404,667,o),
(375,679,o),
(341,686,c),
(341,800,l),
(300,790,l),
(300,693,l),
(290,695,o),
(279,696,o),
(267,696,c),
(256,696,o),
(245,695,o),
(233,694,c),
(233,797,l),
(193,787,l),
(193,690,l),
(99,670,o),
(50,608,o),
(50,535,c),
(50,446,o),
(104,382,o),
(232,330,c),
(362,277,o),
(413,229,o),
(413,160,c),
(413,95,o),
(354,29,o),
(236,29,c),
(168,29,o),
(113,49,o),
(70,68,c),
(55,29,l),
(74,14,o),
(132,-1,o),
(193,-10,c),
(193,-111,l),
(233,-111,l),
(233,-13,l),
(260,-13,o),
(279,-11,o),
(300,-8,c),
(300,-111,l),
(341,-111,l)
);
}
);
width = 534;
},
{
layerId = m003;
shapes = (
{
closed = 1;
nodes = (
(410,17,l),
(488,53,o),
(527,117,o),
(527,187,c),
(527,269,o),
(467,328,o),
(367,392,c),
(258,460,o),
(218,467,o),
(218,503,c),
(218,530,o),
(246,544,o),
(285,544,c),
(331,544,o),
(366,537,o),
(429,514,c),
(483,637,l),
(468,648,o),
(452,656,o),
(432,664,c),
(432,799,l),
(313,789,l),
(313,692,l),
(308,693,o),
(301,694,o),
(292,694,c),
(284,694,o),
(276,694,o),
(269,693,c),
(269,799,l),
(151,789,l),
(151,668,l),
(71,634,o),
(31,570,o),
(30,498,c),
(30,391,o),
(134,334,o),
(219,286,c),
(294,244,o),
(339,215,o),
(339,177,c),
(339,152,o),
(311,136,o),
(251,136,c),
(200,136,o),
(129,159,o),
(93,179,c),
(33,42,l),
(59,27,o),
(89,16,o),
(125,6,c),
(125,-119,l),
(243,-119,l),
(243,-13,l),
(258,-13,o),
(282,-12,o),
(291,-12,c),
(291,-122,l),
(410,-122,l)
);
}
);
width = 547;
}
);
unicode = 36;
},
{
glyphname = comma;
layers = (
{
layerId = m001;
shapes = (
{
closed = 1;
nodes = (
(92,-80,o),
(122,-29,o),
(122,33,c),
(122,52,o),
(109,76,o),
(83,76,c),
(57,76,o),
(45,56,o),
(45,37,c),
(45,25,o),
(56,-1,o),
(81,-1,c),
(80,-38,o),
(54,-65,o),
(20,-83,c),
(36,-108,l)
);
}
);
width = 152;
},
{
layerId = m003;
shapes = (
{
closed = 1;
nodes = (
(144,-120,o),
(213,-39,o),
(213,40,c),
(213,109,o),
(168,147,o),
(121,147,c),
(66,147,o),
(29,98,o),
(29,55,c),
(29,21,o),
(48,-7,o),
(72,-23,c),
(66,-42,o),
(37,-64,o),
(20,-74,c),
(56,-154,l)
);
}
);
width = 243;
}
);
unicode = 44;
},
{
glyphname = period;
layers = (
{
layerId = m001;
shapes = (
{
closed = 1;
nodes = (
(89,0,o),
(107,16,o),
(107,38,c),
(107,60,o),
(89,76,o),
(68,76,c),
(44,76,o),
(30,58,o),
(30,38,c),
(30,18,o),
(44,0,o),
(68,0,c)
);
}
);
width = 137;
},
{
layerId = m003;
shapes = (
{
closed = 1;
nodes = (
(173,0,o),
(213,38,o),
(213,91,c),
(213,143,o),
(173,183,o),
(122,183,c),
(70,183,o),
(30,143,o),
(30,91,c),
(30,39,o),
(69,0,o),
(122,0,c)
);
}
);
width = 243;
}
);
unicode = 46;
},
{
glyphname = exclam;
layers = (
{
layerId = m001;
shapes = (
{
closed = 1;
nodes = (
(108,702,l),
(54,702,l),
(54,185,l),
(99,164,l)
);
},
{
closed = 1;
nodes = (
(89,0,o),
(107,16,o),
(107,38,c),
(107,60,o),
(89,76,o),
(68,76,c),
(44,76,o),
(30,58,o),
(30,38,c),
(30,18,o),
(44,0,o),
(68,0,c)
);
}
);
width = 138;
},
{
layerId = m003;
shapes = (
{
closed = 1;
nodes = (
(213,714,l),
(31,714,l),
(51,248,l),
(193,208,l)
);
},
{
closed = 1;
nodes = (
(173,0,o),
(213,38,o),
(213,91,c),
(213,143,o),
(173,183,o),
(122,183,c),
(70,183,o),
(30,143,o),
(30,91,c),
(30,39,o),
(69,0,o),
(122,0,c)
);
}
);
width = 243;
}
);
unicode = 33;
},
{
glyphname = exclamdown;
layers = (
{
layerId = m001;
shapes = (
{
closed = 1;
nodes = (
(94,626,o),
(108,644,o),
(108,664,c),
(108,684,o),
(94,702,o),
(70,702,c),
(49,702,o),
(31,686,o),
(31,664,c),
(31,642,o),
(49,626,o),
(70,626,c)
);
},
{
closed = 1;
nodes = (
(84,517,l),
(39,538,l),
(30,0,l),
(84,0,l)
);
}
);
width = 138;
},
{
layerId = m003;
shapes = (
{
closed = 1;
nodes = (
(173,531,o),
(213,571,o),
(213,623,c),
(213,675,o),
(174,714,o),
(121,714,c),
(70,714,o),
(30,676,o),
(30,623,c),
(30,571,o),
(70,531,o),
(121,531,c)
);
},
{
closed = 1;
nodes = (
(192,466,l),
(50,506,l),
(30,0,l),
(212,0,l)
);
}
);
width = 243;
}
);
unicode = 161;
},
{
glyphname = colon;
layers = (
{
layerId = m001;
shapes = (
{
closed = 1;
nodes = (
(89,365,o),
(107,381,o),
(107,403,c),
(107,425,o),
(89,441,o),
(68,441,c),
(44,441,o),
(30,423,o),
(30,403,c),
(30,383,o),
(44,365,o),
(68,365,c)
);
},
{
closed = 1;
nodes = (
(89,46,o),
(107,62,o),
(107,84,c),
(107,106,o),
(89,122,o),
(68,122,c),
(44,122,o),
(30,104,o),
(30,84,c),
(30,64,o),
(44,46,o),
(68,46,c)
);
}
);
width = 137;
},
{
layerId = m003;
shapes = (
{
closed = 1;
nodes = (
(173,293,o),
(213,331,o),
(213,384,c),
(213,436,o),
(173,476,o),
(122,476,c),
(70,476,o),
(30,436,o),
(30,384,c),
(30,332,o),
(69,293,o),
(122,293,c)
);
},
{
closed = 1;
nodes = (
(173,0,o),
(213,38,o),
(213,91,c),
(213,143,o),
(173,183,o),
(122,183,c),
(70,183,o),
(30,143,o),
(30,91,c),
(30,39,o),
(69,0,o),
(122,0,c)
);
}
);
width = 243;
}
);
unicode = 58;
},
{
glyphname = semicolon;
layers = (
{
layerId = m001;
shapes = (
{
closed = 1;
nodes = (
(104,365,o),
(122,381,o),
(122,403,c),
(122,425,o),
(104,441,o),
(83,441,c),
(59,441,o),
(45,423,o),
(45,403,c),
(45,383,o),
(59,365,o),
(83,365,c)
);
},
{
closed = 1;
nodes = (
(92,-34,o),
(122,18,o),
(122,79,c),
(122,98,o),
(109,122,o),
(83,122,c),
(57,122,o),
(45,102,o),
(45,83,c),
(45,73,o),
(55,45,o),
(81,45,c),
(80,8,o),
(54,-19,o),
(20,-37,c),
(36,-62,l)
);
}
);
width = 152;
},
{
layerId = m003;
shapes = (
{
closed = 1;
nodes = (
(174,293,o),
(214,331,o),
(214,384,c),
(214,436,o),
(174,476,o),
(123,476,c),
(71,476,o),
(31,436,o),
(31,384,c),
(31,332,o),
(70,293,o),
(123,293,c)
);
},
{
closed = 1;
nodes = (
(144,-84,o),
(213,-3,o),
(213,76,c),
(213,145,o),
(168,183,o),
(121,183,c),
(66,183,o),
(29,134,o),
(29,91,c),
(29,57,o),
(48,29,o),
(72,13,c),
(66,-6,o),
(37,-28,o),
(20,-38,c),
(56,-118,l)
);
}
);
width = 244;
}
);
unicode = 59;
},
{
glyphname = question;
layers = (
{
layerId = m001;
shapes = (
{
closed = 1;
nodes = (
(189,332,l),
(301,382,o),
(362,462,o),
(362,538,c),
(362,624,o),
(316,702,o),
(186,702,c),
(105,702,o),
(44,671,o),
(10,641,c),
(18,600,l),
(73,640,o),
(116,661,o),
(184,661,c),
(255,661,o),
(309,622,o),
(309,537,c),
(309,456,o),
(236,394,o),
(139,363,c),
(146,158,l),
(179,137,l)
);
},
{
closed = 1;
nodes = (
(175,0,o),
(193,16,o),
(193,38,c),
(193,60,o),
(175,76,o),
(154,76,c),
(130,76,o),
(116,58,o),
(116,38,c),
(116,18,o),
(130,0,o),
(154,0,c)
);
}
);
width = 392;
},
{
layerId = m003;
shapes = (
{
closed = 1;
nodes = (
(260,319,l),
(380,362,o),
(437,424,o),
(437,509,c),
(437,626,o),
(339,701,o),
(201,701,c),
(142,701,o),
(78,688,o),
(10,649,c),
(33,500,l),
(115,546,o),
(167,553,o),
(198,553,c),
(225,553,o),
(249,539,o),
(249,512,c),
(249,475,o),
(185,430,o),
(98,402,c),
(105,243,l),
(248,204,l)
);
},
{
closed = 1;
nodes = (
(218,0,o),
(258,38,o),
(258,91,c),
(258,143,o),
(218,183,o),
(167,183,c),
(115,183,o),
(75,143,o),
(75,91,c),
(75,39,o),
(114,0,o),
(167,0,c)
);
}
);
width = 467;
}
);
unicode = 63;
},
{
glyphname = questiondown;
layers = (
{
layerId = m001;
shapes = (
{
closed = 1;
nodes = (
(262,546,o),
(276,564,o),
(276,584,c),
(276,604,o),
(262,622,o),
(238,622,c),
(217,622,o),
(199,606,o),
(199,584,c),
(199,562,o),
(217,546,o),
(238,546,c)
);
},
{
closed = 1;
nodes = (
(287,-80,o),
(348,-49,o),
(382,-19,c),
(374,22,l),
(319,-18,o),
(276,-39,o),
(208,-39,c),
(137,-39,o),
(83,0,o),
(83,85,c),
(83,166,o),
(156,228,o),
(253,259,c),
(246,464,l),
(213,485,l),
(203,290,l),
(85,239,o),
(30,155,o),
(30,84,c),
(30,-6,o),
(80,-80,o),
(206,-80,c)
);
}
);
width = 392;
},
{
layerId = m003;
shapes = (
{
closed = 1;
nodes = (
(352,481,o),
(392,521,o),
(392,573,c),
(392,625,o),
(353,664,o),
(300,664,c),
(249,664,o),
(209,626,o),
(209,573,c),
(209,521,o),
(249,481,o),
(300,481,c)
);
},
{
closed = 1;
nodes = (
(325,-37,o),
(389,-24,o),
(457,15,c),
(434,164,l),
(352,118,o),
(300,111,o),
(269,111,c),
(242,111,o),
(218,125,o),
(218,152,c),
(218,189,o),
(282,234,o),
(369,262,c),
(362,421,l),
(219,460,l),
(207,345,l),
(89,304,o),
(30,242,o),
(30,155,c),
(30,43,o),
(122,-37,o),
(266,-37,c)
);
}
);
width = 467;
}
);
unicode = 191;
},
{
glyphname = asterisk;
layers = (
{
layerId = m001;
shapes = (
{
closed = 1;
nodes = (
(266,505,l),
(187,624,l),
(303,653,l),
(290,685,l),
(172,654,l),
(172,774,l),
(137,774,l),
(137,654,l),
(22,685,l),
(10,653,l),
(125,624,l),
(46,505,l),
(82,489,l),
(156,602,l),
(235,489,l)
);
}
);
width = 313;
},
{
layerId = m003;
shapes = (
{
closed = 1;
nodes = (
(392,477,l),
(320,568,l),
(414,585,l),
(380,714,l),
(285,686,l),
(285,782,l),
(141,782,l),
(141,686,l),
(44,714,l),
(10,585,l),
(104,568,l),
(32,477,l),
(149,403,l),
(212,496,l),
(275,403,l)
);
}
);
width = 424;
}
);
unicode = 42;
},
{
glyphname = quotedbl;
layers = (
{
layerId = m001;
shapes = (
{
closed = 1;
nodes = (
(215,546,o),
(245,598,o),
(245,659,c),
(245,678,o),
(232,702,o),
(206,702,c),
(180,702,o),
(168,682,o),
(168,663,c),
(168,650,o),
(179,625,o),
(204,625,c),
(203,588,o),
(177,561,o),
(143,543,c),
(159,518,l)
);
},
{
closed = 1;
nodes = (
(92,546,o),
(122,598,o),
(122,659,c),
(122,678,o),
(109,702,o),
(83,702,c),
(57,702,o),
(45,682,o),
(45,663,c),
(45,653,o),
(55,625,o),
(81,625,c),
(80,588,o),
(54,561,o),
(20,543,c),
(36,518,l)
);
}
);
width = 275;
},
{
layerId = m003;
shapes = (
{
closed = 1;
nodes = (
(354,475,o),
(423,556,o),
(423,635,c),
(423,704,o),
(378,742,o),
(331,742,c),
(276,742,o),
(239,693,o),
(239,650,c),
(239,615,o),
(260,586,o),
(282,572,c),
(276,553,o),
(247,531,o),
(230,521,c),
(266,441,l)
);
},
{
closed = 1;
nodes = (
(144,475,o),
(213,556,o),
(213,635,c),
(213,704,o),
(168,742,o),
(121,742,c),
(66,742,o),
(29,693,o),
(29,650,c),
(29,616,o),
(48,588,o),
(72,572,c),
(66,553,o),
(37,531,o),
(20,521,c),
(56,441,l)
);
}
);
width = 453;
}
);
unicode = 34;
},
{
glyphname = quotesingle;
layers = (
{
layerId = m001;
shapes = (
{
closed = 1;
nodes = (
(92,546,o),
(122,598,o),
(122,659,c),
(122,678,o),
(109,702,o),
(83,702,c),
(57,702,o),
(45,682,o),
(45,663,c),
(45,653,o),
(55,625,o),
(81,625,c),
(80,588,o),
(54,561,o),
(20,543,c),
(36,518,l)
);
}
);
width = 152;
},
{
layerId = m003;
shapes = (
{
closed = 1;
nodes = (
(144,475,o),
(213,556,o),
(213,635,c),
(213,704,o),
(168,742,o),
(121,742,c),
(66,742,o),
(29,693,o),
(29,650,c),
(29,616,o),
(48,588,o),
(72,572,c),
(66,553,o),
(37,531,o),
(20,521,c),
(56,441,l)
);
}
);
width = 243;
}
);
unicode = 39;
},
{
glyphname = quoteleft;
layers = (
{
layerId = m001;
shapes = (
{
closed = 1;
nodes = (
(94,518,o),
(107,537,o),
(107,557,c),
(107,570,o),
(96,595,o),
(71,595,c),
(72,632,o),
(98,659,o),
(132,677,c),
(116,702,l),
(60,676,o),
(30,622,o),
(30,561,c),
(30,542,o),
(43,518,o),
(69,518,c)
);
}
);
width = 152;
},
{
layerId = m003;
shapes = (
{
closed = 1;
nodes = (
(179,441,o),
(214,493,o),
(214,533,c),
(214,568,o),
(194,597,o),
(171,611,c),
(177,630,o),
(206,652,o),
(223,662,c),
(187,742,l),
(100,710,o),
(30,628,o),
(30,548,c),
(30,479,o),
(75,441,o),
(122,441,c)
);
}
);
width = 243;
}
);
unicode = 8216;
},
{
glyphname = quoteright;
layers = (
{
layerId = m001;
shapes = (
{
closed = 1;
nodes = (
(92,546,o),
(122,598,o),
(122,659,c),
(122,678,o),
(109,702,o),
(83,702,c),
(57,702,o),
(45,682,o),
(45,663,c),
(45,653,o),
(55,625,o),
(81,625,c),
(80,588,o),
(54,561,o),
(20,543,c),
(36,518,l)
);
}
);
width = 152;
},
{
layerId = m003;
shapes = (
{
closed = 1;
nodes = (
(144,475,o),
(213,556,o),
(213,635,c),
(213,704,o),
(168,742,o),
(121,742,c),
(66,742,o),
(29,693,o),
(29,650,c),
(29,616,o),
(48,588,o),
(72,572,c),
(66,553,o),
(37,531,o),
(20,521,c),
(56,441,l)
);
}
);
width = 243;
}
);
unicode = 8217;
},
{
glyphname = quotesinglbase;
layers = (
{
layerId = m001;
shapes = (
{
closed = 1;
nodes = (
(92,-80,o),
(122,-29,o),
(122,33,c),
(122,52,o),
(109,76,o),
(83,76,c),
(57,76,o),
(45,56,o),
(45,37,c),
(45,25,o),
(56,-1,o),
(81,-1,c),
(80,-38,o),
(54,-65,o),
(20,-83,c),
(36,-108,l)
);
}
);
width = 152;
},
{
layerId = m003;
shapes = (
{
closed = 1;
nodes = (
(144,-120,o),
(213,-39,o),
(213,40,c),
(213,109,o),
(168,147,o),
(121,147,c),
(66,147,o),
(29,98,o),
(29,55,c),
(29,21,o),
(48,-7,o),
(72,-23,c),
(66,-42,o),
(37,-64,o),
(20,-74,c),
(56,-154,l)
);
}
);
width = 243;
}
);
unicode = 8218;
},
{
glyphname = quotedblbase;
layers = (
{
layerId = m001;
shapes = (
{
closed = 1;
nodes = (
(92,-80,o),
(122,-29,o),
(122,33,c),
(122,52,o),
(109,76,o),
(83,76,c),
(57,76,o),
(45,56,o),
(45,37,c),
(45,25,o),
(56,-1,o),
(81,-1,c),
(80,-38,o),
(54,-65,o),
(20,-83,c),
(36,-108,l)
);
},
{
closed = 1;
nodes = (
(215,-80,o),
(245,-29,o),
(245,33,c),
(245,52,o),
(232,76,o),
(206,76,c),
(180,76,o),
(168,56,o),
(168,37,c),
(168,24,o),
(179,-1,o),
(204,-1,c),
(203,-38,o),
(177,-65,o),
(143,-83,c),
(159,-108,l)
);
}
);
width = 275;
},
{
layerId = m003;
shapes = (
{
closed = 1;
nodes = (
(144,-120,o),
(213,-39,o),
(213,40,c),
(213,109,o),
(168,147,o),
(121,147,c),
(66,147,o),
(29,98,o),
(29,55,c),
(29,21,o),
(48,-7,o),
(72,-23,c),
(66,-42,o),
(37,-64,o),
(20,-74,c),
(56,-154,l)
);
},
{
closed = 1;
nodes = (
(354,-120,o),
(423,-39,o),
(423,40,c),
(423,109,o),
(378,147,o),
(331,147,c),
(276,147,o),
(239,98,o),
(239,55,c),
(239,20,o),
(260,-9,o),
(282,-23,c),
(276,-42,o),
(247,-64,o),
(230,-74,c),
(266,-154,l)
);
}
);
width = 453;
}
);
unicode = 8222;
},
{
glyphname = periodcentered;
layers = (
{
layerId = m001;
shapes = (
{
closed = 1;
nodes = (
(89,224,o),
(107,240,o),
(107,262,c),
(107,284,o),
(89,300,o),
(68,300,c),
(44,300,o),
(30,282,o),
(30,262,c),
(30,242,o),
(44,224,o),
(68,224,c)
);
}
);
width = 137;
},
{
layerId = m003;
shapes = (
{
closed = 1;
nodes = (
(173,172,o),
(213,210,o),
(213,263,c),
(213,315,o),
(173,355,o),
(122,355,c),
(70,355,o),
(30,315,o),
(30,263,c),
(30,211,o),
(69,172,o),
(122,172,c)
);
}
);
width = 243;
}
);
unicode = 183;
},
{
glyphname = parenleft;
layers = (
{
layerId = m001;
shapes = (
{
closed = 1;
nodes = (
(209,-19,l),
(145,48,o),
(101,234,o),
(101,321,c),
(101,420,o),
(151,594,o),
(209,657,c),
(169,675,l),
(88,573,o),
(50,429,o),
(50,320,c),
(50,210,o),
(87,69,o),
(169,-37,c)
);
}
);
width = 239;
},
{
layerId = m003;
shapes = (
{
closed = 1;
nodes = (
(339,-1,l),
(278,74,o),
(232,223,o),
(232,322,c),
(232,436,o),
(290,574,o),
(340,645,c),
(177,682,l),
(96,565,o),
(50,450,o),
(50,321,c),
(50,189,o),
(98,66,o),
(177,-39,c)
);
}
);
width = 370;
}
);
unicode = 40;
},
{
glyphname = parenright;
layers = (
{
layerId = m001;
shapes = (
{
closed = 1;
nodes = (
(149,67,o),
(189,211,o),
(189,320,c),
(189,419,o),
(155,565,o),
(70,675,c),
(30,657,l),
(90,588,o),
(138,412,o),
(138,319,c),
(138,220,o),
(87,43,o),
(30,-19,c),
(70,-37,l)
);
}
);
width = 239;
},
{
layerId = m003;
shapes = (
{
closed = 1;
nodes = (
(279,83,o),
(320,201,o),
(320,322,c),
(320,454,o),
(271,581,o),
(193,682,c),
(31,644,l),
(92,569,o),
(138,420,o),
(138,321,c),
(138,216,o),
(86,78,o),
(30,-2,c),
(193,-39,l)
);
}
);
width = 370;
}
);
unicode = 41;
},
{
glyphname = bracketleft;
layers = (
{
layerId = m001;
shapes = (
{
closed = 1;
nodes = (
(247,-49,l),
(149,-49,l),
(149,657,l),
(247,657,l),
(255,696,l),
(100,696,l),
(100,-88,l),
(255,-88,l)
);
}
);
width = 265;
},
{
layerId = m003;
shapes = (
{
closed = 1;
nodes = (
(451,56,l),
(282,56,l),
(282,553,l),
(452,553,l),
(468,696,l),
(100,696,l),
(100,-87,l),
(468,-87,l)
);
}
);
width = 478;
}
);
unicode = 91;
},
{
glyphname = bracketright;
layers = (
{
layerId = m001;
shapes = (
{
closed = 1;
nodes = (
(165,696,l),
(10,696,l),
(18,657,l),
(116,657,l),
(116,-49,l),
(18,-49,l),
(10,-88,l),
(165,-88,l)
);
}
);
width = 265;
},
{
layerId = m003;
shapes = (
{
closed = 1;
nodes = (
(378,696,l),
(10,696,l),
(26,553,l),
(196,553,l),
(196,56,l),
(27,56,l),
(10,-87,l),
(378,-87,l)
);
}
);
width = 478;
}
);
unicode = 93;
},
{
glyphname = braceleft;
layers = (
{
layerId = m001;
shapes = (
{
closed = 1;
nodes = (
(246,-6,l),
(211,-6,l),
(177,-6,o),
(155,18,o),
(155,54,c),
(155,94,o),
(193,157,o),
(193,205,c),
(193,255,o),
(161,291,o),
(129,307,c),
(161,323,o),
(193,359,o),
(193,409,c),
(193,455,o),
(155,522,o),
(155,560,c),
(155,598,o),
(178,620,o),
(212,620,c),
(246,620,l),
(255,659,l),
(218,659,l),
(181,659,o),
(105,649,o),
(105,554,c),
(105,504,o),
(141,464,o),
(141,410,c),
(141,356,o),
(100,326,o),
(63,326,c),
(30,326,l),
(30,288,l),
(63,288,l),
(100,288,o),
(141,257,o),
(141,204,c),
(141,154,o),
(105,110,o),
(105,60,c),
(105,-1,o),
(142,-45,o),
(229,-45,c),
(255,-45,l)
);
}
);
width = 265;
},
{
layerId = m003;
shapes = (
{
closed = 1;
nodes = (
(326,103,l),
(298,103,l),
(271,103,o),
(251,112,o),
(251,138,c),
(251,171,o),
(286,218,o),
(286,248,c),
(286,284,o),
(266,300,o),
(252,310,c),
(266,320,o),
(286,334,o),
(286,372,c),
(286,406,o),
(251,437,o),
(251,472,c),
(251,509,o),
(271,517,o),
(298,517,c),
(326,517,l),
(339,659,l),
(226,659,l),
(125,659,o),
(84,607,o),
(84,533,c),
(84,486,o),
(117,442,o),
(117,411,c),
(117,387,o),
(95,373,o),
(75,373,c),
(30,373,l),
(30,247,l),
(75,247,l),
(95,247,o),
(117,233,o),
(117,209,c),
(117,177,o),
(84,132,o),
(84,87,c),
(84,13,o),
(125,-39,o),
(226,-39,c),
(339,-39,l)
);
}
);
width = 349;
}
);
unicode = 123;
},
{
glyphname = braceright;
layers = (
{
layerId = m001;
shapes = (
{
closed = 1;
nodes = (
(36,-45,l),
(123,-45,o),
(160,-1,o),
(160,60,c),
(160,110,o),
(124,154,o),
(124,204,c),
(124,257,o),
(165,288,o),
(202,288,c),
(235,288,l),
(235,326,l),
(202,326,l),
(165,326,o),
(124,356,o),
(124,410,c),
(124,464,o),
(160,504,o),
(160,554,c),
(160,649,o),
(84,659,o),
(47,659,c),
(10,659,l),
(19,620,l),
(53,620,l),
(87,620,o),
(110,598,o),
(110,560,c),
(110,522,o),
(72,455,o),
(72,409,c),
(72,359,o),
(104,323,o),
(136,307,c),
(104,291,o),
(72,255,o),
(72,205,c),
(72,157,o),
(110,94,o),
(110,54,c),
(110,18,o),
(88,-6,o),
(54,-6,c),
(19,-6,l),
(10,-45,l)
);
}
);
width = 265;
},
{
layerId = m003;
shapes = (
{
closed = 1;
nodes = (
(123,-39,l),
(224,-39,o),
(265,13,o),
(265,87,c),
(265,132,o),
(232,177,o),
(232,209,c),
(232,233,o),
(254,247,o),
(274,247,c),
(319,247,l),
(319,373,l),
(274,373,l),
(254,373,o),
(232,387,o),
(232,411,c),
(232,442,o),
(265,486,o),
(265,533,c),
(265,607,o),
(224,659,o),
(123,659,c),
(10,659,l),
(23,517,l),
(51,517,l),
(78,517,o),
(98,509,o),
(98,472,c),
(98,437,o),
(63,406,o),
(63,372,c),
(63,334,o),
(83,320,o),
(97,310,c),
(83,300,o),
(63,284,o),
(63,248,c),
(63,218,o),
(98,171,o),
(98,138,c),
(98,112,o),
(78,103,o),
(51,103,c),
(23,103,l),
(10,-39,l)
);
}
);
width = 349;
}
);
unicode = 125;
},
{
glyphname = slash;
layers = (
{
layerId = m001;
shapes = (
{
closed = 1;
nodes = (
(365,706,l),
(318,710,l),
(10,0,l),
(56,-4,l)
);
}
);
width = 375;
},
{
layerId = m003;
shapes = (
{
closed = 1;
nodes = (
(496,706,l),
(308,706,l),
(10,0,l),
(197,0,l)
);
}
);
width = 506;
}
);
unicode = 47;
},
{
glyphname = backslash;
layers = (
{
layerId = m001;
shapes = (
{
closed = 1;
nodes = (
(365,0,l),
(57,710,l),
(10,706,l),
(318,-4,l)
);
}
);
width = 375;
},
{
layerId = m003;
shapes = (
{
closed = 1;
nodes = (
(496,0,l),
(198,710,l),
(10,710,l),
(309,0,l)
);
}
);
width = 506;
}
);
unicode = 92;
},
{
glyphname = bar;
layers = (
{
layerId = m001;
shapes = (
{
closed = 1;
nodes = (
(149,706,l),
(100,710,l),
(100,0,l),
(149,-4,l)
);
}
);
width = 249;
},
{
layerId = m003;
shapes = (
{
closed = 1;
nodes = (
(262,697,l),
(80,713,l),
(80,0,l),
(262,-16,l)
);
}
);
width = 342;
}
);
unicode = 124;
},
{
glyphname = brokenbar;
layers = (
{
layerId = m001;
shapes = (
{
closed = 1;
nodes = (
(149,706,l),
(100,710,l),
(100,410,l),
(149,406,l)
);
},
{
closed = 1;
nodes = (
(149,288,l),
(100,292,l),
(100,0,l),
(149,-4,l)
);
}
);
width = 249;
},
{
layerId = m003;
shapes = (
{
closed = 1;
nodes = (
(262,697,l),
(80,713,l),
(80,410,l),
(262,394,l)
);
},
{
closed = 1;
nodes = (
(262,287,l),
(80,303,l),
(80,0,l),
(262,-16,l)
);
}
);
width = 342;
}
);
unicode = 166;
},
{
glyphname = guillemetleft;
layers = (
{
layerId = m001;
shapes = (
{
closed = 1;
nodes = (
(343,115,l),
(220,245,l),
(343,375,l),
(322,406,l),
(182,261,l),
(182,229,l),
(322,84,l)
);
},
{
closed = 1;
nodes = (
(191,115,l),
(69,245,l),
(191,375,l),
(170,406,l),
(30,261,l),
(30,229,l),
(170,84,l)
);
}
);
width = 363;
},
{
layerId = m003;
shapes = (
{
closed = 1;
nodes = (
(401,179,l),
(335,247,l),
(401,314,l),
(368,421,l),
(211,269,l),
(211,224,l),
(368,73,l)
);
},
{
closed = 1;
nodes = (
(220,179,l),
(154,247,l),
(220,314,l),
(187,421,l),
(30,269,l),
(30,224,l),
(187,73,l)
);
}
);
width = 421;
}
);
unicode = 171;
},
{
glyphname = guillemetright;
layers = (
{
layerId = m001;
shapes = (
{
closed = 1;
nodes = (
(181,229,l),
(181,261,l),
(41,406,l),
(20,375,l),
(143,245,l),
(20,115,l),
(41,84,l)
);
},
{
closed = 1;
nodes = (
(333,229,l),
(333,261,l),
(193,406,l),
(172,375,l),
(294,245,l),
(172,115,l),
(193,84,l)
);
}
);
width = 363;
},
{
layerId = m003;
shapes = (
{
closed = 1;
nodes = (
(210,225,l),
(210,270,l),
(53,421,l),
(20,315,l),
(86,247,l),
(20,180,l),
(53,73,l)
);
},
{
closed = 1;
nodes = (
(391,225,l),
(391,270,l),
(234,421,l),
(201,315,l),
(267,247,l),
(201,180,l),
(234,73,l)
);
}
);
width = 421;
}
);
unicode = 187;
},
{
glyphname = "pi-grek";
layers = (
{
layerId = m001;
shapes = (
{
closed = 1;
nodes = (
(431,446,l),
(531,446,l),
(531,485,l),
(10,485,l),
(10,446,l),
(109,446,l),
(109,0,l),
(158,0,l),
(158,446,l),
(382,446,l),
(382,0,l),
(431,0,l)
);
}
);
width = 541;
},
{
layerId = m003;
shapes = (
{
closed = 1;
nodes = (
(612,342,l),
(712,342,l),
(712,485,l),
(10,485,l),
(10,342,l),
(110,342,l),
(110,0,l),
(292,0,l),
(292,342,l),
(430,342,l),
(430,0,l),
(612,0,l)
);
}
);
width = 722;
}
);
unicode = 960;
},
{
glyphname = dagger;
layers = (
{
layerId = m001;
shapes = (
{
closed = 1;
nodes = (
(203,582,l),
(336,582,l),
(317,619,l),
(203,619,l),
(203,780,l),
(154,783,l),
(154,619,l),
(30,619,l),
(49,582,l),
(154,582,l),
(154,0,l),
(203,-4,l)
);
}
);
width = 366;
},
{
layerId = m003;
shapes = (
{
closed = 1;
nodes = (
(334,483,l),
(476,483,l),
(458,625,l),
(345,625,l),
(345,780,l),
(165,780,l),
(165,625,l),
(30,625,l),
(49,483,l),
(165,483,l),
(165,0,l),
(334,0,l)
);
}
);
width = 506;
}
);
unicode = 8224;
},
{
glyphname = daggerdbl;
layers = (
{
layerId = m001;
shapes = (
{
closed = 1;
nodes = (
(211,1,l),
(211,192,l),
(346,192,l),
(327,229,l),
(211,229,l),
(211,540,l),
(346,540,l),
(327,577,l),
(211,577,l),
(211,780,l),
(162,783,l),
(162,577,l),
(30,577,l),
(49,540,l),
(162,540,l),
(162,229,l),
(30,229,l),
(49,192,l),
(162,192,l),
(162,-6,l)
);
}
);
width = 376;
},
{
layerId = m003;
shapes = (
{
closed = 1;
nodes = (
(355,1,l),
(350,154,l),
(489,154,l),
(471,297,l),
(353,297,l),
(353,483,l),
(489,483,l),
(471,625,l),
(353,625,l),
(353,780,l),
(165,780,l),
(165,625,l),
(30,625,l),
(49,483,l),
(168,483,l),
(168,297,l),
(30,297,l),
(49,154,l),
(168,154,l),
(163,-6,l)
);
}
);
width = 519;
}
);
unicode = 8225;
},
{
glyphname = bullet;
layers = (
{
layerId = m001;
shapes = (
{
closed = 1;
nodes = (
(127,265,o),
(153,296,o),
(153,326,c),
(153,361,o),
(127,388,o),
(92,388,c),
(59,388,o),
(30,364,o),
(30,326,c),
(30,293,o),
(57,265,o),
(92,265,c)
);
}
);
width = 183;
},
{
layerId = m003;
shapes = (
{
closed = 1;
nodes = (
(221,208,o),
(278,262,o),
(278,331,c),
(278,400,o),
(221,455,o),
(153,455,c),
(84,455,o),
(30,399,o),
(30,331,c),
(30,263,o),
(84,208,o),
(153,208,c)
);
}
);
width = 308;
}
);
unicode = 8226;
},
{
glyphname = ellipsis;
layers = (
{
layerId = m001;
shapes = (
{
closed = 1;
nodes = (
(87,0,o),
(103,14,o),
(103,36,c),
(103,58,o),
(87,72,o),
(68,72,c),
(48,72,o),
(30,58,o),
(30,36,c),
(30,14,o),
(48,0,o),
(68,0,c)
);
},
{
closed = 1;
nodes = (
(199,0,o),
(215,14,o),
(215,36,c),
(215,58,o),
(199,72,o),
(180,72,c),
(160,72,o),
(142,58,o),
(142,36,c),
(142,14,o),
(160,0,o),
(180,0,c)
);
},
{
closed = 1;
nodes = (
(311,0,o),
(327,14,o),
(327,36,c),
(327,58,o),
(311,72,o),
(292,72,c),
(272,72,o),
(254,58,o),
(254,36,c),
(254,14,o),
(272,0,o),
(292,0,c)
);
}
);
width = 357;
},
{
layerId = m003;
shapes = (
{
closed = 1;
nodes = (
(160,0,o),
(196,35,o),
(196,83,c),
(196,130,o),
(160,166,o),
(113,166,c),
(66,166,o),
(30,130,o),
(30,83,c),
(30,35,o),
(66,0,o),
(113,0,c)
);
},
{
closed = 1;
nodes = (
(357,0,o),
(393,35,o),
(393,83,c),
(393,130,o),
(357,166,o),
(310,166,c),
(263,166,o),
(227,130,o),
(227,83,c),
(227,35,o),
(263,0,o),
(310,0,c)
);
},
{
closed = 1;
nodes = (
(554,0,o),
(590,35,o),
(590,83,c),
(590,130,o),
(554,166,o),
(507,166,c),
(460,166,o),
(424,130,o),
(424,83,c),
(424,32,o),
(464,0,o),
(507,0,c)
);
}
);
width = 620;
}
);
unicode = 8230;
},
{
glyphname = guilsinglleft;
layers = (
{
layerId = m001;
shapes = (
{
closed = 1;
nodes = (
(191,117,l),
(72,245,l),
(191,373,l),
(170,408,l),
(30,259,l),
(30,231,l),
(170,83,l)
);
}
);
width = 211;
},
{
layerId = m003;
shapes = (
{
closed = 1;
nodes = (
(250,194,l),
(184,252,l),
(250,309,l),
(217,446,l),
(30,284,l),
(30,219,l),
(217,58,l)
);
}
);
width = 270;
}
);
unicode = 8249;
},
{
glyphname = guilsinglright;
layers = (
{
layerId = m001;
shapes = (
{
closed = 1;
nodes = (
(181,232,l),
(181,260,l),
(41,408,l),
(20,374,l),
(139,246,l),
(20,118,l),
(41,83,l)
);
}
);
width = 211;
},
{
layerId = m003;
shapes = (
{
closed = 1;
nodes = (
(240,220,l),
(240,285,l),
(53,446,l),
(20,310,l),
(86,252,l),
(20,195,l),
(53,58,l)
);
}
);
width = 270;
}
);
unicode = 8250;
},
{
glyphname = hyphenminus;
layers = (
{
layerId = m001;
shapes = (
{
closed = 1;
nodes = (
(273,292,l),
(30,292,l),
(38,253,l),
(281,253,l)
);
}
);
width = 311;
},
{
layerId = m003;
shapes = (
{
closed = 1;
nodes = (
(312,345,l),
(30,345,l),
(41,202,l),
(322,202,l)
);
}
);
width = 352;
}
);
unicode = 45;
},
{
glyphname = underscore;
layers = (
{
layerId = m001;
shapes = (
{
closed = 1;
nodes = (
(391,39,l),
(30,39,l),
(38,0,l),
(399,0,l)
);
}
);
width = 429;
},
{
layerId = m003;
shapes = (
{
closed = 1;
nodes = (
(416,143,l),
(30,143,l),
(41,0,l),
(426,0,l)
);
}
);
width = 456;
}
);
unicode = 95;
},
{
glyphname = endash;
layers = (
{
layerId = m001;
shapes = (
{
closed = 1;
nodes = (
(394,293,l),
(30,293,l),
(38,254,l),
(402,254,l)
);
}
);
width = 432;
},
{
layerId = m003;
shapes = (
{
closed = 1;
nodes = (
(416,345,l),
(30,345,l),
(41,202,l),
(426,202,l)
);
}
);
width = 456;
}
);
unicode = 8211;
},
{
glyphname = emdash;
layers = (
{
layerId = m001;
shapes = (
{
closed = 1;
nodes = (
(486,293,l),
(30,293,l),
(38,254,l),
(494,254,l)
);
}
);
width = 524;
},
{
layerId = m003;
shapes = (
{
closed = 1;
nodes = (
(533,345,l),
(30,345,l),
(41,202,l),
(543,202,l)
);
}
);
width = 573;
}
);
unicode = 8212;
},
{
glyphname = numbersign;
layers = (
{
layerId = m001;
shapes = (
{
closed = 1;
nodes = (
(336,140,l),
(467,140,l),
(460,179,l),
(346,179,l),
(384,332,l),
(467,332,l),
(460,371,l),
(394,371,l),
(427,502,l),
(380,502,l),
(347,371,l),
(216,371,l),
(249,502,l),
(202,502,l),
(169,371,l),
(30,371,l),
(38,332,l),
(159,332,l),
(121,179,l),
(30,179,l),
(38,140,l),
(111,140,l),
(77,4,l),
(123,0,l),
(158,140,l),
(289,140,l),
(255,4,l),
(301,0,l)
);
},
{
closed = 1;
nodes = (
(168,179,l),
(206,332,l),
(337,332,l),
(299,179,l)
);
}
);
width = 497;
},
{
layerId = m003;
shapes = (
{
closed = 1;
nodes = (
(478,82,l),
(617,82,l),
(607,215,l),
(510,215,l),
(528,293,l),
(617,293,l),
(607,426,l),
(560,426,l),
(582,517,l),
(433,517,l),
(411,426,l),
(316,426,l),
(338,517,l),
(189,517,l),
(167,426,l),
(30,426,l),
(41,293,l),
(135,293,l),
(117,215,l),
(30,215,l),
(41,82,l),
(85,82,l),
(64,-10,l),
(211,-15,l),
(234,82,l),
(329,82,l),
(308,-10,l),
(455,-15,l)
);
},
{
closed = 1;
nodes = (
(266,215,l),
(284,293,l),
(379,293,l),
(361,215,l)
);
}
);
width = 647;
}
);
unicode = 35;
},
{
glyphname = percent;
layers = (
{
layerId = m001;
shapes = (
{
closed = 1;
nodes = (
(573,706,l),
(526,710,l),
(218,0,l),
(264,-4,l)
);
},
{
closed = 1;
nodes = (
(276,363,o),
(344,429,o),
(344,532,c),
(344,640,o),
(284,702,o),
(192,702,c),
(110,702,o),
(40,639,o),
(40,532,c),
(40,419,o),
(110,363,o),
(193,363,c)
);
},
{
closed = 1;
nodes = (
(141,400,o),
(87,444,o),
(87,532,c),
(87,623,o),
(143,665,o),
(192,665,c),
(249,665,o),
(297,621,o),
(297,532,c),
(297,443,o),
(244,400,o),
(193,400,c)
);
},
{
closed = 1;
nodes = (
(701,-1,o),
(769,65,o),
(769,168,c),
(769,276,o),
(709,338,o),
(617,338,c),
(535,338,o),
(465,275,o),
(465,168,c),
(465,53,o),
(536,-1,o),
(618,-1,c)
);
},
{
closed = 1;
nodes = (
(566,36,o),
(512,80,o),
(512,168,c),
(512,258,o),
(568,300,o),
(617,300,c),
(674,300,o),
(722,257,o),
(722,168,c),
(722,79,o),
(669,36,o),
(618,36,c)
);
}
);
width = 809;
},
{
layerId = m003;
shapes = (
{
closed = 1;
nodes = (
(730,706,l),
(542,706,l),
(244,0,l),
(431,0,l)
);
},
{
closed = 1;
nodes = (
(309,337,o),
(382,406,o),
(382,517,c),
(382,628,o),
(317,702,o),
(200,702,c),
(90,702,o),
(20,632,o),
(20,519,c),
(20,411,o),
(79,337,o),
(195,337,c)
);
},
{
closed = 1;
nodes = (
(170,458,o),
(158,477,o),
(158,519,c),
(158,561,o),
(176,578,o),
(202,578,c),
(231,578,o),
(244,559,o),
(244,517,c),
(244,477,o),
(229,458,o),
(198,458,c)
);
},
{
closed = 1;
nodes = (
(881,1,o),
(954,70,o),
(954,181,c),
(954,292,o),
(889,366,o),
(772,366,c),
(662,366,o),
(592,296,o),
(592,183,c),
(592,75,o),
(651,1,o),
(767,1,c)
);
},
{
closed = 1;
nodes = (
(742,122,o),
(730,141,o),
(730,183,c),
(730,225,o),
(748,242,o),
(774,242,c),
(803,242,o),
(816,223,o),
(816,181,c),
(816,141,o),
(801,122,o),
(770,122,c)
);
}
);
width = 974;
}
);
unicode = 37;
},
{
glyphname = _348;
layers = (
{
layerId = m001;
shapes = (
{
closed = 1;
nodes = (
(294,309,o),
(361,374,o),
(361,457,c),
(361,541,o),
(294,606,o),
(211,606,c),
(130,606,o),
(63,541,o),
(63,457,c),
(63,374,o),
(128,312,o),
(211,309,c)
);
},
{
closed = 1;
nodes = (
(153,349,o),
(104,395,o),
(104,457,c),
(104,518,o),
(153,565,o),
(211,565,c),
(274,565,o),
(321,517,o),
(321,457,c),
(321,395,o),
(274,349,o),
(211,349,c)
);
},
{
closed = 1;
nodes = (
(262,172,l),
(262,230,l),
(260,230,l),
(59,0,l),
(111,0,l)
);
},
{
closed = 1;
nodes = (
(550,-6,o),
(618,58,o),
(618,143,c),
(618,227,o),
(550,291,o),
(469,291,c),
(386,291,o),
(320,226,o),
(320,143,c),
(320,59,o),
(386,-6,o),
(469,-6,c)
);
},
{
closed = 1;
nodes = (
(408,35,o),
(360,83,o),
(360,143,c),
(360,202,o),
(408,251,o),
(469,251,c),
(529,251,o),
(577,202,o),
(577,143,c),
(577,82,o),
(529,35,o),
(469,35,c)
);
},
{
closed = 1;
nodes = (
(629,600,l),
(577,600,l),
(427,429,l),
(427,371,l),
(429,371,l)
);
}
);
width = 682;
},
{
layerId = m003;
shapes = (
{
closed = 1;
nodes = (
(288,262,o),
(362,338,o),
(362,434,c),
(362,529,o),
(288,605,o),
(192,605,c),
(97,605,o),
(21,529,o),
(21,434,c),
(21,338,o),
(96,262,o),
(192,262,c)
);
},
{
closed = 1;
nodes = (
(172,399,o),
(157,411,o),
(157,434,c),
(157,453,o),
(172,468,o),
(192,468,c),
(212,468,o),
(225,452,o),
(225,434,c),
(225,411,o),
(212,399,o),
(192,399,c)
);
},
{
closed = 1;
nodes = (
(239,83,l),
(239,243,l),
(237,243,l),
(5,0,l),
(156,0,l)
);
},
{
closed = 1;
nodes = (
(543,-10,o),
(618,66,o),
(618,162,c),
(618,257,o),
(544,333,o),
(448,333,c),
(353,333,o),
(277,257,o),
(277,162,c),
(277,67,o),
(352,-10,o),
(448,-10,c)
);
},
{
closed = 1;
nodes = (
(431,127,o),
(413,139,o),
(413,162,c),
(413,181,o),
(428,196,o),
(447,196,c),
(468,196,o),
(481,180,o),
(481,162,c),
(481,141,o),
(465,127,o),
(447,127,c)
);
},
{
closed = 1;
nodes = (
(636,600,l),
(484,600,l),
(401,517,l),
(401,357,l),
(403,357,l)
);
}
);
width = 651;
}
);
},
{
glyphname = plus;
layers = (
{
layerId = m001;
shapes = (
{
closed = 1;
nodes = (
(287,255,l),
(497,255,l),
(487,292,l),
(287,292,l),
(287,531,l),
(238,534,l),
(238,292,l),
(30,292,l),
(38,255,l),
(238,255,l),
(238,8,l),
(287,4,l)
);
}
);
width = 527;
},
{
layerId = m003;
shapes = (
{
closed = 1;
nodes = (
(376,202,l),
(553,202,l),
(543,345,l),
(376,345,l),
(376,530,l),
(208,530,l),
(208,345,l),
(30,345,l),
(41,202,l),
(208,202,l),
(208,8,l),
(376,0,l)
);
}
);
width = 583;
}
);
unicode = 43;
},
{
glyphname = divide;
layers = (
{
layerId = m001;
shapes = (
{
closed = 1;
nodes = (
(269,377,o),
(287,393,o),
(287,415,c),
(287,437,o),
(269,453,o),
(248,453,c),
(224,453,o),
(210,435,o),
(210,415,c),
(210,395,o),
(224,377,o),
(248,377,c)
);
},
{
closed = 1;
nodes = (
(457,292,l),
(30,292,l),
(38,255,l),
(467,255,l)
);
},
{
closed = 1;
nodes = (
(272,74,o),
(290,90,o),
(290,112,c),
(290,134,o),
(272,150,o),
(251,150,c),
(227,150,o),
(213,132,o),
(213,112,c),
(213,92,o),
(227,74,o),
(251,74,c)
);
}
);
width = 497;
},
{
layerId = m003;
shapes = (
{
closed = 1;
nodes = (
(307,368,o),
(347,406,o),
(347,459,c),
(347,511,o),
(307,551,o),
(256,551,c),
(204,551,o),
(164,511,o),
(164,459,c),
(164,407,o),
(203,368,o),
(256,368,c)
);
},
{
closed = 1;
nodes = (
(472,340,l),
(30,340,l),
(41,207,l),
(482,207,l)
);
},
{
closed = 1;
nodes = (
(307,0,o),
(347,38,o),
(347,91,c),
(347,143,o),
(307,183,o),
(256,183,c),
(204,183,o),
(164,143,o),
(164,91,c),
(164,39,o),
(203,0,o),
(256,0,c)
);
}
);
width = 512;
}
);
unicode = 247;
},
{
glyphname = multiply;
layers = (
{
layerId = m001;
shapes = (
{
closed = 1;
nodes = (
(257,245,l),
(440,464,l),
(389,464,l),
(236,288,l),
(96,464,l),
(47,464,l),
(213,250,l),
(30,31,l),
(81,31,l),
(231,207,l),
(374,31,l),
(423,31,l)
);
}
);
width = 470;
},
{
layerId = m003;
shapes = (
{
closed = 1;
nodes = (
(385,250,l),
(577,484,l),
(392,484,l),
(303,378,l),
(228,484,l),
(47,484,l),
(222,263,l),
(30,29,l),
(215,29,l),
(303,135,l),
(379,29,l),
(560,29,l)
);
}
);
width = 607;
}
);
unicode = 215;
},
{
glyphname = plusminus;
layers = (
{
layerId = m001;
shapes = (
{
closed = 1;
nodes = (
(266,308,l),
(455,308,l),
(447,345,l),
(266,345,l),
(266,531,l),
(217,534,l),
(217,345,l),
(30,345,l),
(38,308,l),
(217,308,l),
(217,113,l),
(266,108,l)
);
},
{
closed = 1;
nodes = (
(454,37,l),
(30,37,l),
(38,0,l),
(462,0,l)
);
}
);
width = 492;
},
{
layerId = m003;
shapes = (
{
closed = 1;
nodes = (
(348,292,l),
(515,292,l),
(505,415,l),
(348,415,l),
(348,570,l),
(200,570,l),
(200,415,l),
(32,415,l),
(43,292,l),
(200,292,l),
(200,157,l),
(348,149,l)
);
},
{
closed = 1;
nodes = (
(503,123,l),
(30,123,l),
(41,0,l),
(513,0,l)
);
}
);
width = 545;
}
);
unicode = 177;
},
{
glyphname = less;
layers = (
{
layerId = m001;
shapes = (
{
closed = 1;
nodes = (
(302,54,l),
(76,245,l),
(302,436,l),
(279,470,l),
(30,259,l),
(30,231,l),
(279,19,l)
);
}
);
width = 322;
},
{
layerId = m003;
shapes = (
{
closed = 1;
nodes = (
(362,157,l),
(227,253,l),
(362,348,l),
(329,505,l),
(30,293,l),
(30,212,l),
(329,-2,l)
);
}
);
width = 382;
}
);
unicode = 60;
},
{
glyphname = equal;
layers = (
{
layerId = m001;
shapes = (
{
closed = 1;
nodes = (
(460,371,l),
(30,371,l),
(38,332,l),
(467,332,l)
);
},
{
closed = 1;
nodes = (
(460,179,l),
(30,179,l),
(38,140,l),
(467,140,l)
);
}
);
width = 497;
},
{
layerId = m003;
shapes = (
{
closed = 1;
nodes = (
(503,426,l),
(30,426,l),
(41,293,l),
(513,293,l)
);
},
{
closed = 1;
nodes = (
(503,215,l),
(30,215,l),
(41,82,l),
(513,82,l)
);
}
);
width = 543;
}
);
unicode = 61;
},
{
glyphname = greater;
layers = (
{
layerId = m001;
shapes = (
{
closed = 1;
nodes = (
(292,230,l),
(292,258,l),
(43,470,l),
(20,435,l),
(246,244,l),
(20,53,l),
(43,19,l)
);
}
);
width = 322;
},
{
layerId = m003;
shapes = (
{
closed = 1;
nodes = (
(352,210,l),
(352,291,l),
(53,505,l),
(20,346,l),
(155,250,l),
(20,155,l),
(53,-2,l)
);
}
);
width = 382;
}
);
unicode = 62;
},
{
glyphname = degree;
layers = (
{
layerId = m001;
shapes = (
{
closed = 1;
nodes = (
(176,498,o),
(223,538,o),
(223,599,c),
(223,659,o),
(176,702,o),
(116,702,c),
(56,702,o),
(10,657,o),
(10,599,c),
(10,539,o),
(57,498,o),
(116,498,c)
);
},
{
closed = 1;
nodes = (
(74,529,o),
(50,569,o),
(50,600,c),
(50,631,o),
(72,670,o),
(116,670,c),
(160,670,o),
(184,631,o),
(184,600,c),
(184,569,o),
(167,529,o),
(120,529,c)
);
}
);
width = 243;
},
{
layerId = m003;
shapes = (
{
closed = 1;
nodes = (
(220,457,o),
(285,512,o),
(285,588,c),
(285,664,o),
(218,720,o),
(148,720,c),
(73,720,o),
(10,663,o),
(10,588,c),
(10,512,o),
(72,457,o),
(148,457,c)
);
},
{
closed = 1;
nodes = (
(135,560,o),
(123,575,o),
(123,588,c),
(123,601,o),
(135,614,o),
(149,614,c),
(164,614,o),
(175,600,o),
(175,586,c),
(175,573,o),
(164,560,o),
(149,560,c)
);
}
);
width = 295;
}
);
unicode = 176;
},
{
glyphname = onesuperior;
layers = (
{
layerId = m001;
shapes = (
{
closed = 1;
nodes = (
(160,765,l),
(136,765,l),
(10,700,l),
(33,675,l),
(117,716,l),
(117,336,l),
(160,336,l)
);
}
);
width = 240;
},
{
layerId = m003;
shapes = (
{
closed = 1;
nodes = (
(276,764,l),
(185,764,l),
(10,683,l),
(45,566,l),
(139,608,l),
(139,337,l),
(276,337,l)
);
}
);
width = 336;
}
);
unicode = 185;
},
{
glyphname = twosuperior;
layers = (
{
layerId = m001;
shapes = (
{
closed = 1;
nodes = (
(316,369,l),
(76,369,l),
(239,513,o),
(308,564,o),
(308,653,c),
(308,705,o),
(271,771,o),
(172,771,c),
(119,771,o),
(60,750,o),
(29,733,c),
(46,702,l),
(72,714,o),
(129,736,o),
(170,736,c),
(240,736,o),
(263,683,o),
(263,647,c),
(263,579,o),
(196,528,o),
(25,373,c),
(25,336,l),
(322,336,l)
);
}
);
width = 342;
},
{
layerId = m003;
shapes = (
{
closed = 1;
nodes = (
(352,444,l),
(229,444,l),
(293,502,o),
(347,551,o),
(347,643,c),
(347,693,o),
(314,771,o),
(180,771,c),
(113,771,o),
(62,746,o),
(15,716,c),
(73,626,l),
(116,649,o),
(142,660,o),
(174,660,c),
(207,660,o),
(226,649,o),
(226,630,c),
(223,587,o),
(178,553,o),
(35,427,c),
(35,337,l),
(364,337,l)
);
}
);
width = 384;
}
);
unicode = 178;
},
{
glyphname = threesuperior;
layers = (
{
layerId = m001;
shapes = (
{
closed = 1;
nodes = (
(254,278,o),
(309,344,o),
(309,416,c),
(309,481,o),
(276,526,o),
(220,538,c),
(264,553,o),
(300,594,o),
(300,651,c),
(300,714,o),
(259,771,o),
(155,771,c),
(98,771,o),
(53,755,o),
(9,727,c),
(31,697,l),
(58,714,o),
(98,735,o),
(154,735,c),
(220,735,o),
(254,692,o),
(254,650,c),
(254,578,o),
(216,552,o),
(156,552,c),
(96,552,l),
(103,519,l),
(139,519,l),
(175,519,o),
(264,519,o),
(264,415,c),
(264,350,o),
(202,317,o),
(147,317,c),
(94,317,o),
(61,327,o),
(24,350,c),
(0,318,l),
(34,299,o),
(86,278,o),
(143,278,c)
);
}
);
width = 354;
},
{
layerId = m003;
shapes = (
{
closed = 1;
nodes = (
(300,279,o),
(383,337,o),
(383,428,c),
(383,472,o),
(353,522,o),
(318,541,c),
(348,556,o),
(374,606,o),
(374,638,c),
(374,718,o),
(302,771,o),
(191,771,c),
(133,771,o),
(70,758,o),
(16,716,c),
(81,623,l),
(114,646,o),
(148,660,o),
(177,660,c),
(217,660,o),
(234,644,o),
(234,626,c),
(234,601,o),
(208,585,o),
(163,585,c),
(102,585,l),
(113,477,l),
(190,477,l),
(217,477,o),
(242,463,o),
(242,432,c),
(242,409,o),
(218,389,o),
(183,389,c),
(147,389,o),
(114,402,o),
(73,427,c),
(0,336,l),
(61,296,o),
(131,279,o),
(182,279,c)
);
}
);
width = 408;
}
);
unicode = 179;
},
{
glyphname = estimated;
layers = (
{
layerId = m001;
shapes = (
{
closed = 1;
nodes = (
(305,-13,o),
(382,-1,o),
(425,25,c),
(405,62,l),
(368,43,o),
(329,28,o),
(262,28,c),
(138,28,o),
(93,131,o),
(91,242,c),
(440,242,l),
(440,248,l),
(440,399,o),
(361,498,o),
(252,498,c),
(169,498,o),
(111,458,o),
(76,397,c),
(52,354,o),
(40,302,o),
(40,245,c),
(40,106,o),
(101,-13,o),
(270,-13,c)
);
},
{
closed = 1;
nodes = (
(93,279,l),
(100,342,o),
(129,457,o),
(245,457,c),
(343,457,o),
(380,371,o),
(388,279,c)
);
}
);
width = 480;
},
{
layerId = m003;
shapes = (
{
closed = 1;
nodes = (
(398,-11,o),
(477,15,o),
(512,41,c),
(461,164,l),
(430,148,o),
(385,131,o),
(328,131,c),
(266,131,o),
(232,157,o),
(218,197,c),
(513,197,l),
(513,250,l),
(513,370,o),
(452,502,o),
(281,502,c),
(198,502,o),
(119,471,o),
(70,406,c),
(39,365,o),
(20,310,o),
(20,242,c),
(20,68,o),
(154,-11,o),
(310,-11,c)
);
},
{
closed = 1;
nodes = (
(213,287,l),
(213,329,o),
(246,356,o),
(276,356,c),
(323,356,o),
(339,312,o),
(339,287,c)
);
}
);
width = 533;
}
);
unicode = 8494;
},
{
glyphname = partialdifferential;
layers = (
{
layerId = m001;
shapes = (
{
closed = 1;
nodes = (
(411,-11,o),
(483,106,o),
(483,240,c),
(483,474,o),
(360,652,o),
(114,750,c),
(101,718,l),
(341,612,o),
(432,436,o),
(432,239,c),
(432,135,o),
(374,28,o),
(259,28,c),
(144,28,o),
(91,136,o),
(91,246,c),
(91,351,o),
(150,457,o),
(264,457,c),
(324,457,o),
(381,426,o),
(422,381,c),
(444,402,l),
(397,461,o),
(347,498,o),
(265,498,c),
(122,498,o),
(40,389,o),
(40,245,c),
(40,109,o),
(103,-11,o),
(259,-13,c)
);
}
);
width = 523;
},
{
layerId = m003;
shapes = (
{
closed = 1;
nodes = (
(460,-11,o),
(570,92,o),
(570,254,c),
(570,456,o),
(420,681,o),
(114,750,c),
(53,638,l),
(297,574,o),
(382,414,o),
(382,240,c),
(382,172,o),
(351,137,o),
(293,137,c),
(235,137,o),
(208,185,o),
(208,245,c),
(208,318,o),
(244,354,o),
(297,354,c),
(325,354,o),
(392,343,o),
(438,288,c),
(517,391,l),
(468,454,o),
(346,502,o),
(275,502,c),
(154,502,o),
(20,419,o),
(20,245,c),
(20,66,o),
(154,-11,o),
(302,-11,c)
);
}
);
width = 590;
}
);
unicode = 8706;
},
{
glyphname = naryproduct;
layers = (
{
layerId = m001;
shapes = (
{
closed = 1;
nodes = (
(498,680,l),
(100,680,l),
(100,0,l),
(149,0,l),
(149,641,l),
(449,641,l),
(449,0,l),
(498,0,l)
);
}
);
width = 598;
},
{
layerId = m003;
shapes = (
{
closed = 1;
nodes = (
(682,680,l),
(80,680,l),
(80,0,l),
(261,0,l),
(261,537,l),
(500,537,l),
(500,0,l),
(682,0,l)
);
}
);
width = 762;
}
);
unicode = 8719;
},
{
glyphname = narysummation;
layers = (
{
layerId = m001;
shapes = (
{
closed = 1;
nodes = (
(412,50,l),
(93,50,l),
(285,330,l),
(285,360,l),
(93,635,l),
(396,635,l),
(390,680,l),
(30,680,l),
(30,635,l),
(235,345,l),
(30,50,l),
(30,0,l),
(417,0,l)
);
}
);
width = 437;
},
{
layerId = m003;
shapes = (
{
closed = 1;
nodes = (
(464,143,l),
(236,143,l),
(351,316,l),
(351,374,l),
(237,537,l),
(451,537,l),
(434,680,l),
(32,680,l),
(32,550,l),
(180,344,l),
(30,130,l),
(30,0,l),
(481,0,l)
);
}
);
width = 501;
}
);
unicode = 8721;
},
{
glyphname = minus;
layers = (
{
layerId = m001;
shapes = (
{
closed = 1;
nodes = (
(428,293,l),
(30,293,l),
(38,254,l),
(436,254,l)
);
}
);
width = 466;
},
{
layerId = m003;
shapes = (
{
closed = 1;
nodes = (
(456,345,l),
(30,345,l),
(41,202,l),
(466,202,l)
);
}
);
width = 496;
}
);
unicode = 8722;
},
{
glyphname = squareroot;
layers = (
{
layerId = m001;
shapes = (
{
closed = 1;
nodes = (
(512,706,l),
(464,710,l),
(199,56,l),
(58,321,l),
(10,317,l),
(180,0,l),
(218,-4,l)
);
}
);
width = 522;
},
{
layerId = m003;
shapes = (
{
closed = 1;
nodes = (
(750,706,l),
(566,706,l),
(329,139,l),
(215,351,l),
(10,351,l),
(200,0,l),
(452,0,l)
);
}
);
width = 760;
}
);
unicode = 8730;
},
{
glyphname = infinity;
layers = (
{
layerId = m001;
shapes = (
{
closed = 1;
nodes = (
(712,46,o),
(778,150,o),
(778,258,c),
(778,371,o),
(712,458,o),
(585,458,c),
(513,458,o),
(451,390,o),
(422,331,c),
(387,398,o),
(307,458,o),
(235,458,c),
(116,458,o),
(40,364,o),
(40,246,c),
(40,132,o),
(107,46,o),
(233,46,c),
(301,46,o),
(364,108,o),
(397,173,c),
(429,114,o),
(504,46,o),
(583,46,c)
);
},
{
closed = 1;
nodes = (
(507,89,o),
(453,154,o),
(421,213,c),
(435,256,o),
(489,415,o),
(582,415,c),
(671,415,o),
(729,355,o),
(729,259,c),
(729,157,o),
(671,89,o),
(582,89,c)
);
},
{
closed = 1;
nodes = (
(149,89,o),
(89,147,o),
(89,245,c),
(89,356,o),
(155,415,o),
(237,415,c),
(306,415,o),
(364,356,o),
(397,291,c),
(378,235,o),
(328,89,o),
(237,89,c)
);
}
);
width = 818;
},
{
layerId = m003;
shapes = (
{
closed = 1;
nodes = (
(754,0,o),
(854,106,o),
(854,252,c),
(854,408,o),
(750,494,o),
(604,494,c),
(542,494,o),
(470,457,o),
(442,414,c),
(415,446,o),
(353,494,o),
(268,494,c),
(133,494,o),
(20,407,o),
(20,242,c),
(20,95,o),
(128,0,o),
(270,0,c),
(334,0,o),
(407,40,o),
(432,80,c),
(470,38,o),
(530,0,o),
(606,0,c)
);
},
{
closed = 1;
nodes = (
(560,167,o),
(530,189,o),
(508,215,c),
(513,227,o),
(547,327,o),
(598,327,c),
(644,327,o),
(676,292,o),
(676,255,c),
(676,210,o),
(646,167,o),
(598,167,c)
);
},
{
closed = 1;
nodes = (
(230,167,o),
(198,204,o),
(198,239,c),
(198,287,o),
(231,327,o),
(276,327,c),
(312,327,o),
(343,308,o),
(366,279,c),
(353,243,o),
(328,167,o),
(276,167,c)
);
}
);
width = 874;
}
);
unicode = 8734;
},
{
glyphname = integral;
layers = (
{
layerId = m001;
shapes = (
{
closed = 1;
nodes = (
(138,-179,o),
(171,-125,o),
(171,-40,c),
(171,660,l),
(171,707,o),
(188,742,o),
(240,742,c),
(254,742,o),
(273,737,o),
(281,733,c),
(293,770,l),
(283,775,o),
(257,783,o),
(227,783,c),
(157,783,o),
(122,731,o),
(122,644,c),
(122,-56,l),
(122,-103,o),
(105,-138,o),
(53,-138,c),
(39,-138,o),
(20,-133,o),
(12,-129,c),
(0,-166,l),
(15,-170,o),
(34,-179,o),
(66,-179,c)
);
}
);
width = 293;
},
{
layerId = m003;
shapes = (
{
closed = 1;
nodes = (
(236,-179,o),
(371,-130,o),
(371,14,c),
(371,570,l),
(371,608,o),
(393,635,o),
(438,635,c),
(454,635,o),
(484,630,o),
(508,616,c),
(560,740,l),
(537,761,o),
(473,783,o),
(426,783,c),
(308,783,o),
(189,726,o),
(189,590,c),
(189,34,l),
(189,-4,o),
(167,-31,o),
(122,-31,c),
(106,-31,o),
(76,-26,o),
(52,-12,c),
(0,-136,l),
(24,-156,o),
(85,-179,o),
(134,-179,c)
);
}
);
width = 560;
}
);
unicode = 8747;
},
{
glyphname = almostequalto;
layers = (
{
layerId = m001;
shapes = (
{
closed = 1;
nodes = (
(408,302,o),
(464,324,o),
(472,372,c),
(434,381,l),
(426,354,o),
(393,342,o),
(362,342,c),
(297,342,o),
(216,387,o),
(139,387,c),
(94,387,o),
(38,365,o),
(30,317,c),
(68,308,l),
(78,336,o),
(107,347,o),
(140,347,c),
(211,347,o),
(310,302,o),
(363,302,c)
);
},
{
closed = 1;
nodes = (
(408,120,o),
(464,142,o),
(472,190,c),
(434,199,l),
(426,172,o),
(393,160,o),
(362,160,c),
(297,160,o),
(216,205,o),
(139,205,c),
(94,205,o),
(38,183,o),
(30,135,c),
(68,126,l),
(78,154,o),
(107,165,o),
(140,165,c),
(211,165,o),
(310,120,o),
(363,120,c)
);
}
);
width = 502;
},
{
layerId = m003;
shapes = (
{
closed = 1;
nodes = (
(492,292,o),
(535,339,o),
(535,452,c),
(409,472,l),
(409,455,o),
(395,423,o),
(367,423,c),
(316,423,o),
(257,457,o),
(190,457,c),
(83,457,o),
(30,399,o),
(30,297,c),
(156,277,l),
(156,299,o),
(195,326,o),
(218,326,c),
(281,326,o),
(337,292,o),
(399,292,c)
);
},
{
closed = 1;
nodes = (
(499,86,o),
(535,146,o),
(535,246,c),
(409,266,l),
(409,249,o),
(395,217,o),
(367,217,c),
(316,217,o),
(257,251,o),
(190,251,c),
(90,251,o),
(30,205,o),
(30,91,c),
(156,71,l),
(156,93,o),
(195,120,o),
(218,120,c),
(281,120,o),
(337,86,o),
(399,86,c)
);
}
);
width = 565;
}
);
unicode = 8776;
},
{
glyphname = notequalto;
layers = (
{
layerId = m001;
shapes = (
{
closed = 1;
nodes = (
(221,140,l),
(467,140,l),
(460,179,l),
(238,179,l),
(305,332,l),
(467,332,l),
(460,371,l),
(322,371,l),
(388,519,l),
(343,523,l),
(276,371,l),
(30,371,l),
(38,332,l),
(259,332,l),
(192,179,l),
(30,179,l),
(38,140,l),
(175,140,l),
(109,-10,l),
(153,-14,l)
);
}
);
width = 497;
},
{
layerId = m003;
shapes = (
{
closed = 1;
nodes = (
(290,72,l),
(543,72,l),
(533,215,l),
(353,215,l),
(385,286,l),
(543,286,l),
(533,429,l),
(449,429,l),
(488,517,l),
(319,517,l),
(278,429,l),
(30,429,l),
(41,286,l),
(215,286,l),
(184,215,l),
(30,215,l),
(41,72,l),
(120,72,l),
(84,-10,l),
(251,-10,l)
);
}
);
width = 573;
}
);
unicode = 8800;
},
{
glyphname = lessthanorequalto;
layers = (
{
layerId = m001;
shapes = (
{
closed = 1;
nodes = (
(302,143,l),
(81,291,l),
(302,437,l),
(279,470,l),
(30,305,l),
(30,277,l),
(279,113,l)
);
},
{
closed = 1;
nodes = (
(293,39,l),
(31,39,l),
(39,0,l),
(299,0,l)
);
}
);
width = 322;
},
{
layerId = m003;
shapes = (
{
closed = 1;
nodes = (
(369,297,l),
(234,363,l),
(369,428,l),
(336,565,l),
(37,403,l),
(37,322,l),
(336,158,l)
);
},
{
closed = 1;
nodes = (
(366,123,l),
(30,123,l),
(41,0,l),
(376,0,l)
);
}
);
width = 396;
}
);
unicode = 8804;
},
{
glyphname = greaterthanorequalto;
layers = (
{
layerId = m001;
shapes = (
{
closed = 1;
nodes = (
(292,278,l),
(292,306,l),
(43,470,l),
(20,440,l),
(241,292,l),
(20,146,l),
(43,113,l)
);
},
{
closed = 1;
nodes = (
(282,39,l),
(20,39,l),
(28,0,l),
(288,0,l)
);
}
);
width = 322;
},
{
layerId = m003;
shapes = (
{
closed = 1;
nodes = (
(359,320,l),
(359,401,l),
(60,565,l),
(27,426,l),
(162,360,l),
(27,295,l),
(60,158,l)
);
},
{
closed = 1;
nodes = (
(356,123,l),
(20,123,l),
(31,0,l),
(366,0,l)
);
}
);
width = 396;
}
);
unicode = 8805;
},
